{
classes = (
{
automatic = 1;
code = "A Aacute Abreve Acircumflex Adieresis Agrave Amacron Aogonek Aring Atilde AE B C Cacute Ccaron Ccedilla Ccircumflex Cdotaccent D Eth Dcaron Dcroat E Eacute Ebreve Ecaron Ecircumflex Edieresis Edotaccent Egrave Emacron Eogonek F G Gbreve Gcircumflex Gcommaaccent Gdotaccent H Hbar Hcircumflex I IJ Iacute Ibreve Icircumflex Idieresis Idotaccent Igrave Imacron Iogonek Itilde J Jcircumflex K Kcommaaccent L Lacute Lcaron Lcommaaccent Ldot Lslash M N Nacute Ncaron Ncommaaccent Eng Ntilde O Oacute Obreve Ocircumflex Odieresis Ograve Ohungarumlaut Omacron Oslash Otilde OE P Thorn Q R Racute Rcaron Rcommaaccent S Sacute Scaron Scedilla Scircumflex Scommaaccent T Tbar Tcaron Tcedilla Tcommaaccent U Uacute Ubreve Ucircumflex Udieresis Ugrave Uhungarumlaut Umacron Uogonek Uring Utilde V W Wacute Wcircumflex Wdieresis Wgrave X Y Yacute Ycircumflex Ydieresis Ygrave Z Zacute Zcaron Zdotaccent Delta Omega";
name = Uppercase;
}
);
copyright = "Copyright (c) 2015 Quote-Unquote Apps.";
customParameters = (
{
name = openTypeNameLicenseURL;
value = "http://scripts.sil.org/OFL";
},
{
name = openTypeNameLicense;

glyphs = (
{
glyphname = A;
lastChange = "2015-01-12 05:49:38 +0000";
layers = (
{
layerId = UUID0;
name = Regular;
paths = (
{
closed = 1;
nodes = (
"549 1209 OFFCURVE",
"517 1191 OFFCURVE",
"500 1144 CURVE SMOOTH",
"106 84 LINE SMOOTH",
"90 40 OFFCURVE",
"103 16 OFFCURVE",
"157 -2 CURVE SMOOTH",
"210 -20 OFFCURVE",
"235 -8 OFFCURVE",
"251 36 CURVE SMOOTH",
"396 427 LINE",
"406 456 LINE",
"610 1043 LINE",
"614 1043 LINE",
"818 455 LINE",
"828 427 LINE",
"973 36 LINE SMOOTH",
"989 -8 OFFCURVE",
"1014 -20 OFFCURVE",
"1067 -2 CURVE SMOOTH",
"1121 16 OFFCURVE",
"1134 40 OFFCURVE",
"1118 84 CURVE SMOOTH",
"724 1144 LINE SMOOTH",
"707 1191 OFFCURVE",
"675 1209 OFFCURVE",
"612 1209 CURVE SMOOTH"
);
},
{
closed = 1;
nodes = (
"335 474 LINE",
"335 330 LINE",
"893 330 LINE",
"893 474 LINE"
);
}
);
width = 1228;
}
);
unicode = 0041;
},
{
glyphname = AE;
lastChange = "2015-01-12 05:49:38 +0000";
layers = (
{
layerId = UUID0;
name = Regular;
paths = (
{
closed = 1;
nodes = (
"519 1187 LINE SMOOTH",
"474 1187 OFFCURVE",
"449 1169 OFFCURVE",
"430 1119 CURVE SMOOTH",
"27 84 LINE SMOOTH",
"10 40 OFFCURVE",
"23 15 OFFCURVE",
"76 -2 CURVE SMOOTH",
"129 -19 OFFCURVE",
"154 -8 OFFCURVE",
"171 36 CURVE SMOOTH",
"323 427 LINE",
"339 471 LINE",
"550 1043 LINE",
"624 1043 LINE",
"624 1187 LINE"
);
},
{
closed = 1;
nodes = (
"255 514 LINE",
"255 370 LINE",
"624 370 LINE",
"624 514 LINE"
);
},
{
closed = 1;
nodes = (
"679 144 LINE",
"679 0 LINE",
"1107 0 LINE SMOOTH",
"1152 0 OFFCURVE",
"1170 20 OFFCURVE",
"1170 72 CURVE SMOOTH",
"1170 124 OFFCURVE",
"1152 144 OFFCURVE",
"1107 144 CURVE SMOOTH"
);
},
{
closed = 1;
nodes = (
"575 1187 LINE",
"575 68 LINE SMOOTH",
"575 18 OFFCURVE",
"593 0 OFFCURVE",
"638 0 CURVE",
"725 0 LINE",
"725 1187 LINE"
);
},
{
closed = 1;
nodes = (
"679 684 LINE",
"679 540 LINE",
"1042 540 LINE SMOOTH",
"1087 540 OFFCURVE",
"1105 560 OFFCURVE",
"1105 612 CURVE SMOOTH",
"1105 664 OFFCURVE",
"1087 684 OFFCURVE",
"1042 684 CURVE SMOOTH"
);
},
{
closed = 1;
nodes = (
"679 1187 LINE",
"679 1043 LINE",
"1087 1043 LINE SMOOTH",
"1132 1043 OFFCURVE",
"1150 1063 OFFCURVE",
"1150 1115 CURVE SMOOTH",
"1150 1167 OFFCURVE",
"1132 1187 OFFCURVE",
"1087 1187 CURVE SMOOTH"
);
}
);
width = 1228;
}
);
unicode = 00C6;
},
{
glyphname = B;
lastChange = "2015-01-12 05:49:38 +0000";
layers = (
{
layerId = UUID0;
name = Regular;
paths = (
{
closed = 1;
nodes = (
"268 1187 LINE SMOOTH",
"223 1187 OFFCURVE",
"205 1169 OFFCURVE",
"205 1119 CURVE SMOOTH",
"205 68 LINE SMOOTH",
"205 18 OFFCURVE",
"223 0 OFFCURVE",
"268 0 CURVE SMOOTH",
"690 0 LINE SMOOTH",
"936 0 OFFCURVE",
"1074 126 OFFCURVE",
"1074 336 CURVE SMOOTH",
"1074 480 OFFCURVE",
"1000 576 OFFCURVE",
"874 623 CURVE",
"957 671 OFFCURVE",
"1008 750 OFFCURVE",
"1008 858 CURVE SMOOTH",
"1008 1051 OFFCURVE",
"883 1187 OFFCURVE",
"644 1187 CURVE SMOOTH"
);
},
{
closed = 1;
nodes = (
"832 531 OFFCURVE",
"920 467 OFFCURVE",
"920 336 CURVE SMOOTH",
"920 207 OFFCURVE",
"825 144 OFFCURVE",
"670 144 CURVE SMOOTH",
"355 144 LINE",
"355 531 LINE",
"665 531 LINE SMOOTH"
);
},
{
closed = 1;
nodes = (
"779 1043 OFFCURVE",
"854 979 OFFCURVE",
"854 858 CURVE SMOOTH",
"854 742 OFFCURVE",
"778 675 OFFCURVE",
"622 675 CURVE SMOOTH",
"355 675 LINE",
"355 1043 LINE",
"622 1043 LINE SMOOTH"
);
}
);
width = 1228;
}
);
unicode = 0042;
},
{
glyphname = C;
lastChange = "2015-01-12 05:49:38 +0000";
layers = (
{
layerId = UUID0;
name = Regular;
paths = (
{
closed = 1;
nodes = (
"355 1209 OFFCURVE",
"150 964 OFFCURVE",
"150 594 CURVE SMOOTH",
"150 224 OFFCURVE",
"355 -22 OFFCURVE",
"664 -22 CURVE SMOOTH",
"797 -22 OFFCURVE",
"916 10 OFFCURVE",
"1037 79 CURVE SMOOTH",
"1075 101 OFFCURVE",
"1084 133 OFFCURVE",
"1061 183 CURVE SMOOTH",
"1037 235 OFFCURVE",
"1003 233 OFFCURVE",
"974 216 CURVE SMOOTH",
"877 158 OFFCURVE",
"775 126 OFFCURVE",
"664 126 CURVE SMOOTH",
"447 126 OFFCURVE",
"304 306 OFFCURVE",
"304 594 CURVE SMOOTH",
"304 882 OFFCURVE",
"447 1061 OFFCURVE",
"664 1061 CURVE SMOOTH",
"775 1061 OFFCURVE",
"877 1029 OFFCURVE",
"974 971 CURVE SMOOTH",
"1003 954 OFFCURVE",
"1037 952 OFFCURVE",
"1061 1004 CURVE SMOOTH",
"1084 1054 OFFCURVE",
"1075 1086 OFFCURVE",
"1037 1108 CURVE SMOOTH",
"916 1177 OFFCURVE",
"797 1209 OFFCURVE",
"664 1209 CURVE SMOOTH"
);
}
);
width = 1228;
}
);
unicode = 0043;
},
{
glyphname = D;
lastChange = "2015-01-12 05:49:38 +0000";
layers = (
{
layerId = UUID0;
name = Regular;
paths = (
{
closed = 1;
nodes = (
"238 1187 LINE SMOOTH",
"193 1187 OFFCURVE",
"175 1169 OFFCURVE",
"175 1119 CURVE SMOOTH",
"175 68 LINE SMOOTH",
"175 18 OFFCURVE",
"193 0 OFFCURVE",
"238 0 CURVE",
"574 0 LINE SMOOTH",
"889 0 OFFCURVE",
"1100 223 OFFCURVE",
"1100 593 CURVE SMOOTH",
"1100 963 OFFCURVE",
"889 1187 OFFCURVE",
"574 1187 CURVE SMOOTH"
);
},
{
closed = 1;
nodes = (
"792 1043 OFFCURVE",
"946 891 OFFCURVE",
"946 593 CURVE SMOOTH",
"946 295 OFFCURVE",
"792 144 OFFCURVE",
"555 144 CURVE SMOOTH",
"325 144 LINE",
"325 1043 LINE",
"555 1043 LINE SMOOTH"
);
}
);
width = 1228;
}
);
unicode = 0044;
},
{
color = 6;
glyphname = Eth;
lastChange = "2015-01-12 05:49:38 +0000";
layers = (
{
layerId = UUID0;
name = Regular;
paths = (
{
closed = 1;
nodes = (
"288 1187 LINE SMOOTH",
"243 1187 OFFCURVE",
"225 1169 OFFCURVE",
"225 1119 CURVE SMOOTH",
"225 68 LINE SMOOTH",
"225 18 OFFCURVE",
"243 0 OFFCURVE",
"288 0 CURVE",
"594 0 LINE SMOOTH",
"909 0 OFFCURVE",
"1120 223 OFFCURVE",
"1120 593 CURVE SMOOTH",
"1120 963 OFFCURVE",
"909 1187 OFFCURVE",
"594 1187 CURVE SMOOTH"
);
},
{
closed = 1;
nodes = (
"113 684 LINE SMOOTH",
"68 684 OFFCURVE",
"50 664 OFFCURVE",
"50 612 CURVE SMOOTH",
"50 560 OFFCURVE",
"68 540 OFFCURVE",
"113 540 CURVE SMOOTH",
"595 540 LINE SMOOTH",
"640 540 OFFCURVE",
"658 560 OFFCURVE",
"658 612 CURVE SMOOTH",
"658 664 OFFCURVE",
"640 684 OFFCURVE",
"595 684 CURVE SMOOTH"
);
},
{
closed = 1;
nodes = (
"812 1043 OFFCURVE",
"966 891 OFFCURVE",
"966 593 CURVE SMOOTH",
"966 295 OFFCURVE",
"812 144 OFFCURVE",
"575 144 CURVE SMOOTH",
"375 144 LINE",
"375 1043 LINE",
"575 1043 LINE SMOOTH"
);
}
);
width = 1228;
}
);
unicode = 00D0;
},
{
glyphname = E;
lastChange = "2015-01-12 05:49:38 +0000";
layers = (
{
layerId = UUID0;
name = Regular;
paths = (
{
closed = 1;
nodes = (
"288 1187 LINE SMOOTH",
"243 1187 OFFCURVE",
"225 1169 OFFCURVE",
"225 1119 CURVE SMOOTH",
"225 68 LINE SMOOTH",
"225 18 OFFCURVE",
"243 0 OFFCURVE",
"288 0 CURVE SMOOTH",
"375 0 LINE",
"375 1187 LINE"
);
},
{
closed = 1;
nodes = (
"329 144 LINE",
"329 0 LINE",
"977 0 LINE SMOOTH",
"1022 0 OFFCURVE",
"1040 20 OFFCURVE",
"1040 72 CURVE SMOOTH",
"1040 124 OFFCURVE",
"1022 144 OFFCURVE",
"977 144 CURVE SMOOTH"
);
},
{
closed = 1;
nodes = (
"329 684 LINE",
"329 540 LINE",
"832 540 LINE SMOOTH",
"877 540 OFFCURVE",
"895 560 OFFCURVE",
"895 612 CURVE SMOOTH",
"895 664 OFFCURVE",
"877 684 OFFCURVE",
"832 684 CURVE SMOOTH"
);
},
{
closed = 1;
nodes = (
"329 1187 LINE",
"329 1043 LINE",
"957 1043 LINE SMOOTH",
"1002 1043 OFFCURVE",
"1020 1063 OFFCURVE",
"1020 1115 CURVE SMOOTH",
"1020 1167 OFFCURVE",
"1002 1187 OFFCURVE",
"957 1187 CURVE SMOOTH"
);
}
);
width = 1228;
}
);
unicode = 0045;
},
{
glyphname = F;
lastChange = "2015-01-12 05:49:38 +0000";
layers = (
{
layerId = UUID0;
name = Regular;
paths = (
{
closed = 1;
nodes = (
"308 1187 LINE SMOOTH",
"266 1187 OFFCURVE",
"245 1169 OFFCURVE",
"245 1119 CURVE SMOOTH",
"245 55 LINE SMOOTH",
"245 9 OFFCURVE",
"263 -10 OFFCURVE",
"319 -10 CURVE",
"321 -10 LINE",
"377 -10 OFFCURVE",
"395 9 OFFCURVE",
"395 55 CURVE SMOOTH",
"395 1187 LINE"
);
},
{
closed = 1;
nodes = (
"344 644 LINE",
"344 500 LINE",
"862 500 LINE SMOOTH",
"907 500 OFFCURVE",
"925 520 OFFCURVE",
"925 572 CURVE SMOOTH",
"925 624 OFFCURVE",
"907 644 OFFCURVE",
"862 644 CURVE SMOOTH"
);
},
{
closed = 1;
nodes = (
"344 1187 LINE",
"344 1043 LINE",
"977 1043 LINE SMOOTH",
"1022 1043 OFFCURVE",
"1040 1063 OFFCURVE",
"1040 1115 CURVE SMOOTH",
"1040 1167 OFFCURVE",
"1022 1187 OFFCURVE",
"977 1187 CURVE SMOOTH"
);
}
);
width = 1228;
}
);
unicode = 0046;
},
{
glyphname = G;
lastChange = "2015-01-12 05:49:38 +0000";
layers = (
{
layerId = UUID0;
name = Regular;
paths = (
{
closed = 1;
nodes = (
"335 1209 OFFCURVE",
"110 964 OFFCURVE",
"110 594 CURVE SMOOTH",
"110 224 OFFCURVE",
"319 -22 OFFCURVE",
"634 -22 CURVE SMOOTH",
"788 -22 OFFCURVE",
"937 11 OFFCURVE",
"1047 74 CURVE SMOOTH",
"1070 87 OFFCURVE",
"1083 111 OFFCURVE",
"1083 143 CURVE",
"958 195 LINE",
"865 146 OFFCURVE",
"758 126 OFFCURVE",
"634 126 CURVE SMOOTH",
"412 126 OFFCURVE",
"264 306 OFFCURVE",
"264 594 CURVE SMOOTH",
"264 882 OFFCURVE",
"427 1061 OFFCURVE",
"644 1061 CURVE SMOOTH",
"755 1061 OFFCURVE",
"857 1036 OFFCURVE",
"955 980 CURVE SMOOTH",
"985 963 OFFCURVE",
"1019 962 OFFCURVE",
"1042 1015 CURVE SMOOTH",
"1063 1065 OFFCURVE",
"1054 1097 OFFCURVE",
"1015 1118 CURVE SMOOTH",
"893 1184 OFFCURVE",
"777 1209 OFFCURVE",
"644 1209 CURVE SMOOTH"
);
},
{
closed = 1;
nodes = (
"666 594 LINE SMOOTH",
"621 594 OFFCURVE",
"603 574 OFFCURVE",
"603 522 CURVE SMOOTH",
"603 470 OFFCURVE",
"621 450 OFFCURVE",
"666 450 CURVE SMOOTH",
"992 450 LINE",
"992 594 LINE"
);
},
{
closed = 1;
nodes = (
"933 594 LINE",
"933 143 LINE",
"1083 143 LINE",
"1083 526 LINE",
"1083 576 OFFCURVE",
"1065 594 OFFCURVE",
"1020 594 CURVE SMOOTH"
);
}
);
width = 1228;
}
);
unicode = 0047;
},
{
glyphname = H;
lastChange = "2015-01-12 05:49:38 +0000";
layers = (
{
layerId = UUID0;
name = Regular;
paths = (
{
closed = 1;
nodes = (
"977 1197 LINE",
"921 1197 OFFCURVE",
"903 1178 OFFCURVE",
"903 1132 CURVE SMOOTH",
"903 55 LINE SMOOTH",
"903 9 OFFCURVE",
"921 -10 OFFCURVE",
"977 -10 CURVE",
"979 -10 LINE",
"1035 -10 OFFCURVE",
"1053 9 OFFCURVE",
"1053 55 CURVE SMOOTH",
"1053 1132 LINE SMOOTH",
"1053 1178 OFFCURVE",
"1035 1197 OFFCURVE",
"979 1197 CURVE"
);
},
{
closed = 1;
nodes = (
"249 1197 LINE",
"193 1197 OFFCURVE",
"175 1178 OFFCURVE",
"175 1132 CURVE SMOOTH",
"175 55 LINE SMOOTH",
"175 9 OFFCURVE",
"193 -10 OFFCURVE",
"249 -10 CURVE",
"251 -10 LINE",
"307 -10 OFFCURVE",
"325 9 OFFCURVE",
"325 55 CURVE SMOOTH",
"325 1132 LINE SMOOTH",
"325 1178 OFFCURVE",
"307 1197 OFFCURVE",
"251 1197 CURVE"
);
},
{
closed = 1;
nodes = (
"259 684 LINE",
"259 540 LINE",
"969 540 LINE",
"969 684 LINE"
);
}
);
width = 1228;
}
);
unicode = 0048;
},
{
color = 6;
glyphname = Hbar;
lastChange = "2015-01-12 05:49:38 +0000";
layers = (
{
components = (
{
name = H;
transform = "{1, 0, 0, 1, 0, 0}";
}
);
layerId = UUID0;
name = Regular;
paths = (
{
closed = 1;
nodes = (
"93 974 LINE SMOOTH",
"48 974 OFFCURVE",
"30 954 OFFCURVE",
"30 902 CURVE SMOOTH",
"30 850 OFFCURVE",
"48 830 OFFCURVE",
"93 830 CURVE SMOOTH",
"1135 830 LINE SMOOTH",
"1180 830 OFFCURVE",
"1198 850 OFFCURVE",
"1198 902 CURVE SMOOTH",
"1198 954 OFFCURVE",
"1180 974 OFFCURVE",
"1135 974 CURVE SMOOTH"
);
}
);
width = 1228;
}
);
unicode = 0126;
},
{
glyphname = I;
lastChange = "2015-01-12 05:49:38 +0000";
layers = (
{
layerId = UUID0;
name = Regular;
paths = (
{
closed = 1;
nodes = (
"539 1131 LINE",
"539 63 LINE",
"689 63 LINE",
"689 1131 LINE"
);
},
{
closed = 1;
nodes = (
"263 144 LINE SMOOTH",
"218 144 OFFCURVE",
"200 124 OFFCURVE",
"200 72 CURVE SMOOTH",
"200 20 OFFCURVE",
"218 0 OFFCURVE",
"263 0 CURVE SMOOTH",
"965 0 LINE SMOOTH",
"1010 0 OFFCURVE",
"1028 20 OFFCURVE",
"1028 72 CURVE SMOOTH",
"1028 124 OFFCURVE",
"1010 144 OFFCURVE",
"965 144 CURVE SMOOTH"
);
},
{
closed = 1;
nodes = (
"283 1187 LINE SMOOTH",
"238 1187 OFFCURVE",
"220 1167 OFFCURVE",
"220 1115 CURVE SMOOTH",
"220 1063 OFFCURVE",
"238 1043 OFFCURVE",
"283 1043 CURVE SMOOTH",
"945 1043 LINE SMOOTH",
"990 1043 OFFCURVE",
"1008 1063 OFFCURVE",
"1008 1115 CURVE SMOOTH",
"1008 1167 OFFCURVE",
"990 1187 OFFCURVE",
"945 1187 CURVE SMOOTH"
);
}
);
width = 1228;
}
);
unicode = 0049;
},
{
glyphname = IJ;
lastChange = "2015-01-14 20:36:22 +0000";
layers = (
{
layerId = UUID0;
name = Regular;
paths = (
{
closed = 1;
nodes = (
"978 1197 LINE SMOOTH",
"922 1197 OFFCURVE",
"904 1178 OFFCURVE",
"904 1132 CURVE SMOOTH",
"904 283 LINE SMOOTH",
"904 170 OFFCURVE",
"864 126 OFFCURVE",
"782 126 CURVE SMOOTH",
"722 126 OFFCURVE",
"658 142 OFFCURVE",
"607 167 CURVE SMOOTH",
"579 181 OFFCURVE",
"545 179 OFFCURVE",
"522 125 CURVE SMOOTH",
"501 75 OFFCURVE",
"512 47 OFFCURVE",
"550 28 CURVE SMOOTH",
"617 -5 OFFCURVE",
"712 -22 OFFCURVE",
"781 -22 CURVE SMOOTH",
"957 -22 OFFCURVE",
"1054 74 OFFCURVE",
"1054 253 CURVE SMOOTH",
"1054 1132 LINE SMOOTH",
"1054 1178 OFFCURVE",
"1036 1197 OFFCURVE",
"980 1197 CURVE SMOOTH"
);
},
{
closed = 1;
nodes = (
"253 1197 LINE SMOOTH",
"197 1197 OFFCURVE",
"179 1178 OFFCURVE",
"179 1132 CURVE SMOOTH",
"179 55 LINE SMOOTH",
"179 9 OFFCURVE",
"197 -10 OFFCURVE",
"253 -10 CURVE SMOOTH",
"255 -10 LINE SMOOTH",
"311 -10 OFFCURVE",
"329 9 OFFCURVE",
"329 55 CURVE SMOOTH",
"329 1132 LINE SMOOTH",
"329 1178 OFFCURVE",
"311 1197 OFFCURVE",
"255 1197 CURVE SMOOTH"
);
}
);
width = 1228;
}
);
unicode = 0132;
},
{
glyphname = J;
lastChange = "2015-01-12 05:49:38 +0000";
layers = (
{
layerId = UUID0;
name = Regular;
paths = (
{
closed = 1;
nodes = (
"804 1187 LINE",
"804 363 LINE SMOOTH",
"804 210 OFFCURVE",
"734 126 OFFCURVE",
"582 126 CURVE SMOOTH",
"478 126 OFFCURVE",
"377 160 OFFCURVE",
"294 222 CURVE SMOOTH",
"268 242 OFFCURVE",
"234 246 OFFCURVE",
"202 197 CURVE SMOOTH",
"173 151 OFFCURVE",
"179 118 OFFCURVE",
"214 92 CURVE SMOOTH",
"315 17 OFFCURVE",
"449 -22 OFFCURVE",
"581 -22 CURVE SMOOTH",
"817 -22 OFFCURVE",
"954 104 OFFCURVE",
"954 333 CURVE SMOOTH",
"954 1119 LINE SMOOTH",
"954 1169 OFFCURVE",
"933 1187 OFFCURVE",
"891 1187 CURVE SMOOTH"
);
},
{
closed = 1;
nodes = (
"443 1187 LINE SMOOTH",
"398 1187 OFFCURVE",
"380 1167 OFFCURVE",
"380 1115 CURVE SMOOTH",
"380 1063 OFFCURVE",
"398 1043 OFFCURVE",
"443 1043 CURVE SMOOTH",
"861 1043 LINE",
"861 1187 LINE"
);
}
);
width = 1228;
}
);
unicode = 004A;
},
{
glyphname = K;
lastChange = "2015-01-12 05:49:38 +0000";
layers = (
{
layerId = UUID0;
name = Regular;
paths = (
{
closed = 1;
nodes = (
"240 451 LINE",
"355 355 LINE",
"1053 1094 LINE SMOOTH",
"1085 1127 OFFCURVE",
"1083 1156 OFFCURVE",
"1036 1187 CURVE SMOOTH",
"996 1213 OFFCURVE",
"959 1216 OFFCURVE",
"936 1191 CURVE SMOOTH"
);
},
{
closed = 1;
nodes = (
"289 1197 LINE",
"233 1197 OFFCURVE",
"215 1178 OFFCURVE",
"215 1132 CURVE SMOOTH",
"215 55 LINE SMOOTH",
"215 9 OFFCURVE",
"233 -10 OFFCURVE",
"289 -10 CURVE",
"291 -10 LINE",
"347 -10 OFFCURVE",
"365 9 OFFCURVE",
"365 55 CURVE SMOOTH",
"365 1132 LINE SMOOTH",
"365 1178 OFFCURVE",
"347 1197 OFFCURVE",
"291 1197 CURVE"
);
},
{
closed = 1;
nodes = (
"487 618 LINE",
"953 6 LINE SMOOTH",
"978 -27 OFFCURVE",
"1008 -25 OFFCURVE",
"1052 0 CURVE SMOOTH",
"1101 28 OFFCURVE",
"1106 55 OFFCURVE",
"1078 92 CURVE SMOOTH",
"618 695 LINE"
);
}
);
width = 1228;
}
);
unicode = 004B;
},
{
glyphname = L;
lastChange = "2015-01-12 05:49:38 +0000";
layers = (
{
layerId = UUID0;
name = Regular;
paths = (
{
closed = 1;
nodes = (
"319 1197 LINE SMOOTH",
"263 1197 OFFCURVE",
"245 1178 OFFCURVE",
"245 1132 CURVE SMOOTH",
"245 68 LINE SMOOTH",
"245 18 OFFCURVE",
"262 0 OFFCURVE",
"308 0 CURVE SMOOTH",
"395 0 LINE",
"395 1132 LINE SMOOTH",
"395 1178 OFFCURVE",
"377 1197 OFFCURVE",
"321 1197 CURVE SMOOTH"
);
},
{
closed = 1;
nodes = (
"349 144 LINE",
"349 0 LINE",
"977 0 LINE SMOOTH",
"1022 0 OFFCURVE",
"1040 20 OFFCURVE",
"1040 72 CURVE SMOOTH",
"1040 124 OFFCURVE",
"1022 144 OFFCURVE",
"977 144 CURVE SMOOTH"
);
}
);
width = 1228;
}
);
unicode = 004C;
},
{
color = 6;
glyphname = Lslash;
lastChange = "2015-01-14 20:47:15 +0000";
layers = (
{
layerId = UUID0;
name = Regular;
paths = (
{
closed = 1;
nodes = (
"92 468 LINE SMOOTH",
"55 443 OFFCURVE",
"50 418 OFFCURVE",
"78 377 CURVE SMOOTH",
"106 335 OFFCURVE",
"132 331 OFFCURVE",
"169 356 CURVE SMOOTH",
"738 743 LINE SMOOTH",
"775 768 OFFCURVE",
"780 793 OFFCURVE",
"752 834 CURVE SMOOTH",
"724 876 OFFCURVE",
"698 880 OFFCURVE",
"661 855 CURVE SMOOTH"
);
},
{
closed = 1;
nodes = (
"379 1197 LINE SMOOTH",
"323 1197 OFFCURVE",
"305 1178 OFFCURVE",
"305 1132 CURVE SMOOTH",
"305 68 LINE SMOOTH",
"305 18 OFFCURVE",
"322 0 OFFCURVE",
"368 0 CURVE SMOOTH",
"455 0 LINE",
"455 1132 LINE SMOOTH",
"455 1178 OFFCURVE",
"437 1197 OFFCURVE",
"381 1197 CURVE SMOOTH"
);
},
{
closed = 1;
nodes = (
"409 144 LINE",
"409 0 LINE",
"977 0 LINE SMOOTH",
"1022 0 OFFCURVE",
"1040 20 OFFCURVE",
"1040 72 CURVE SMOOTH",
"1040 124 OFFCURVE",
"1022 144 OFFCURVE",
"977 144 CURVE SMOOTH"
);
}
);
width = 1228;
}
);
unicode = 0141;
},
{
glyphname = M;
lastChange = "2015-01-12 05:49:38 +0000";
layers = (
{
layerId = UUID0;
name = Regular;
paths = (
{
closed = 1;
nodes = (
"976 1197 LINE SMOOTH",
"929 1197 OFFCURVE",
"900 1177 OFFCURVE",
"879 1132 CURVE SMOOTH",
"614 562 LINE",
"349 1132 LINE SMOOTH",
"328 1177 OFFCURVE",
"300 1197 OFFCURVE",
"253 1197 CURVE SMOOTH",
"251 1197 LINE SMOOTH",
"204 1197 OFFCURVE",
"176 1182 OFFCURVE",
"175 1132 CURVE SMOOTH",
"145 55 LINE SMOOTH",
"144 9 OFFCURVE",
"162 -10 OFFCURVE",
"218 -10 CURVE SMOOTH",
"220 -10 LINE SMOOTH",
"276 -10 OFFCURVE",
"293 9 OFFCURVE",
"294 55 CURVE SMOOTH",
"315 868 LINE",
"522 422 LINE SMOOTH",
"544 375 OFFCURVE",
"569 358 OFFCURVE",
"614 358 CURVE SMOOTH",
"659 358 OFFCURVE",
"684 375 OFFCURVE",
"706 422 CURVE SMOOTH",
"913 868 LINE",
"934 55 LINE SMOOTH",
"935 9 OFFCURVE",
"952 -10 OFFCURVE",
"1008 -10 CURVE SMOOTH",
"1010 -10 LINE SMOOTH",
"1066 -10 OFFCURVE",
"1084 9 OFFCURVE",
"1083 55 CURVE SMOOTH",
"1053 1132 LINE SMOOTH",
"1052 1182 OFFCURVE",
"1025 1197 OFFCURVE",
"978 1197 CURVE SMOOTH"
);
}
);
width = 1228;
}
);
unicode = 004D;
},
{
glyphname = N;
lastChange = "2015-01-14 20:47:46 +0000";
layers = (
{
layerId = UUID0;
name = Regular;
paths = (
{
closed = 1;
nodes = (
"979 1197 LINE SMOOTH",
"925 1197 OFFCURVE",
"907 1178 OFFCURVE",
"907 1132 CURVE SMOOTH",
"907 287 LINE",
"903 287 LINE",
"339 1169 LINE SMOOTH",
"327 1187 OFFCURVE",
"306 1197 OFFCURVE",
"277 1197 CURVE SMOOTH",
"250 1197 LINE SMOOTH",
"194 1197 OFFCURVE",
"175 1178 OFFCURVE",
"175 1132 CURVE SMOOTH",
"175 55 LINE SMOOTH",
"175 9 OFFCURVE",
"193 -10 OFFCURVE",
"247 -10 CURVE SMOOTH",
"249 -10 LINE SMOOTH",
"303 -10 OFFCURVE",
"321 9 OFFCURVE",
"321 55 CURVE SMOOTH",
"321 921 LINE",
"325 921 LINE",
"894 33 LINE SMOOTH",
"916 -1 OFFCURVE",
"940 -22 OFFCURVE",
"978 -22 CURVE SMOOTH",
"1030 -22 OFFCURVE",
"1053 2 OFFCURVE",
"1053 37 CURVE SMOOTH",
"1053 1132 LINE SMOOTH",
"1053 1178 OFFCURVE",
"1035 1197 OFFCURVE",
"981 1197 CURVE SMOOTH"
);
}
);
width = 1228;
}
);
unicode = 004E;
},
{
color = 3;
glyphname = Eng;
lastChange = "2015-01-14 20:48:01 +0000";
layers = (
{
background = {
components = (
{
name = N;
transform = "{1, 0, 0, 1, 0, 0}";
}
);
paths = (
{
closed = 1;
nodes = (
"903 198 LINE",
"903 -107 LINE SMOOTH",
"903 -220 OFFCURVE",
"863 -264 OFFCURVE",
"781 -264 CURVE SMOOTH",
"721 -264 OFFCURVE",
"657 -246 OFFCURVE",
"604 -224 CURVE SMOOTH",
"575 -212 OFFCURVE",
"544 -212 OFFCURVE",
"521 -265 CURVE SMOOTH",
"499 -315 OFFCURVE",
"511 -343 OFFCURVE",
"549 -360 CURVE SMOOTH",
"617 -390 OFFCURVE",
"700 -410 OFFCURVE",
"780 -410 CURVE SMOOTH",
"956 -410 OFFCURVE",
"1053 -314 OFFCURVE",
"1053 -135 CURVE SMOOTH",
"1053 198 LINE"
);
}
);
};
layerId = UUID0;
name = Regular;
paths = (
{
closed = 1;
nodes = (
"979 1197 LINE SMOOTH",
"925 1197 OFFCURVE",
"907 1178 OFFCURVE",
"907 1132 CURVE SMOOTH",
"907 287 LINE",
"903 287 LINE",
"339 1169 LINE SMOOTH",
"327 1187 OFFCURVE",
"306 1197 OFFCURVE",
"277 1197 CURVE SMOOTH",
"250 1197 LINE SMOOTH",
"194 1197 OFFCURVE",
"175 1178 OFFCURVE",
"175 1132 CURVE SMOOTH",
"175 55 LINE SMOOTH",
"175 9 OFFCURVE",
"193 -10 OFFCURVE",
"247 -10 CURVE SMOOTH",
"249 -10 LINE SMOOTH",
"303 -10 OFFCURVE",
"321 9 OFFCURVE",
"321 55 CURVE SMOOTH",
"321 921 LINE",
"325 921 LINE",
"903 19 LINE",
"903 -107 LINE SMOOTH",
"903 -220 OFFCURVE",
"863 -264 OFFCURVE",
"781 -264 CURVE SMOOTH",
"721 -264 OFFCURVE",
"657 -246 OFFCURVE",
"604 -224 CURVE SMOOTH",
"575 -212 OFFCURVE",
"544 -212 OFFCURVE",
"521 -265 CURVE SMOOTH",
"499 -315 OFFCURVE",
"511 -343 OFFCURVE",
"549 -360 CURVE SMOOTH",
"617 -390 OFFCURVE",
"700 -410 OFFCURVE",
"780 -410 CURVE SMOOTH",
"956 -410 OFFCURVE",
"1053 -314 OFFCURVE",
"1053 -135 CURVE SMOOTH",
"1053 1132 LINE SMOOTH",
"1053 1178 OFFCURVE",
"1035 1197 OFFCURVE",
"981 1197 CURVE SMOOTH"
);
}
);
width = 1228;
}
);
unicode = 014A;
},
{
glyphname = O;
lastChange = "2015-01-12 05:49:38 +0000";
layers = (
{
layerId = UUID0;
name = Regular;
paths = (
{
closed = 1;
nodes = (
"299 1209 OFFCURVE",
"90 963 OFFCURVE",
"90 593 CURVE SMOOTH",
"90 223 OFFCURVE",
"299 -22 OFFCURVE",
"614 -22 CURVE SMOOTH",
"929 -22 OFFCURVE",
"1138 223 OFFCURVE",
"1138 593 CURVE SMOOTH",
"1138 963 OFFCURVE",
"929 1209 OFFCURVE",
"614 1209 CURVE SMOOTH"
);
},
{
closed = 1;
nodes = (
"838 1061 OFFCURVE",
"984 883 OFFCURVE",
"984 593 CURVE SMOOTH",
"984 303 OFFCURVE",
"838 126 OFFCURVE",
"614 126 CURVE SMOOTH",
"390 126 OFFCURVE",
"244 303 OFFCURVE",
"244 593 CURVE SMOOTH",
"244 883 OFFCURVE",
"390 1061 OFFCURVE",
"614 1061 CURVE SMOOTH"
);
}
);
width = 1228;
}
);
unicode = 004F;
},
{
color = 6;
glyphname = Oslash;
lastChange = "2015-01-14 20:48:09 +0000";
layers = (
{
components = (
{
name = O;
transform = "{1, 0, 0, 1, 0, 0}";
}
);
layerId = UUID0;
name = Regular;
paths = (
{
closed = 1;
nodes = (
"1031 1280 OFFCURVE",
"1002 1277 OFFCURVE",
"976 1239 CURVE SMOOTH",
"137 30 LINE SMOOTH",
"111 -8 OFFCURVE",
"117 -35 OFFCURVE",
"158 -63 CURVE SMOOTH",
"198 -91 OFFCURVE",
"226 -88 OFFCURVE",
"252 -50 CURVE SMOOTH",
"1091 1159 LINE SMOOTH",
"1116 1196 OFFCURVE",
"1111 1224 OFFCURVE",
"1071 1252 CURVE SMOOTH"
);
}
);
width = 1228;
}
);
unicode = 00D8;
},
{
glyphname = OE;
lastChange = "2015-01-12 05:49:38 +0000";
layers = (
{
layerId = UUID0;
name = Regular;
paths = (
{
closed = 1;
nodes = (
"291 1195 OFFCURVE",
"84 970 OFFCURVE",
"84 593 CURVE SMOOTH",
"84 216 OFFCURVE",
"291 -8 OFFCURVE",
"611 0 CURVE",
"602 136 LINE",
"384 136 OFFCURVE",
"238 295 OFFCURVE",
"238 593 CURVE SMOOTH",
"238 891 OFFCURVE",
"384 1051 OFFCURVE",
"602 1050 CURVE",
"611 1187 LINE"
);
},
{
closed = 1;
nodes = (
"680 144 LINE",
"680 0 LINE",
"1078 0 LINE SMOOTH",
"1123 0 OFFCURVE",
"1141 20 OFFCURVE",
"1141 72 CURVE SMOOTH",
"1141 124 OFFCURVE",
"1123 144 OFFCURVE",
"1078 144 CURVE SMOOTH"
);
},
{
closed = 1;
nodes = (
"611 1187 LINE",
"586 1158 LINE",
"586 24 LINE",
"611 0 LINE",
"736 0 LINE",
"736 1187 LINE"
);
},
{
closed = 1;
nodes = (
"680 684 LINE",
"680 540 LINE",
"983 540 LINE SMOOTH",
"1028 540 OFFCURVE",
"1046 560 OFFCURVE",
"1046 612 CURVE SMOOTH",
"1046 664 OFFCURVE",
"1028 684 OFFCURVE",
"983 684 CURVE SMOOTH"
);
},
{
closed = 1;
nodes = (
"680 1187 LINE",
"680 1043 LINE",
"1058 1043 LINE SMOOTH",
"1103 1043 OFFCURVE",
"1121 1063 OFFCURVE",
"1121 1115 CURVE SMOOTH",
"1121 1167 OFFCURVE",
"1103 1187 OFFCURVE",
"1058 1187 CURVE SMOOTH"
);
}
);
width = 1228;
}
);
unicode = 0152;
},
{
glyphname = P;
lastChange = "2015-01-12 05:49:38 +0000";
layers = (
{
layerId = UUID0;
name = Regular;
paths = (
{
closed = 1;
nodes = (
"338 1187 LINE",
"338 1043 LINE",
"619 1043 LINE SMOOTH",
"816 1043 OFFCURVE",
"918 949 OFFCURVE",
"918 788 CURVE SMOOTH",
"918 629 OFFCURVE",
"816 537 OFFCURVE",
"619 537 CURVE SMOOTH",
"338 537 LINE",
"338 393 LINE",
"640 393 LINE SMOOTH",
"920 393 OFFCURVE",
"1072 553 OFFCURVE",
"1072 788 CURVE SMOOTH",
"1072 1024 OFFCURVE",
"920 1187 OFFCURVE",
"640 1187 CURVE SMOOTH"
);
},
{
closed = 1;
nodes = (
"298 1187 LINE SMOOTH",
"253 1187 OFFCURVE",
"235 1169 OFFCURVE",
"235 1119 CURVE SMOOTH",
"235 55 LINE SMOOTH",
"235 9 OFFCURVE",
"253 -10 OFFCURVE",
"309 -10 CURVE SMOOTH",
"311 -10 LINE SMOOTH",
"367 -10 OFFCURVE",
"385 9 OFFCURVE",
"385 55 CURVE",
"385 1187 LINE"
);
}
);
width = 1228;
}
);
unicode = 0050;
},
{
glyphname = Thorn;
lastChange = "2015-01-12 05:49:38 +0000";
layers = (
{
layerId = UUID0;
name = Regular;
paths = (
{
closed = 1;
nodes = (
"329 946 LINE",
"329 802 LINE",
"659 802 LINE SMOOTH",
"826 802 OFFCURVE",
"904 719 OFFCURVE",
"904 598 CURVE SMOOTH",
"904 469 OFFCURVE",
"816 398 OFFCURVE",
"659 398 CURVE SMOOTH",
"329 398 LINE",
"329 254 LINE",
"680 254 LINE SMOOTH",
"930 254 OFFCURVE",
"1062 403 OFFCURVE",
"1062 598 CURVE SMOOTH",
"1062 794 OFFCURVE",
"930 946 OFFCURVE",
"680 946 CURVE SMOOTH"
);
},
{
closed = 1;
nodes = (
"309 1197 LINE",
"253 1197 OFFCURVE",
"235 1178 OFFCURVE",
"235 1132 CURVE SMOOTH",
"235 55 LINE SMOOTH",
"235 9 OFFCURVE",
"253 -10 OFFCURVE",
"309 -10 CURVE",
"311 -10 LINE",
"367 -10 OFFCURVE",
"385 9 OFFCURVE",
"385 55 CURVE SMOOTH",
"385 1132 LINE SMOOTH",
"385 1178 OFFCURVE",
"367 1197 OFFCURVE",
"311 1197 CURVE"
);
}
);
width = 1228;
}
);
unicode = 00DE;
},
{
color = 6;
glyphname = Q;
lastChange = "2015-01-12 05:49:38 +0000";
layers = (
{
components = (
{
name = O;
transform = "{1, 0, 0, 1, 0, 0}";
}
);
layerId = UUID0;
name = Regular;
paths = (
{
closed = 1;
nodes = (
"578 365 OFFCURVE",
"572 339 OFFCURVE",
"597 300 CURVE SMOOTH",
"728 95 LINE",
"754 54 LINE",
"876 -135 LINE SMOOTH",
"901 -173 OFFCURVE",
"927 -179 OFFCURVE",
"974 -149 CURVE SMOOTH",
"1022 -119 OFFCURVE",
"1027 -92 OFFCURVE",
"1002 -54 CURVE SMOOTH",
"723 381 LINE SMOOTH",
"698 420 OFFCURVE",
"672 426 OFFCURVE",
"625 396 CURVE SMOOTH"
);
}
);
width = 1228;
}
);
unicode = 0051;
},
{
glyphname = R;
lastChange = "2015-01-12 05:49:38 +0000";
layers = (
{
layerId = UUID0;
name = Regular;
paths = (
{
closed = 1;
nodes = (
"337 1187 LINE",
"337 1043 LINE",
"599 1043 LINE SMOOTH",
"786 1043 OFFCURVE",
"878 969 OFFCURVE",
"878 828 CURVE SMOOTH",
"878 689 OFFCURVE",
"786 617 OFFCURVE",
"599 617 CURVE SMOOTH",
"337 617 LINE",
"337 473 LINE",
"620 473 LINE SMOOTH",
"890 473 OFFCURVE",
"1032 613 OFFCURVE",
"1032 828 CURVE SMOOTH",
"1032 1044 OFFCURVE",
"890 1187 OFFCURVE",
"620 1187 CURVE SMOOTH"
);
},
{
closed = 1;
nodes = (
"298 1187 LINE SMOOTH",
"253 1187 OFFCURVE",
"235 1169 OFFCURVE",
"235 1119 CURVE SMOOTH",
"235 55 LINE SMOOTH",
"235 9 OFFCURVE",
"253 -10 OFFCURVE",
"309 -10 CURVE SMOOTH",
"311 -10 LINE SMOOTH",
"367 -10 OFFCURVE",
"385 9 OFFCURVE",
"385 55 CURVE SMOOTH",
"385 1187 LINE"
);
},
{
closed = 1;
nodes = (
"566 536 LINE",
"905 13 LINE SMOOTH",
"926 -20 OFFCURVE",
"953 -22 OFFCURVE",
"1002 0 CURVE SMOOTH",
"1053 23 OFFCURVE",
"1060 49 OFFCURVE",
"1035 88 CURVE SMOOTH",
"724 562 LINE"
);
}
);
width = 1228;
}
);
unicode = 0052;
},
{
glyphname = S;
lastChange = "2015-01-12 05:49:38 +0000";
layers = (
{
layerId = UUID0;
name = Regular;
paths = (
{
closed = 1;
nodes = (
"338 1209 OFFCURVE",
"172 1080 OFFCURVE",
"172 863 CURVE SMOOTH",
"172 724 OFFCURVE",
"241 651 OFFCURVE",
"336 608 CURVE SMOOTH",
"473 546 OFFCURVE",
"664 544 OFFCURVE",
"787 492 CURVE SMOOTH",
"859 461 OFFCURVE",
"908 414 OFFCURVE",
"908 327 CURVE SMOOTH",
"908 209 OFFCURVE",
"817 126 OFFCURVE",
"622 126 CURVE SMOOTH",
"491 126 OFFCURVE",
"365 171 OFFCURVE",
"270 232 CURVE SMOOTH",
"242 250 OFFCURVE",
"208 251 OFFCURVE",
"181 199 CURVE SMOOTH",
"156 151 OFFCURVE",
"164 117 OFFCURVE",
"201 94 CURVE SMOOTH",
"319 21 OFFCURVE",
"469 -22 OFFCURVE",
"622 -22 CURVE SMOOTH",
"916 -22 OFFCURVE",
"1062 121 OFFCURVE",
"1062 327 CURVE SMOOTH",
"1062 503 OFFCURVE",
"973 587 OFFCURVE",
"856 634 CURVE SMOOTH",
"705 695 OFFCURVE",
"509 694 OFFCURVE",
"403 748 CURVE SMOOTH",
"355 772 OFFCURVE",
"326 807 OFFCURVE",
"326 863 CURVE SMOOTH",
"326 985 OFFCURVE",
"418 1061 OFFCURVE",
"578 1061 CURVE SMOOTH",
"709 1061 OFFCURVE",
"826 1027 OFFCURVE",
"923 969 CURVE SMOOTH",
"952 952 OFFCURVE",
"987 952 OFFCURVE",
"1011 1004 CURVE SMOOTH",
"1034 1054 OFFCURVE",
"1026 1087 OFFCURVE",
"988 1109 CURVE SMOOTH",
"867 1178 OFFCURVE",
"731 1209 OFFCURVE",
"578 1209 CURVE SMOOTH"
);
}
);
width = 1228;
}
);
unicode = 0053;
},
{
glyphname = T;
lastChange = "2015-01-12 05:49:38 +0000";
layers = (
{
layerId = UUID0;
name = Regular;
paths = (
{
closed = 1;
nodes = (
"539 1121 LINE",
"539 55 LINE SMOOTH",
"539 9 OFFCURVE",
"557 -10 OFFCURVE",
"613 -10 CURVE SMOOTH",
"615 -10 LINE SMOOTH",
"671 -10 OFFCURVE",
"689 9 OFFCURVE",
"689 55 CURVE SMOOTH",
"689 1121 LINE"
);
},
{
closed = 1;
nodes = (
"185 1187 LINE SMOOTH",
"140 1187 OFFCURVE",
"122 1167 OFFCURVE",
"122 1115 CURVE SMOOTH",
"122 1063 OFFCURVE",
"140 1043 OFFCURVE",
"185 1043 CURVE SMOOTH",
"1043 1043 LINE",
"1088 1043 OFFCURVE",
"1106 1063 OFFCURVE",
"1106 1115 CURVE SMOOTH",
"1106 1167 OFFCURVE",
"1088 1187 OFFCURVE",
"1043 1187 CURVE SMOOTH"
);
}
);
width = 1228;
}
);
unicode = 0054;
},
{
color = 6;
glyphname = Tbar;
lastChange = "2015-01-12 05:49:38 +0000";
layers = (
{
components = (
{
name = T;
transform = "{1, 0, 0, 1, 0, 0}";
}
);
layerId = UUID0;
name = Regular;
paths = (
{
closed = 1;
nodes = (
"333 590 LINE SMOOTH",
"288 590 OFFCURVE",
"270 570 OFFCURVE",
"270 518 CURVE SMOOTH",
"270 466 OFFCURVE",
"288 446 OFFCURVE",
"333 446 CURVE SMOOTH",
"895 446 LINE SMOOTH",
"940 446 OFFCURVE",
"958 466 OFFCURVE",
"958 518 CURVE SMOOTH",
"958 570 OFFCURVE",
"940 590 OFFCURVE",
"895 590 CURVE SMOOTH"
);
}
);
width = 1228;
}
);
unicode = 0166;
},
{
glyphname = U;
lastChange = "2015-01-12 05:49:38 +0000";
layers = (
{
layerId = UUID0;
name = Regular;
paths = (
{
closed = 1;
nodes = (
"977 1197 LINE SMOOTH",
"921 1197 OFFCURVE",
"903 1178 OFFCURVE",
"903 1132 CURVE SMOOTH",
"903 433 LINE SMOOTH",
"903 225 OFFCURVE",
"796 126 OFFCURVE",
"614 126 CURVE SMOOTH",
"432 126 OFFCURVE",
"325 225 OFFCURVE",
"325 433 CURVE SMOOTH",
"325 1132 LINE SMOOTH",
"325 1178 OFFCURVE",
"307 1197 OFFCURVE",
"251 1197 CURVE SMOOTH",
"249 1197 LINE SMOOTH",
"193 1197 OFFCURVE",
"175 1178 OFFCURVE",
"175 1132 CURVE SMOOTH",
"175 413 LINE SMOOTH",
"175 128 OFFCURVE",
"354 -22 OFFCURVE",
"614 -22 CURVE SMOOTH",
"874 -22 OFFCURVE",
"1053 128 OFFCURVE",
"1053 413 CURVE SMOOTH",
"1053 1132 LINE SMOOTH",
"1053 1178 OFFCURVE",
"1035 1197 OFFCURVE",
"979 1197 CURVE SMOOTH"
);
}
);
width = 1228;
}
);
unicode = 0055;
},
{
glyphname = V;
lastChange = "2015-01-12 05:49:38 +0000";
layers = (
{
layerId = UUID0;
name = Regular;
paths = (
{
closed = 1;
nodes = (
"1014 1207 OFFCURVE",
"989 1195 OFFCURVE",
"973 1151 CURVE SMOOTH",
"612 182 LINE",
"251 1151 LINE SMOOTH",
"235 1195 OFFCURVE",
"210 1207 OFFCURVE",
"157 1189 CURVE SMOOTH",
"103 1171 OFFCURVE",
"89 1147 OFFCURVE",
"106 1103 CURVE SMOOTH",
"505 43 LINE SMOOTH",
"523 -4 OFFCURVE",
"555 -22 OFFCURVE",
"612 -22 CURVE SMOOTH",
"669 -22 OFFCURVE",
"701 -4 OFFCURVE",
"719 43 CURVE SMOOTH",
"1118 1103 LINE SMOOTH",
"1135 1147 OFFCURVE",
"1121 1171 OFFCURVE",
"1067 1189 CURVE SMOOTH"
);
}
);
width = 1228;
}
);
unicode = 0056;
},
{
glyphname = W;
lastChange = "2015-01-12 05:49:38 +0000";
layers = (
{
layerId = UUID0;
name = Regular;
paths = (
{
closed = 1;
nodes = (
"1029 1202 OFFCURVE",
"1009 1186 OFFCURVE",
"1003 1139 CURVE SMOOTH",
"891 258 LINE",
"684 845 LINE SMOOTH",
"675 871 OFFCURVE",
"654 885 OFFCURVE",
"610 885 CURVE SMOOTH",
"566 885 OFFCURVE",
"545 871 OFFCURVE",
"536 845 CURVE SMOOTH",
"329 258 LINE",
"217 1139 LINE SMOOTH",
"211 1186 OFFCURVE",
"191 1202 OFFCURVE",
"135 1196 CURVE SMOOTH",
"79 1189 OFFCURVE",
"61 1169 OFFCURVE",
"68 1122 CURVE SMOOTH",
"217 43 LINE SMOOTH",
"224 -6 OFFCURVE",
"252 -22 OFFCURVE",
"303 -22 CURVE SMOOTH",
"354 -22 OFFCURVE",
"387 -2 OFFCURVE",
"403 43 CURVE SMOOTH",
"610 629 LINE",
"817 43 LINE SMOOTH",
"833 -2 OFFCURVE",
"866 -22 OFFCURVE",
"917 -22 CURVE SMOOTH",
"968 -22 OFFCURVE",
"996 -6 OFFCURVE",
"1003 43 CURVE SMOOTH",
"1152 1122 LINE SMOOTH",
"1159 1169 OFFCURVE",
"1141 1189 OFFCURVE",
"1085 1196 CURVE SMOOTH"
);
}
);
width = 1228;
}
);
unicode = 0057;
},
{
glyphname = X;
lastChange = "2015-01-12 05:49:38 +0000";
layers = (
{
layerId = UUID0;
name = Regular;
paths = (
{
closed = 1;
nodes = (
"972 1210 OFFCURVE",
"943 1211 OFFCURVE",
"916 1172 CURVE SMOOTH",
"576 657 LINE",
"539 623 LINE",
"164 89 LINE SMOOTH",
"137 49 OFFCURVE",
"148 21 OFFCURVE",
"194 0 CURVE SMOOTH",
"245 -23 OFFCURVE",
"274 -25 OFFCURVE",
"301 15 CURVE SMOOTH",
"638 516 LINE",
"677 552 LINE",
"1053 1098 LINE SMOOTH",
"1081 1138 OFFCURVE",
"1069 1166 OFFCURVE",
"1023 1187 CURVE SMOOTH"
);
},
{
closed = 1;
nodes = (
"171 1166 OFFCURVE",
"159 1138 OFFCURVE",
"187 1098 CURVE SMOOTH",
"552 567 LINE",
"584 537 LINE",
"939 15 LINE SMOOTH",
"965 -25 OFFCURVE",
"995 -23 OFFCURVE",
"1046 0 CURVE SMOOTH",
"1092 21 OFFCURVE",
"1104 50 OFFCURVE",
"1076 89 CURVE SMOOTH",
"696 628 LINE",
"667 655 LINE",
"324 1172 LINE SMOOTH",
"297 1211 OFFCURVE",
"268 1210 OFFCURVE",
"217 1187 CURVE SMOOTH"
);
}
);
width = 1228;
}
);
unicode = 0058;
},
{
glyphname = Y;
lastChange = "2015-01-12 05:49:38 +0000";
layers = (
{
layerId = UUID0;
name = Regular;
paths = (
{
closed = 1;
nodes = (
"539 552 LINE",
"539 55 LINE SMOOTH",
"539 9 OFFCURVE",
"557 -10 OFFCURVE",
"613 -10 CURVE SMOOTH",
"615 -10 LINE SMOOTH",
"671 -10 OFFCURVE",
"689 9 OFFCURVE",
"689 55 CURVE SMOOTH",
"689 552 LINE"
);
},
{
closed = 1;
nodes = (
"1005 1210 OFFCURVE",
"977 1205 OFFCURVE",
"955 1172 CURVE SMOOTH",
"563 567 LINE",
"671 460 LINE",
"1088 1096 LINE SMOOTH",
"1114 1136 OFFCURVE",
"1107 1163 OFFCURVE",
"1055 1187 CURVE SMOOTH"
);
},
{
closed = 1;
nodes = (
"121 1163 OFFCURVE",
"114 1136 OFFCURVE",
"140 1096 CURVE SMOOTH",
"548 473 LINE",
"670 560 LINE",
"273 1172 LINE SMOOTH",
"252 1205 OFFCURVE",
"223 1210 OFFCURVE",
"173 1187 CURVE SMOOTH"
);
}
);
width = 1228;
}
);
unicode = 0059;
},
{
glyphname = Z;
lastChange = "2015-01-12 05:49:38 +0000";
layers = (
{
layerId = UUID0;
name = Regular;
paths = (
{
closed = 1;
nodes = (
"827 1187 LINE",
"827 1051 LINE",
"181 111 LINE SMOOTH",
"173 99 OFFCURVE",
"167 86 OFFCURVE",
"167 68 CURVE SMOOTH",
"167 18 OFFCURVE",
"185 0 OFFCURVE",
"230 0 CURVE SMOOTH",
"383 0 LINE",
"382 136 LINE",
"1031 1080 LINE SMOOTH",
"1038 1090 OFFCURVE",
"1041 1103 OFFCURVE",
"1041 1119 CURVE SMOOTH",
"1041 1169 OFFCURVE",
"1023 1187 OFFCURVE",
"978 1187 CURVE SMOOTH"
);
},
{
closed = 1;
nodes = (
"310 144 LINE",
"310 0 LINE",
"996 0 LINE SMOOTH",
"1041 0 OFFCURVE",
"1059 20 OFFCURVE",
"1059 72 CURVE SMOOTH",
"1059 124 OFFCURVE",
"1041 144 OFFCURVE",
"996 144 CURVE SMOOTH"
);
},
{
closed = 1;
nodes = (
"256 1187 LINE SMOOTH",
"211 1187 OFFCURVE",
"193 1167 OFFCURVE",
"193 1115 CURVE SMOOTH",
"193 1063 OFFCURVE",
"211 1043 OFFCURVE",
"256 1043 CURVE SMOOTH",
"891 1043 LINE",
"891 1187 LINE"
);
}
);
width = 1228;
}
);
unicode = 005A;
},
{
color = 8;
glyphname = a;
lastChange = "2015-01-14 20:48:37 +0000";
layers = (
{
layerId = UUID0;
name = Regular;
paths = (
{
closed = 1;
nodes = (
"509 946 OFFCURVE",
"376 914 OFFCURVE",
"264 855 CURVE SMOOTH",
"230 837 OFFCURVE",
"216 807 OFFCURVE",
"238 761 CURVE SMOOTH",
"260 715 OFFCURVE",
"287 703 OFFCURVE",
"324 722 CURVE SMOOTH",
"420 771 OFFCURVE",
"533 801 OFFCURVE",
"634 801 CURVE SMOOTH",
"797 801 OFFCURVE",
"864 741 OFFCURVE",
"864 613 CURVE SMOOTH",
"864 268 LINE",
"874 139 LINE",
"874 55 LINE SMOOTH",
"874 9 OFFCURVE",
"890 -10 OFFCURVE",
"943 -10 CURVE SMOOTH",
"945 -10 LINE SMOOTH",
"998 -10 OFFCURVE",
"1014 9 OFFCURVE",
"1014 55 CURVE",
"1014 613 LINE SMOOTH",
"1014 832 OFFCURVE",
"889 946 OFFCURVE",
"638 946 CURVE SMOOTH"
);
},
{
closed = 1;
nodes = (
"341 579 OFFCURVE",
"159 494 OFFCURVE",
"159 270 CURVE SMOOTH",
"159 84 OFFCURVE",
"299 -22 OFFCURVE",
"499 -22 CURVE SMOOTH",
"649 -22 OFFCURVE",
"780 38 OFFCURVE",
"886 134 CURVE",
"875 296 LINE",
"775 188 OFFCURVE",
"653 119 OFFCURVE",
"505 119 CURVE SMOOTH",
"384 119 OFFCURVE",
"313 176 OFFCURVE",
"313 273 CURVE SMOOTH",
"313 394 OFFCURVE",
"417 438 OFFCURVE",
"561 438 CURVE SMOOTH",
"669 438 OFFCURVE",
"783 421 OFFCURVE",
"878 388 CURVE",
"879 523 LINE",
"781 559 OFFCURVE",
"674 579 OFFCURVE",
"560 579 CURVE SMOOTH"
);
}
);
width = 1228;
}
);
unicode = 0061;
},
{
color = 3;
glyphname = aogonek;
lastChange = "2015-01-14 20:49:06 +0000";
layers = (
{
layerId = UUID0;
name = Regular;
paths = (
{
closed = 1;
nodes = (
"509 946 OFFCURVE",
"376 914 OFFCURVE",
"264 855 CURVE SMOOTH",
"230 837 OFFCURVE",
"216 807 OFFCURVE",
"238 761 CURVE SMOOTH",
"260 715 OFFCURVE",
"287 703 OFFCURVE",
"324 722 CURVE SMOOTH",
"420 771 OFFCURVE",
"533 801 OFFCURVE",
"634 801 CURVE SMOOTH",
"797 801 OFFCURVE",
"864 741 OFFCURVE",
"864 613 CURVE SMOOTH",
"864 528 LINE",
"770 561 OFFCURVE",
"668 579 OFFCURVE",
"560 579 CURVE SMOOTH",
"341 579 OFFCURVE",
"159 494 OFFCURVE",
"159 270 CURVE SMOOTH",
"159 84 OFFCURVE",
"299 -22 OFFCURVE",
"499 -22 CURVE SMOOTH",
"643 -22 OFFCURVE",
"770 34 OFFCURVE",
"874 123 CURVE",
"874 32 LINE",
"748 -69 OFFCURVE",
"671 -169 OFFCURVE",
"671 -281 CURVE SMOOTH",
"671 -397 OFFCURVE",
"747 -472 OFFCURVE",
"871 -472 CURVE SMOOTH",
"933 -472 OFFCURVE",
"989 -462 OFFCURVE",
"1035 -446 CURVE SMOOTH",
"1064 -436 OFFCURVE",
"1073 -415 OFFCURVE",
"1067 -374 CURVE SMOOTH",
"1062 -337 OFFCURVE",
"1043 -322 OFFCURVE",
"1017 -326 CURVE SMOOTH",
"982 -332 OFFCURVE",
"943 -336 OFFCURVE",
"904 -336 CURVE SMOOTH",
"859 -336 OFFCURVE",
"827 -310 OFFCURVE",
"827 -261 CURVE SMOOTH",
"827 -187 OFFCURVE",
"875 -109 OFFCURVE",
"998 4 CURVE SMOOTH",
"1010 15 OFFCURVE",
"1014 30 OFFCURVE",
"1014 55 CURVE SMOOTH",
"1014 613 LINE SMOOTH",
"1014 832 OFFCURVE",
"889 946 OFFCURVE",
"638 946 CURVE SMOOTH"
);
},
{
closed = 1;
nodes = (
"664 438 OFFCURVE",
"772 423 OFFCURVE",
"864 393 CURVE",
"864 284 LINE",
"766 183 OFFCURVE",
"647 119 OFFCURVE",
"505 119 CURVE SMOOTH",
"384 119 OFFCURVE",
"313 176 OFFCURVE",
"313 273 CURVE SMOOTH",
"313 394 OFFCURVE",
"417 438 OFFCURVE",
"561 438 CURVE SMOOTH"
);
}
);
width = 1228;
}
);
unicode = 0105;
},
{
glyphname = ae;
lastChange = "2015-01-12 05:49:38 +0000";
layers = (
{
layerId = UUID0;
name = Regular;
paths = (
{
closed = 1;
nodes = (
"759 946 OFFCURVE",
"682 907 OFFCURVE",
"629 830 CURVE",
"586 903 OFFCURVE",
"515 946 OFFCURVE",
"408 946 CURVE SMOOTH",
"314 946 OFFCURVE",
"224 913 OFFCURVE",
"139 840 CURVE SMOOTH",
"109 814 OFFCURVE",
"108 775 OFFCURVE",
"137 742 CURVE SMOOTH",
"166 710 OFFCURVE",
"202 710 OFFCURVE",
"231 732 CURVE SMOOTH",
"292 779 OFFCURVE",
"347 801 OFFCURVE",
"408 801 CURVE SMOOTH",
"514 801 OFFCURVE",
"539 726 OFFCURVE",
"539 602 CURVE SMOOTH",
"539 580 LINE",
"261 580 OFFCURVE",
"75 468 OFFCURVE",
"75 240 CURVE SMOOTH",
"75 79 OFFCURVE",
"178 -22 OFFCURVE",
"335 -22 CURVE SMOOTH",
"443 -22 OFFCURVE",
"545 33 OFFCURVE",
"609 122 CURVE",
"664 24 OFFCURVE",
"748 -22 OFFCURVE",
"853 -22 CURVE SMOOTH",
"948 -22 OFFCURVE",
"1038 14 OFFCURVE",
"1112 84 CURVE SMOOTH",
"1144 114 OFFCURVE",
"1149 149 OFFCURVE",
"1118 187 CURVE SMOOTH",
"1087 225 OFFCURVE",
"1048 226 OFFCURVE",
"1023 201 CURVE SMOOTH",
"967 147 OFFCURVE",
"917 123 OFFCURVE",
"853 123 CURVE SMOOTH",
"764 123 OFFCURVE",
"693 199 OFFCURVE",
"689 440 CURVE",
"1088 440 LINE SMOOTH",
"1133 440 OFFCURVE",
"1152 457 OFFCURVE",
"1151 502 CURVE SMOOTH",
"1144 769 OFFCURVE",
"1065 946 OFFCURVE",
"853 946 CURVE SMOOTH"
);
},
{
closed = 1;
nodes = (
"539 340 LINE SMOOTH",
"539 211 OFFCURVE",
"452 119 OFFCURVE",
"339 119 CURVE SMOOTH",
"272 119 OFFCURVE",
"228 163 OFFCURVE",
"228 240 CURVE SMOOTH",
"228 371 OFFCURVE",
"322 440 OFFCURVE",
"539 440 CURVE"
);
},
{
closed = 1;
nodes = (
"946 801 OFFCURVE",
"985 717 OFFCURVE",
"994 580 CURVE",
"694 580 LINE",
"710 739 OFFCURVE",
"763 801 OFFCURVE",
"855 801 CURVE SMOOTH"
);
}
);
width = 1228;
}
);
unicode = 00E6;
},
{
glyphname = b;
lastChange = "2015-01-12 05:49:38 +0000";
layers = (
{
layerId = UUID0;
name = Regular;
paths = (
{
closed = 1;
nodes = (
"266 1322 LINE SMOOTH",
"210 1322 OFFCURVE",
"192 1303 OFFCURVE",
"192 1257 CURVE SMOOTH",
"192 55 LINE SMOOTH",
"192 9 OFFCURVE",
"208 -10 OFFCURVE",
"261 -10 CURVE SMOOTH",
"263 -10 LINE SMOOTH",
"316 -10 OFFCURVE",
"332 9 OFFCURVE",
"332 55 CURVE SMOOTH",
"332 148 LINE",
"414 41 OFFCURVE",
"526 -22 OFFCURVE",
"659 -22 CURVE SMOOTH",
"906 -22 OFFCURVE",
"1089 160 OFFCURVE",
"1089 462 CURVE SMOOTH",
"1089 764 OFFCURVE",
"906 946 OFFCURVE",
"659 946 CURVE SMOOTH",
"526 946 OFFCURVE",
"422 883 OFFCURVE",
"342 781 CURVE",
"342 1257 LINE SMOOTH",
"342 1303 OFFCURVE",
"324 1322 OFFCURVE",
"268 1322 CURVE SMOOTH"
);
},
{
closed = 1;
nodes = (
"830 798 OFFCURVE",
"935 658 OFFCURVE",
"935 462 CURVE SMOOTH",
"935 266 OFFCURVE",
"830 126 OFFCURVE",
"649 126 CURVE SMOOTH",
"472 126 OFFCURVE",
"342 250 OFFCURVE",
"342 462 CURVE SMOOTH",
"342 674 OFFCURVE",
"472 798 OFFCURVE",
"649 798 CURVE SMOOTH"
);
}
);
width = 1228;
}
);
unicode = 0062;
},
{
glyphname = c;
lastChange = "2015-01-12 05:49:38 +0000";
layers = (
{
layerId = UUID0;
name = Regular;
paths = (
{
closed = 1;
nodes = (
"337 946 OFFCURVE",
"147 739 OFFCURVE",
"147 462 CURVE SMOOTH",
"147 185 OFFCURVE",
"337 -22 OFFCURVE",
"629 -22 CURVE SMOOTH",
"781 -22 OFFCURVE",
"933 27 OFFCURVE",
"1041 106 CURVE SMOOTH",
"1076 131 OFFCURVE",
"1084 167 OFFCURVE",
"1056 214 CURVE SMOOTH",
"1027 263 OFFCURVE",
"992 258 OFFCURVE",
"965 237 CURVE SMOOTH",
"870 164 OFFCURVE",
"751 126 OFFCURVE",
"629 126 CURVE SMOOTH",
"434 126 OFFCURVE",
"305 267 OFFCURVE",
"305 462 CURVE SMOOTH",
"305 657 OFFCURVE",
"434 798 OFFCURVE",
"629 798 CURVE SMOOTH",
"741 798 OFFCURVE",
"849 769 OFFCURVE",
"948 701 CURVE SMOOTH",
"976 681 OFFCURVE",
"1011 678 OFFCURVE",
"1037 729 CURVE SMOOTH",
"1063 777 OFFCURVE",
"1053 813 OFFCURVE",
"1017 836 CURVE SMOOTH",
"905 909 OFFCURVE",
"771 946 OFFCURVE",
"629 946 CURVE SMOOTH"
);
}
);
width = 1228;
}
);
unicode = 0063;
},
{
glyphname = d;
lastChange = "2015-01-12 05:49:38 +0000";
layers = (
{
layerId = UUID0;
name = Regular;
paths = (
{
closed = 1;
nodes = (
"960 1322 LINE SMOOTH",
"904 1322 OFFCURVE",
"886 1303 OFFCURVE",
"886 1257 CURVE SMOOTH",
"886 781 LINE",
"806 883 OFFCURVE",
"702 946 OFFCURVE",
"569 946 CURVE SMOOTH",
"322 946 OFFCURVE",
"139 764 OFFCURVE",
"139 462 CURVE SMOOTH",
"139 160 OFFCURVE",
"322 -22 OFFCURVE",
"569 -22 CURVE SMOOTH",
"702 -22 OFFCURVE",
"814 41 OFFCURVE",
"896 148 CURVE",
"896 55 LINE SMOOTH",
"896 9 OFFCURVE",
"912 -10 OFFCURVE",
"965 -10 CURVE SMOOTH",
"967 -10 LINE SMOOTH",
"1020 -10 OFFCURVE",
"1036 9 OFFCURVE",
"1036 55 CURVE SMOOTH",
"1036 1257 LINE SMOOTH",
"1036 1303 OFFCURVE",
"1018 1322 OFFCURVE",
"962 1322 CURVE SMOOTH"
);
},
{
closed = 1;
nodes = (
"756 798 OFFCURVE",
"886 674 OFFCURVE",
"886 462 CURVE SMOOTH",
"886 250 OFFCURVE",
"756 126 OFFCURVE",
"579 126 CURVE SMOOTH",
"398 126 OFFCURVE",
"293 266 OFFCURVE",
"293 462 CURVE SMOOTH",
"293 658 OFFCURVE",
"398 798 OFFCURVE",
"579 798 CURVE SMOOTH"
);
}
);
width = 1228;
}
);
unicode = 0064;
},
{
glyphname = eth;
lastChange = "2015-01-12 05:49:38 +0000";
layers = (
{
layerId = UUID0;
name = Regular;
paths = (
{
closed = 1;
nodes = (
"342 886 OFFCURVE",
"140 704 OFFCURVE",
"140 432 CURVE SMOOTH",
"140 160 OFFCURVE",
"342 -22 OFFCURVE",
"614 -22 CURVE SMOOTH",
"886 -22 OFFCURVE",
"1088 160 OFFCURVE",
"1088 432 CURVE",
"902 774 LINE",
"822 836 OFFCURVE",
"726 886 OFFCURVE",
"614 886 CURVE SMOOTH"
);
},
{
closed = 1;
nodes = (
"804 738 OFFCURVE",
"930 617 OFFCURVE",
"930 432 CURVE SMOOTH",
"930 247 OFFCURVE",
"804 126 OFFCURVE",
"614 126 CURVE SMOOTH",
"424 126 OFFCURVE",
"298 247 OFFCURVE",
"298 432 CURVE SMOOTH",
"298 617 OFFCURVE",
"424 738 OFFCURVE",
"614 738 CURVE SMOOTH"
);
},
{
closed = 1;
nodes = (
"413 1343 OFFCURVE",
"383 1331 OFFCURVE",
"360 1287 CURVE SMOOTH",
"337 1243 OFFCURVE",
"342 1215 OFFCURVE",
"383 1195 CURVE SMOOTH",
"703 1038 OFFCURVE",
"953 813 OFFCURVE",
"953 443 CURVE",
"1088 432 LINE",
"1088 884 OFFCURVE",
"806 1149 OFFCURVE",
"453 1323 CURVE SMOOTH"
);
},
{
closed = 1;
nodes = (
"356 1074 LINE SMOOTH",
"314 1058 OFFCURVE",
"303 1034 OFFCURVE",
"321 988 CURVE SMOOTH",
"339 941 OFFCURVE",
"362 930 OFFCURVE",
"404 946 CURVE SMOOTH",
"959 1154 LINE SMOOTH",
"1001 1170 OFFCURVE",
"1012 1194 OFFCURVE",
"994 1240 CURVE SMOOTH",
"976 1287 OFFCURVE",
"953 1298 OFFCURVE",
"911 1282 CURVE SMOOTH"
);
}
);
width = 1228;
}
);
unicode = 00F0;
},
{
glyphname = dcaron;
lastChange = "2015-01-14 20:49:14 +0000";
layers = (
{
components = (
{
name = caron.alt;
transform = "{1, 0, 0, 1, 800, 0}";
}
);
layerId = UUID0;
name = Regular;
paths = (
{
closed = 1;
nodes = (
"858 1322 LINE SMOOTH",
"802 1322 OFFCURVE",
"784 1303 OFFCURVE",
"784 1257 CURVE SMOOTH",
"784 791 LINE",
"716 888 OFFCURVE",
"640 946 OFFCURVE",
"517 946 CURVE SMOOTH",
"290 946 OFFCURVE",
"137 764 OFFCURVE",
"137 462 CURVE SMOOTH",
"137 160 OFFCURVE",
"290 -22 OFFCURVE",
"517 -22 CURVE SMOOTH",
"640 -22 OFFCURVE",
"723 35 OFFCURVE",
"794 138 CURVE",
"794 55 LINE SMOOTH",
"794 9 OFFCURVE",
"810 -10 OFFCURVE",
"863 -10 CURVE SMOOTH",
"865 -10 LINE SMOOTH",
"918 -10 OFFCURVE",
"934 9 OFFCURVE",
"934 55 CURVE SMOOTH",
"934 1257 LINE SMOOTH",
"934 1303 OFFCURVE",
"916 1322 OFFCURVE",
"860 1322 CURVE SMOOTH"
);
},
{
closed = 1;
nodes = (
"684 798 OFFCURVE",
"784 674 OFFCURVE",
"784 462 CURVE SMOOTH",
"784 250 OFFCURVE",
"684 126 OFFCURVE",
"527 126 CURVE SMOOTH",
"366 126 OFFCURVE",
"291 266 OFFCURVE",
"291 462 CURVE SMOOTH",
"291 658 OFFCURVE",
"366 798 OFFCURVE",
"527 798 CURVE SMOOTH"
);
}
);
width = 1228;
}
);
unicode = 010F;
},
{
color = 6;
glyphname = dcroat;
lastChange = "2015-01-14 20:49:16 +0000";
layers = (
{
layerId = UUID0;
name = Regular;
paths = (
{
closed = 1;
nodes = (
"940 1322 LINE SMOOTH",
"884 1322 OFFCURVE",
"866 1303 OFFCURVE",
"866 1257 CURVE SMOOTH",
"866 674 LINE",
"894 702 LINE",
"815 815 OFFCURVE",
"710 886 OFFCURVE",
"569 886 CURVE SMOOTH",
"334 886 OFFCURVE",
"159 716 OFFCURVE",
"159 432 CURVE SMOOTH",
"159 148 OFFCURVE",
"334 -22 OFFCURVE",
"569 -22 CURVE SMOOTH",
"710 -22 OFFCURVE",
"824 53 OFFCURVE",
"904 178 CURVE",
"876 205 LINE",
"876 55 LINE SMOOTH",
"876 9 OFFCURVE",
"892 -10 OFFCURVE",
"945 -10 CURVE SMOOTH",
"947 -10 LINE SMOOTH",
"1000 -10 OFFCURVE",
"1016 9 OFFCURVE",
"1016 55 CURVE SMOOTH",
"1016 1257 LINE SMOOTH",
"1016 1303 OFFCURVE",
"998 1322 OFFCURVE",
"942 1322 CURVE SMOOTH"
);
},
{
closed = 1;
nodes = (
"744 738 OFFCURVE",
"866 626 OFFCURVE",
"866 432 CURVE SMOOTH",
"866 238 OFFCURVE",
"744 126 OFFCURVE",
"579 126 CURVE SMOOTH",
"410 126 OFFCURVE",
"313 254 OFFCURVE",
"313 432 CURVE SMOOTH",
"313 610 OFFCURVE",
"410 738 OFFCURVE",
"579 738 CURVE SMOOTH"
);
},
{
closed = 1;
nodes = (
"613 1150 LINE SMOOTH",
"568 1150 OFFCURVE",
"550 1130 OFFCURVE",
"550 1078 CURVE SMOOTH",
"550 1026 OFFCURVE",
"568 1006 OFFCURVE",
"613 1006 CURVE SMOOTH",
"1155 1006 LINE SMOOTH",
"1200 1006 OFFCURVE",
"1218 1026 OFFCURVE",
"1218 1078 CURVE SMOOTH",
"1218 1130 OFFCURVE",
"1200 1150 OFFCURVE",
"1155 1150 CURVE SMOOTH"
);
}
);
width = 1228;
}
);
unicode = 0111;
},
{
glyphname = e;
lastChange = "2015-01-12 05:49:38 +0000";
layers = (
{
layerId = UUID0;
name = Regular;
paths = (
{
closed = 1;
nodes = (
"344 946 OFFCURVE",
"148 753 OFFCURVE",
"148 462 CURVE SMOOTH",
"148 161 OFFCURVE",
"311 -22 OFFCURVE",
"603 -22 CURVE SMOOTH",
"758 -22 OFFCURVE",
"912 15 OFFCURVE",
"1016 65 CURVE SMOOTH",
"1057 85 OFFCURVE",
"1070 116 OFFCURVE",
"1053 162 CURVE SMOOTH",
"1036 209 OFFCURVE",
"1004 231 OFFCURVE",
"963 209 CURVE SMOOTH",
"872 156 OFFCURVE",
"737 123 OFFCURVE",
"603 123 CURVE SMOOTH",
"418 123 OFFCURVE",
"312 225 OFFCURVE",
"302 425 CURVE",
"1026 425 LINE SMOOTH",
"1071 425 OFFCURVE",
"1092 442 OFFCURVE",
"1089 487 CURVE SMOOTH",
"1074 753 OFFCURVE",
"920 946 OFFCURVE",
"623 946 CURVE SMOOTH"
);
},
{
closed = 1;
nodes = (
"799 801 OFFCURVE",
"899 715 OFFCURVE",
"927 565 CURVE",
"312 565 LINE",
"345 712 OFFCURVE",
"457 801 OFFCURVE",
"623 801 CURVE SMOOTH"
);
}
);
width = 1228;
}
);
unicode = 0065;
},
{
color = 3;
glyphname = eogonek;
lastChange = "2015-01-12 05:49:38 +0000";
layers = (
{
background = {
components = (
{
name = e;
transform = "{1, 0, 0, 1, 0, 0}";
},
{
name = ogonek;
transform = "{1, 0, 0, 1, 200, 0}";
}
);
};
layerId = UUID0;
name = Regular;
paths = (
{
closed = 1;
nodes = (
"344 946 OFFCURVE",
"148 753 OFFCURVE",
"148 462 CURVE SMOOTH",
"148 161 OFFCURVE",
"311 -22 OFFCURVE",
"603 -22 CURVE SMOOTH",
"658 -22 OFFCURVE",
"713 -17 OFFCURVE",
"765 -9 CURVE",
"671 -94 OFFCURVE",
"611 -182 OFFCURVE",
"611 -281 CURVE SMOOTH",
"611 -397 OFFCURVE",
"687 -472 OFFCURVE",
"811 -472 CURVE SMOOTH",
"873 -472 OFFCURVE",
"929 -462 OFFCURVE",
"975 -446 CURVE SMOOTH",
"1004 -436 OFFCURVE",
"1013 -415 OFFCURVE",
"1007 -374 CURVE SMOOTH",
"1002 -337 OFFCURVE",
"983 -322 OFFCURVE",
"957 -326 CURVE SMOOTH",
"922 -332 OFFCURVE",
"883 -336 OFFCURVE",
"844 -336 CURVE SMOOTH",
"799 -336 OFFCURVE",
"767 -310 OFFCURVE",
"767 -261 CURVE SMOOTH",
"767 -193 OFFCURVE",
"809 -116 OFFCURVE",
"928 -5 CURVE SMOOTH",
"981 44 OFFCURVE",
"1004 59 OFFCURVE",
"1016 65 CURVE SMOOTH",
"1060 87 OFFCURVE",
"1069 122 OFFCURVE",
"1051 165 CURVE SMOOTH",
"1034 207 OFFCURVE",
"1005 233 OFFCURVE",
"963 209 CURVE SMOOTH",
"872 156 OFFCURVE",
"737 123 OFFCURVE",
"603 123 CURVE SMOOTH",
"418 123 OFFCURVE",
"312 225 OFFCURVE",
"302 425 CURVE",
"1026 425 LINE SMOOTH",
"1071 425 OFFCURVE",
"1092 442 OFFCURVE",
"1089 487 CURVE SMOOTH",
"1074 753 OFFCURVE",
"920 946 OFFCURVE",
"623 946 CURVE SMOOTH"
);
},
{
closed = 1;
nodes = (
"799 801 OFFCURVE",
"899 715 OFFCURVE",
"927 565 CURVE",
"312 565 LINE",
"345 712 OFFCURVE",
"457 801 OFFCURVE",
"623 801 CURVE SMOOTH"
);
}
);
width = 1228;
}
);
unicode = 0119;
},
{
glyphname = f;
lastChange = "2015-01-12 05:49:38 +0000";
layers = (
{
layerId = UUID0;
name = Regular;
paths = (
{
closed = 1;
nodes = (
"576 1317 OFFCURVE",
"448 1186 OFFCURVE",
"448 967 CURVE SMOOTH",
"448 55 LINE SMOOTH",
"448 9 OFFCURVE",
"466 -10 OFFCURVE",
"522 -10 CURVE SMOOTH",
"524 -10 LINE SMOOTH",
"580 -10 OFFCURVE",
"598 9 OFFCURVE",
"598 55 CURVE SMOOTH",
"598 954 LINE SMOOTH",
"598 1091 OFFCURVE",
"659 1171 OFFCURVE",
"800 1171 CURVE SMOOTH",
"879 1171 OFFCURVE",
"959 1152 OFFCURVE",
"1037 1122 CURVE SMOOTH",
"1073 1108 OFFCURVE",
"1100 1126 OFFCURVE",
"1111 1173 CURVE SMOOTH",
"1122 1219 OFFCURVE",
"1108 1250 OFFCURVE",
"1066 1266 CURVE SMOOTH",
"986 1297 OFFCURVE",
"894 1317 OFFCURVE",
"800 1317 CURVE SMOOTH"
);
},
{
closed = 1;
nodes = (
"250 844 LINE SMOOTH",
"205 844 OFFCURVE",
"187 824 OFFCURVE",
"187 772 CURVE SMOOTH",
"187 720 OFFCURVE",
"205 700 OFFCURVE",
"250 700 CURVE SMOOTH",
"944 700 LINE SMOOTH",
"989 700 OFFCURVE",
"1007 720 OFFCURVE",
"1007 772 CURVE SMOOTH",
"1007 824 OFFCURVE",
"989 844 OFFCURVE",
"944 844 CURVE SMOOTH"
);
}
);
width = 1228;
}
);
unicode = 0066;
},
{
color = 8;
glyphname = g;
lastChange = "2015-01-14 20:50:12 +0000";
layers = (
{
layerId = UUID0;
name = Regular;
paths = (
{
closed = 1;
nodes = (
"322 946 OFFCURVE",
"139 774 OFFCURVE",
"139 487 CURVE SMOOTH",
"139 200 OFFCURVE",
"322 28 OFFCURVE",
"569 28 CURVE SMOOTH",
"702 28 OFFCURVE",
"807 85 OFFCURVE",
"886 184 CURVE",
"886 -17 LINE SMOOTH",
"886 -164 OFFCURVE",
"797 -262 OFFCURVE",
"608 -262 CURVE SMOOTH",
"500 -262 OFFCURVE",
"380 -238 OFFCURVE",
"279 -202 CURVE SMOOTH",
"245 -190 OFFCURVE",
"217 -203 OFFCURVE",
"200 -253 CURVE SMOOTH",
"183 -304 OFFCURVE",
"195 -333 OFFCURVE",
"231 -346 CURVE SMOOTH",
"346 -388 OFFCURVE",
"482 -410 OFFCURVE",
"608 -410 CURVE SMOOTH",
"879 -410 OFFCURVE",
"1036 -269 OFFCURVE",
"1036 -30 CURVE SMOOTH",
"1036 869 LINE SMOOTH",
"1036 915 OFFCURVE",
"1020 934 OFFCURVE",
"967 934 CURVE SMOOTH",
"965 934 LINE SMOOTH",
"912 934 OFFCURVE",
"896 915 OFFCURVE",
"896 869 CURVE SMOOTH",
"896 776 LINE",
"814 883 OFFCURVE",
"702 946 OFFCURVE",
"569 946 CURVE SMOOTH"
);
},
{
closed = 1;
nodes = (
"756 798 OFFCURVE",
"886 684 OFFCURVE",
"886 487 CURVE SMOOTH",
"886 290 OFFCURVE",
"756 176 OFFCURVE",
"579 176 CURVE SMOOTH",
"398 176 OFFCURVE",
"293 306 OFFCURVE",
"293 487 CURVE SMOOTH",
"293 668 OFFCURVE",
"398 798 OFFCURVE",
"579 798 CURVE SMOOTH"
);
}
);
width = 1228;
}
);
unicode = 0067;
},
{
glyphname = h;
lastChange = "2015-01-12 05:49:38 +0000";
layers = (
{
layerId = UUID0;
name = Regular;
paths = (
{
closed = 1;
nodes = (
"276 1322 LINE SMOOTH",
"220 1322 OFFCURVE",
"202 1303 OFFCURVE",
"202 1257 CURVE SMOOTH",
"202 55 LINE SMOOTH",
"202 9 OFFCURVE",
"220 -10 OFFCURVE",
"276 -10 CURVE SMOOTH",
"278 -10 LINE SMOOTH",
"334 -10 OFFCURVE",
"352 9 OFFCURVE",
"352 55 CURVE SMOOTH",
"352 392 LINE SMOOTH",
"352 620 OFFCURVE",
"541 798 OFFCURVE",
"712 798 CURVE SMOOTH",
"841 798 OFFCURVE",
"894 720 OFFCURVE",
"894 605 CURVE SMOOTH",
"894 55 LINE SMOOTH",
"894 9 OFFCURVE",
"912 -10 OFFCURVE",
"968 -10 CURVE SMOOTH",
"970 -10 LINE SMOOTH",
"1026 -10 OFFCURVE",
"1044 9 OFFCURVE",
"1044 55 CURVE SMOOTH",
"1044 620 LINE SMOOTH",
"1044 820 OFFCURVE",
"931 946 OFFCURVE",
"727 946 CURVE SMOOTH",
"592 946 OFFCURVE",
"444 855 OFFCURVE",
"352 720 CURVE",
"352 1257 LINE SMOOTH",
"352 1303 OFFCURVE",
"334 1322 OFFCURVE",
"278 1322 CURVE SMOOTH"
);
}
);
width = 1228;
}
);
unicode = 0068;
},
{
color = 6;
glyphname = hbar;
lastChange = "2015-01-14 20:49:38 +0000";
layers = (
{
layerId = UUID0;
name = Regular;
paths = (
{
closed = 1;
nodes = (
"296 1322 LINE SMOOTH",
"240 1322 OFFCURVE",
"222 1303 OFFCURVE",
"222 1257 CURVE SMOOTH",
"222 55 LINE SMOOTH",
"222 9 OFFCURVE",
"240 -10 OFFCURVE",
"296 -10 CURVE SMOOTH",
"298 -10 LINE SMOOTH",
"354 -10 OFFCURVE",
"372 9 OFFCURVE",
"372 55 CURVE SMOOTH",
"372 352 LINE SMOOTH",
"372 568 OFFCURVE",
"546 738 OFFCURVE",
"702 738 CURVE SMOOTH",
"824 738 OFFCURVE",
"874 660 OFFCURVE",
"874 545 CURVE SMOOTH",
"874 55 LINE SMOOTH",
"874 9 OFFCURVE",
"892 -10 OFFCURVE",
"948 -10 CURVE SMOOTH",
"950 -10 LINE SMOOTH",
"1006 -10 OFFCURVE",
"1024 9 OFFCURVE",
"1024 55 CURVE SMOOTH",
"1024 560 LINE SMOOTH",
"1024 760 OFFCURVE",
"915 886 OFFCURVE",
"717 886 CURVE SMOOTH",
"578 886 OFFCURVE",
"431 787 OFFCURVE",
"346 639 CURVE",
"372 613 LINE",
"372 1257 LINE SMOOTH",
"372 1303 OFFCURVE",
"354 1322 OFFCURVE",
"298 1322 CURVE SMOOTH"
);
},
{
closed = 1;
nodes = (
"83 1150 LINE SMOOTH",
"38 1150 OFFCURVE",
"20 1130 OFFCURVE",
"20 1078 CURVE SMOOTH",
"20 1026 OFFCURVE",
"38 1006 OFFCURVE",
"83 1006 CURVE SMOOTH",
"625 1006 LINE SMOOTH",
"670 1006 OFFCURVE",
"688 1026 OFFCURVE",
"688 1078 CURVE SMOOTH",
"688 1130 OFFCURVE",
"670 1150 OFFCURVE",
"625 1150 CURVE SMOOTH"
);
}
);
width = 1228;
}
);
unicode = 0127;
},
{
glyphname = dotlessi;
lastChange = "2015-01-12 05:49:38 +0000";
layers = (
{
layerId = UUID0;
name = Regular;
paths = (
{
closed = 1;
nodes = (
"310 924 LINE SMOOTH",
"265 924 OFFCURVE",
"247 904 OFFCURVE",
"247 852 CURVE SMOOTH",
"247 800 OFFCURVE",
"265 780 OFFCURVE",
"310 780 CURVE SMOOTH",
"563 780 LINE",
"563 144 LINE",
"250 144 LINE SMOOTH",
"205 144 OFFCURVE",
"187 124 OFFCURVE",
"187 72 CURVE SMOOTH",
"187 20 OFFCURVE",
"205 0 OFFCURVE",
"250 0 CURVE SMOOTH",
"1034 0 LINE SMOOTH",
"1079 0 OFFCURVE",
"1097 20 OFFCURVE",
"1097 72 CURVE SMOOTH",
"1097 124 OFFCURVE",
"1079 144 OFFCURVE",
"1034 144 CURVE SMOOTH",
"713 144 LINE",
"713 856 LINE SMOOTH",
"713 906 OFFCURVE",
"695 924 OFFCURVE",
"650 924 CURVE SMOOTH"
);
}
);
width = 1228;
}
);
unicode = 0131;
},
{
glyphname = ij;
lastChange = "2015-01-14 20:49:45 +0000";
layers = (
{
components = (
{
name = dotaccent;
transform = "{1, 0, 0, 1, -297, 0}";
},
{
name = dotaccent;
transform = "{1, 0, 0, 1, 297, 0}";
}
);
layerId = UUID0;
name = Regular;
paths = (
{
closed = 1;
nodes = (
"910 934 LINE SMOOTH",
"854 934 OFFCURVE",
"836 915 OFFCURVE",
"836 869 CURVE SMOOTH",
"836 -105 LINE SMOOTH",
"836 -218 OFFCURVE",
"796 -262 OFFCURVE",
"714 -262 CURVE SMOOTH",
"654 -262 OFFCURVE",
"590 -246 OFFCURVE",
"539 -221 CURVE SMOOTH",
"511 -207 OFFCURVE",
"477 -209 OFFCURVE",
"454 -263 CURVE SMOOTH",
"433 -313 OFFCURVE",
"444 -341 OFFCURVE",
"482 -360 CURVE SMOOTH",
"549 -393 OFFCURVE",
"644 -410 OFFCURVE",
"713 -410 CURVE SMOOTH",
"889 -410 OFFCURVE",
"986 -314 OFFCURVE",
"986 -135 CURVE SMOOTH",
"986 869 LINE SMOOTH",
"986 915 OFFCURVE",
"968 934 OFFCURVE",
"912 934 CURVE SMOOTH"
);
},
{
closed = 1;
nodes = (
"316 934 LINE SMOOTH",
"260 934 OFFCURVE",
"242 915 OFFCURVE",
"242 869 CURVE SMOOTH",
"242 55 LINE SMOOTH",
"242 9 OFFCURVE",
"260 -10 OFFCURVE",
"316 -10 CURVE SMOOTH",
"318 -10 LINE SMOOTH",
"374 -10 OFFCURVE",
"392 9 OFFCURVE",
"392 55 CURVE SMOOTH",
"392 869 LINE SMOOTH",
"392 915 OFFCURVE",
"374 934 OFFCURVE",
"318 934 CURVE SMOOTH"
);
}
);
width = 1228;
}
);
unicode = 0133;
},
{
glyphname = dotlessj;
lastChange = "2015-01-12 05:49:38 +0000";
layers = (
{
layerId = UUID0;
name = Regular;
paths = (
{
closed = 1;
nodes = (
"753 924 LINE",
"753 -44 LINE SMOOTH",
"753 -191 OFFCURVE",
"710 -264 OFFCURVE",
"576 -264 CURVE SMOOTH",
"483 -264 OFFCURVE",
"379 -222 OFFCURVE",
"292 -165 CURVE SMOOTH",
"262 -145 OFFCURVE",
"228 -153 OFFCURVE",
"203 -201 CURVE SMOOTH",
"178 -249 OFFCURVE",
"190 -277 OFFCURVE",
"223 -298 CURVE SMOOTH",
"323 -361 OFFCURVE",
"461 -410 OFFCURVE",
"576 -410 CURVE SMOOTH",
"808 -410 OFFCURVE",
"903 -286 OFFCURVE",
"903 -57 CURVE SMOOTH",
"903 856 LINE SMOOTH",
"903 906 OFFCURVE",
"885 924 OFFCURVE",
"840 924 CURVE"
);
},
{
closed = 1;
nodes = (
"330 924 LINE SMOOTH",
"285 924 OFFCURVE",
"267 904 OFFCURVE",
"267 852 CURVE SMOOTH",
"267 800 OFFCURVE",
"285 780 OFFCURVE",
"330 780 CURVE SMOOTH",
"794 780 LINE",
"794 924 LINE"
);
}
);
width = 1228;
}
);
unicode = 0237;
},
{
glyphname = k;
lastChange = "2015-01-12 05:49:38 +0000";
layers = (
{
layerId = UUID0;
name = Regular;
paths = (
{
closed = 1;
nodes = (
"972 949 OFFCURVE",
"936 946 OFFCURVE",
"911 924 CURVE SMOOTH",
"287 368 LINE",
"370 248 LINE",
"1035 833 LINE SMOOTH",
"1070 863 OFFCURVE",
"1061 896 OFFCURVE",
"1014 924 CURVE SMOOTH"
);
},
{
closed = 1;
nodes = (
"306 1322 LINE SMOOTH",
"250 1322 OFFCURVE",
"232 1303 OFFCURVE",
"232 1257 CURVE SMOOTH",
"232 55 LINE SMOOTH",
"232 9 OFFCURVE",
"250 -10 OFFCURVE",
"306 -10 CURVE SMOOTH",
"308 -10 LINE SMOOTH",
"364 -10 OFFCURVE",
"382 9 OFFCURVE",
"382 55 CURVE SMOOTH",
"382 1257 LINE SMOOTH",
"382 1303 OFFCURVE",
"364 1322 OFFCURVE",
"308 1322 CURVE SMOOTH"
);
},
{
closed = 1;
nodes = (
"491 496 LINE",
"938 3 LINE SMOOTH",
"962 -24 OFFCURVE",
"991 -22 OFFCURVE",
"1038 5 CURVE SMOOTH",
"1087 33 OFFCURVE",
"1091 61 OFFCURVE",
"1060 95 CURVE SMOOTH",
"613 584 LINE"
);
}
);
width = 1228;
}
);
unicode = 006B;
},
{
glyphname = l;
lastChange = "2015-01-12 05:49:38 +0000";
layers = (
{
layerId = UUID0;
name = Regular;
paths = (
{
closed = 1;
nodes = (
"553 1312 LINE",
"553 106 LINE",
"703 106 LINE",
"703 1244 LINE SMOOTH",
"703 1294 OFFCURVE",
"685 1312 OFFCURVE",
"640 1312 CURVE SMOOTH"
);
},
{
closed = 1;
nodes = (
"240 144 LINE SMOOTH",
"195 144 OFFCURVE",
"177 124 OFFCURVE",
"177 72 CURVE SMOOTH",
"177 20 OFFCURVE",
"195 0 OFFCURVE",
"240 0 CURVE SMOOTH",
"1024 0 LINE SMOOTH",
"1069 0 OFFCURVE",
"1087 20 OFFCURVE",
"1087 72 CURVE SMOOTH",
"1087 124 OFFCURVE",
"1069 144 OFFCURVE",
"1024 144 CURVE SMOOTH"
);
},
{
closed = 1;
nodes = (
"280 1312 LINE SMOOTH",
"235 1312 OFFCURVE",
"217 1292 OFFCURVE",
"217 1240 CURVE SMOOTH",
"217 1188 OFFCURVE",
"235 1168 OFFCURVE",
"280 1168 CURVE SMOOTH",
"614 1168 LINE",
"614 1312 LINE"
);
}
);
width = 1228;
}
);
unicode = 006C;
},
{
color = 6;
glyphname = lslash;
lastChange = "2015-01-12 05:49:38 +0000";
layers = (
{
components = (
{
name = l;
transform = "{1, 0, 0, 1, 0, 0}";
}
);
layerId = UUID0;
name = Regular;
paths = (
{
closed = 1;
nodes = (
"301 550 LINE SMOOTH",
"264 525 OFFCURVE",
"259 500 OFFCURVE",
"287 459 CURVE SMOOTH",
"315 417 OFFCURVE",
"341 413 OFFCURVE",
"378 438 CURVE SMOOTH",
"947 825 LINE SMOOTH",
"984 850 OFFCURVE",
"989 875 OFFCURVE",
"961 916 CURVE SMOOTH",
"933 958 OFFCURVE",
"907 962 OFFCURVE",
"870 937 CURVE SMOOTH"
);
}
);
width = 1228;
}
);
unicode = 0142;
},
{
glyphname = m;
lastChange = "2015-01-12 05:49:38 +0000";
layers = (
{
layerId = UUID0;
name = Regular;
paths = (
{
closed = 1;
nodes = (
"810 946 OFFCURVE",
"732 887 OFFCURVE",
"672 765 CURVE",
"647 888 OFFCURVE",
"571 946 OFFCURVE",
"484 946 CURVE SMOOTH",
"393 946 OFFCURVE",
"309 885 OFFCURVE",
"251 757 CURVE",
"251 869 LINE SMOOTH",
"251 915 OFFCURVE",
"237 934 OFFCURVE",
"187 934 CURVE SMOOTH",
"185 934 LINE SMOOTH",
"135 934 OFFCURVE",
"121 915 OFFCURVE",
"121 869 CURVE SMOOTH",
"121 55 LINE SMOOTH",
"121 9 OFFCURVE",
"139 -10 OFFCURVE",
"195 -10 CURVE SMOOTH",
"197 -10 LINE SMOOTH",
"253 -10 OFFCURVE",
"271 9 OFFCURVE",
"271 55 CURVE SMOOTH",
"271 457 LINE SMOOTH",
"271 659 OFFCURVE",
"350 798 OFFCURVE",
"445 798 CURVE SMOOTH",
"513 798 OFFCURVE",
"540 749 OFFCURVE",
"540 660 CURVE SMOOTH",
"540 55 LINE SMOOTH",
"540 9 OFFCURVE",
"558 -10 OFFCURVE",
"614 -10 CURVE SMOOTH",
"616 -10 LINE SMOOTH",
"672 -10 OFFCURVE",
"690 9 OFFCURVE",
"690 55 CURVE SMOOTH",
"690 457 LINE SMOOTH",
"690 659 OFFCURVE",
"769 798 OFFCURVE",
"864 798 CURVE SMOOTH",
"932 798 OFFCURVE",
"959 749 OFFCURVE",
"959 660 CURVE SMOOTH",
"959 55 LINE SMOOTH",
"959 9 OFFCURVE",
"977 -10 OFFCURVE",
"1033 -10 CURVE SMOOTH",
"1035 -10 LINE SMOOTH",
"1091 -10 OFFCURVE",
"1109 9 OFFCURVE",
"1109 55 CURVE SMOOTH",
"1109 678 LINE SMOOTH",
"1109 861 OFFCURVE",
"1016 946 OFFCURVE",
"902 946 CURVE SMOOTH"
);
}
);
width = 1228;
}
);
unicode = 006D;
},
{
glyphname = n;
lastChange = "2015-01-12 05:49:38 +0000";
layers = (
{
layerId = UUID0;
name = Regular;
paths = (
{
closed = 1;
nodes = (
"581 946 OFFCURVE",
"430 842 OFFCURVE",
"342 706 CURVE",
"342 869 LINE SMOOTH",
"342 915 OFFCURVE",
"326 934 OFFCURVE",
"273 934 CURVE SMOOTH",
"271 934 LINE SMOOTH",
"218 934 OFFCURVE",
"202 915 OFFCURVE",
"202 869 CURVE SMOOTH",
"202 55 LINE SMOOTH",
"202 9 OFFCURVE",
"220 -10 OFFCURVE",
"276 -10 CURVE SMOOTH",
"278 -10 LINE SMOOTH",
"334 -10 OFFCURVE",
"352 9 OFFCURVE",
"352 55 CURVE SMOOTH",
"352 392 LINE SMOOTH",
"352 620 OFFCURVE",
"541 798 OFFCURVE",
"712 798 CURVE SMOOTH",
"841 798 OFFCURVE",
"894 720 OFFCURVE",
"894 605 CURVE SMOOTH",
"894 55 LINE SMOOTH",
"894 9 OFFCURVE",
"912 -10 OFFCURVE",
"968 -10 CURVE SMOOTH",
"970 -10 LINE SMOOTH",
"1026 -10 OFFCURVE",
"1044 9 OFFCURVE",
"1044 55 CURVE SMOOTH",
"1044 620 LINE SMOOTH",
"1044 820 OFFCURVE",
"931 946 OFFCURVE",
"727 946 CURVE SMOOTH"
);
}
);
width = 1228;
}
);
unicode = 006E;
},
{
color = 3;
glyphname = eng;
lastChange = "2015-01-12 05:49:38 +0000";
layers = (
{
background = {
components = (
{
name = n;
transform = "{1, 0, 0, 1, 0, 0}";
}
);
paths = (
{
closed = 1;
nodes = (
"894 198 LINE",
"894 -107 LINE SMOOTH",
"894 -220 OFFCURVE",
"854 -264 OFFCURVE",
"772 -264 CURVE SMOOTH",
"712 -264 OFFCURVE",
"648 -246 OFFCURVE",
"595 -224 CURVE SMOOTH",
"566 -212 OFFCURVE",
"535 -212 OFFCURVE",
"512 -265 CURVE SMOOTH",
"490 -315 OFFCURVE",
"502 -343 OFFCURVE",
"540 -360 CURVE SMOOTH",
"608 -390 OFFCURVE",
"691 -410 OFFCURVE",
"771 -410 CURVE SMOOTH",
"947 -410 OFFCURVE",
"1044 -314 OFFCURVE",
"1044 -135 CURVE SMOOTH",
"1044 198 LINE"
);
}
);
};
layerId = UUID0;
name = Regular;
paths = (
{
closed = 1;
nodes = (
"581 946 OFFCURVE",
"430 842 OFFCURVE",
"342 706 CURVE",
"342 869 LINE SMOOTH",
"342 915 OFFCURVE",
"326 934 OFFCURVE",
"273 934 CURVE SMOOTH",
"271 934 LINE SMOOTH",
"218 934 OFFCURVE",
"202 915 OFFCURVE",
"202 869 CURVE SMOOTH",
"202 55 LINE SMOOTH",
"202 9 OFFCURVE",
"220 -10 OFFCURVE",
"276 -10 CURVE SMOOTH",
"278 -10 LINE SMOOTH",
"334 -10 OFFCURVE",
"352 9 OFFCURVE",
"352 55 CURVE SMOOTH",
"352 392 LINE SMOOTH",
"352 620 OFFCURVE",
"541 798 OFFCURVE",
"712 798 CURVE SMOOTH",
"841 798 OFFCURVE",
"894 720 OFFCURVE",
"894 605 CURVE SMOOTH",
"894 -107 LINE SMOOTH",
"894 -220 OFFCURVE",
"854 -264 OFFCURVE",
"772 -264 CURVE SMOOTH",
"712 -264 OFFCURVE",
"648 -246 OFFCURVE",
"595 -224 CURVE SMOOTH",
"566 -212 OFFCURVE",
"535 -212 OFFCURVE",
"512 -265 CURVE SMOOTH",
"490 -315 OFFCURVE",
"502 -343 OFFCURVE",
"540 -360 CURVE SMOOTH",
"608 -390 OFFCURVE",
"691 -410 OFFCURVE",
"771 -410 CURVE SMOOTH",
"947 -410 OFFCURVE",
"1044 -314 OFFCURVE",
"1044 -135 CURVE SMOOTH",
"1044 620 LINE SMOOTH",
"1044 820 OFFCURVE",
"931 946 OFFCURVE",
"727 946 CURVE SMOOTH"
);
}
);
width = 1228;
}
);
unicode = 014B;
},
{
glyphname = o;
lastChange = "2015-01-14 20:32:16 +0000";
layers = (
{
layerId = UUID0;
name = Regular;
paths = (
{
closed = 1;
nodes = (
"338 946 OFFCURVE",
"134 744 OFFCURVE",
"134 462 CURVE SMOOTH",
"134 180 OFFCURVE",
"338 -22 OFFCURVE",
"614 -22 CURVE SMOOTH",
"890 -22 OFFCURVE",
"1094 180 OFFCURVE",
"1094 462 CURVE SMOOTH",
"1094 744 OFFCURVE",
"890 946 OFFCURVE",
"614 946 CURVE SMOOTH"
);
},
{
closed = 1;
nodes = (
"810 798 OFFCURVE",
"940 659 OFFCURVE",
"940 462 CURVE SMOOTH",
"940 265 OFFCURVE",
"810 126 OFFCURVE",
"614 126 CURVE SMOOTH",
"418 126 OFFCURVE",
"288 265 OFFCURVE",
"288 462 CURVE SMOOTH",
"288 659 OFFCURVE",
"418 798 OFFCURVE",
"614 798 CURVE SMOOTH"
);
}
);
width = 1228;
}
);
unicode = 006F;
},
{
color = 6;
glyphname = oslash;
lastChange = "2015-01-12 05:49:38 +0000";
layers = (
{
background = {
paths = (
{
closed = 1;
nodes = (
"138 101 LINE SMOOTH",
"105 69 OFFCURVE",
"106 41 OFFCURVE",
"140 6 CURVE SMOOTH",
"174 -29 OFFCURVE",
"202 -31 OFFCURVE",
"235 1 CURVE SMOOTH",
"1089 822 LINE SMOOTH",
"1123 854 OFFCURVE",
"1122 883 OFFCURVE",
"1088 918 CURVE SMOOTH",
"1054 953 OFFCURVE",
"1025 955 OFFCURVE",
"992 923 CURVE SMOOTH"
);
}
);
};
components = (
{
name = o;
transform = "{1, 0, 0, 1, 0, 0}";
}
);
layerId = UUID0;
name = Regular;
paths = (
{
closed = 1;
nodes = (
"108 71 LINE SMOOTH",
"75 39 OFFCURVE",
"76 11 OFFCURVE",
"110 -24 CURVE SMOOTH",
"144 -59 OFFCURVE",
"172 -61 OFFCURVE",
"205 -29 CURVE SMOOTH",
"1119 852 LINE SMOOTH",
"1153 884 OFFCURVE",
"1152 913 OFFCURVE",
"1118 948 CURVE SMOOTH",
"1084 983 OFFCURVE",
"1055 985 OFFCURVE",
"1022 953 CURVE SMOOTH"
);
}
);
width = 1228;
}
);
unicode = 00F8;
},
{
glyphname = oe;
lastChange = "2015-01-12 05:49:38 +0000";
layers = (
{
layerId = UUID0;
name = Regular;
paths = (
{
closed = 1;
nodes = (
"749 946 OFFCURVE",
"667 899 OFFCURVE",
"613 806 CURVE",
"564 897 OFFCURVE",
"488 946 OFFCURVE",
"382 946 CURVE SMOOTH",
"175 946 OFFCURVE",
"70 769 OFFCURVE",
"70 462 CURVE SMOOTH",
"70 155 OFFCURVE",
"175 -22 OFFCURVE",
"382 -22 CURVE SMOOTH",
"487 -22 OFFCURVE",
"564 26 OFFCURVE",
"613 116 CURVE",
"667 23 OFFCURVE",
"750 -22 OFFCURVE",
"853 -22 CURVE SMOOTH",
"948 -22 OFFCURVE",
"1038 14 OFFCURVE",
"1112 84 CURVE SMOOTH",
"1144 114 OFFCURVE",
"1149 149 OFFCURVE",
"1118 187 CURVE SMOOTH",
"1087 225 OFFCURVE",
"1048 226 OFFCURVE",
"1023 201 CURVE",
"967 147 OFFCURVE",
"917 123 OFFCURVE",
"853 123 CURVE SMOOTH",
"764 123 OFFCURVE",
"693 199 OFFCURVE",
"689 440 CURVE",
"1088 440 LINE SMOOTH",
"1133 440 OFFCURVE",
"1152 457 OFFCURVE",
"1151 502 CURVE SMOOTH",
"1144 769 OFFCURVE",
"1065 946 OFFCURVE",
"853 946 CURVE SMOOTH"
);
},
{
closed = 1;
nodes = (
"487 798 OFFCURVE",
"536 697 OFFCURVE",
"536 462 CURVE SMOOTH",
"536 227 OFFCURVE",
"487 126 OFFCURVE",
"382 126 CURVE SMOOTH",
"277 126 OFFCURVE",
"228 227 OFFCURVE",
"228 462 CURVE SMOOTH",
"228 697 OFFCURVE",
"277 798 OFFCURVE",
"382 798 CURVE SMOOTH"
);
},
{
closed = 1;
nodes = (
"946 801 OFFCURVE",
"985 717 OFFCURVE",
"994 580 CURVE",
"694 580 LINE",
"710 739 OFFCURVE",
"763 801 OFFCURVE",
"855 801 CURVE SMOOTH"
);
}
);
width = 1228;
}
);
unicode = 0153;
},
{
glyphname = p;
lastChange = "2015-01-14 20:50:38 +0000";
layers = (
{
layerId = UUID0;
name = Regular;
paths = (
{
closed = 1;
nodes = (
"526 946 OFFCURVE",
"414 883 OFFCURVE",
"332 776 CURVE",
"332 869 LINE SMOOTH",
"332 915 OFFCURVE",
"316 934 OFFCURVE",
"263 934 CURVE SMOOTH",
"261 934 LINE SMOOTH",
"208 934 OFFCURVE",
"192 915 OFFCURVE",
"192 869 CURVE SMOOTH",
"192 -333 LINE SMOOTH",
"192 -379 OFFCURVE",
"210 -398 OFFCURVE",
"266 -398 CURVE SMOOTH",
"268 -398 LINE SMOOTH",
"324 -398 OFFCURVE",
"342 -379 OFFCURVE",
"342 -333 CURVE SMOOTH",
"342 143 LINE",
"422 41 OFFCURVE",
"526 -22 OFFCURVE",
"659 -22 CURVE SMOOTH",
"906 -22 OFFCURVE",
"1089 160 OFFCURVE",
"1089 462 CURVE SMOOTH",
"1089 764 OFFCURVE",
"906 946 OFFCURVE",
"659 946 CURVE SMOOTH"
);
},
{
closed = 1;
nodes = (
"830 798 OFFCURVE",
"935 658 OFFCURVE",
"935 462 CURVE SMOOTH",
"935 266 OFFCURVE",
"830 126 OFFCURVE",
"649 126 CURVE SMOOTH",
"472 126 OFFCURVE",
"342 250 OFFCURVE",
"342 462 CURVE SMOOTH",
"342 674 OFFCURVE",
"472 798 OFFCURVE",
"649 798 CURVE SMOOTH"
);
}
);
width = 1228;
}
);
unicode = 0070;
},
{
glyphname = thorn;
lastChange = "2015-01-12 05:49:38 +0000";
layers = (
{
layerId = UUID0;
name = Regular;
paths = (
{
closed = 1;
nodes = (
"266 1322 LINE SMOOTH",
"210 1322 OFFCURVE",
"192 1303 OFFCURVE",
"192 1257 CURVE SMOOTH",
"192 -333 LINE SMOOTH",
"192 -379 OFFCURVE",
"210 -398 OFFCURVE",
"266 -398 CURVE SMOOTH",
"268 -398 LINE SMOOTH",
"324 -398 OFFCURVE",
"342 -379 OFFCURVE",
"342 -333 CURVE SMOOTH",
"342 143 LINE",
"422 41 OFFCURVE",
"526 -22 OFFCURVE",
"659 -22 CURVE SMOOTH",
"906 -22 OFFCURVE",
"1089 160 OFFCURVE",
"1089 462 CURVE SMOOTH",
"1089 764 OFFCURVE",
"906 946 OFFCURVE",
"659 946 CURVE SMOOTH",
"531 946 OFFCURVE",
"423 886 OFFCURVE",
"342 787 CURVE",
"342 1257 LINE SMOOTH",
"342 1303 OFFCURVE",
"324 1322 OFFCURVE",
"268 1322 CURVE SMOOTH"
);
},
{
closed = 1;
nodes = (
"830 798 OFFCURVE",
"935 658 OFFCURVE",
"935 462 CURVE SMOOTH",
"935 266 OFFCURVE",
"830 126 OFFCURVE",
"649 126 CURVE SMOOTH",
"472 126 OFFCURVE",
"342 250 OFFCURVE",
"342 462 CURVE SMOOTH",
"342 674 OFFCURVE",
"472 798 OFFCURVE",
"649 798 CURVE SMOOTH"
);
}
);
width = 1228;
}
);
unicode = 00FE;
},
{
glyphname = q;
lastChange = "2015-01-12 05:49:38 +0000";
layers = (
{
layerId = UUID0;
name = Regular;
paths = (
{
closed = 1;
nodes = (
"322 946 OFFCURVE",
"139 764 OFFCURVE",
"139 462 CURVE SMOOTH",
"139 160 OFFCURVE",
"322 -22 OFFCURVE",
"569 -22 CURVE SMOOTH",
"702 -22 OFFCURVE",
"806 41 OFFCURVE",
"886 143 CURVE",
"886 -333 LINE SMOOTH",
"886 -379 OFFCURVE",
"904 -398 OFFCURVE",
"960 -398 CURVE SMOOTH",
"962 -398 LINE SMOOTH",
"1018 -398 OFFCURVE",
"1036 -379 OFFCURVE",
"1036 -333 CURVE SMOOTH",
"1036 869 LINE SMOOTH",
"1036 915 OFFCURVE",
"1020 934 OFFCURVE",
"967 934 CURVE SMOOTH",
"965 934 LINE SMOOTH",
"912 934 OFFCURVE",
"896 915 OFFCURVE",
"896 869 CURVE SMOOTH",
"896 776 LINE",
"814 883 OFFCURVE",
"702 946 OFFCURVE",
"569 946 CURVE SMOOTH"
);
},
{
closed = 1;
nodes = (
"756 798 OFFCURVE",
"886 674 OFFCURVE",
"886 462 CURVE SMOOTH",
"886 250 OFFCURVE",
"756 126 OFFCURVE",
"579 126 CURVE SMOOTH",
"398 126 OFFCURVE",
"293 266 OFFCURVE",
"293 462 CURVE SMOOTH",
"293 658 OFFCURVE",
"398 798 OFFCURVE",
"579 798 CURVE SMOOTH"
);
}
);
width = 1228;
}
);
unicode = 0071;
},
{
glyphname = r;
lastChange = "2015-01-12 05:49:38 +0000";
layers = (
{
layerId = UUID0;
name = Regular;
paths = (
{
closed = 1;
nodes = (
"726 946 OFFCURVE",
"561 828 OFFCURVE",
"447 634 CURVE",
"447 869 LINE SMOOTH",
"447 915 OFFCURVE",
"431 934 OFFCURVE",
"378 934 CURVE SMOOTH",
"376 934 LINE SMOOTH",
"323 934 OFFCURVE",
"307 915 OFFCURVE",
"307 869 CURVE SMOOTH",
"307 55 LINE SMOOTH",
"307 9 OFFCURVE",
"325 -10 OFFCURVE",
"381 -10 CURVE SMOOTH",
"383 -10 LINE SMOOTH",
"439 -10 OFFCURVE",
"457 9 OFFCURVE",
"457 55 CURVE SMOOTH",
"457 270 LINE SMOOTH",
"457 554 OFFCURVE",
"663 786 OFFCURVE",
"896 786 CURVE SMOOTH",
"932 786 OFFCURVE",
"969 780 OFFCURVE",
"1006 768 CURVE SMOOTH",
"1048 754 OFFCURVE",
"1068 778 OFFCURVE",
"1081 830 CURVE SMOOTH",
"1093 880 OFFCURVE",
"1079 911 OFFCURVE",
"1036 925 CURVE SMOOTH",
"992 939 OFFCURVE",
"948 946 OFFCURVE",
"905 946 CURVE SMOOTH"
);
}
);
width = 1228;
}
);
unicode = 0072;
},
{
glyphname = s;
lastChange = "2015-01-12 05:49:38 +0000";
layers = (
{
layerId = UUID0;
name = Regular;
paths = (
{
closed = 1;
nodes = (
"913 -22 OFFCURVE",
"1048 98 OFFCURVE",
"1048 277 CURVE SMOOTH",
"1048 403 OFFCURVE",
"979 467 OFFCURVE",
"884 502 CURVE SMOOTH",
"738 556 OFFCURVE",
"532 542 OFFCURVE",
"421 578 CURVE SMOOTH",
"374 593 OFFCURVE",
"344 617 OFFCURVE",
"344 660 CURVE SMOOTH",
"344 753 OFFCURVE",
"431 801 OFFCURVE",
"570 801 CURVE SMOOTH",
"689 801 OFFCURVE",
"806 772 OFFCURVE",
"912 718 CURVE SMOOTH",
"945 701 OFFCURVE",
"973 707 OFFCURVE",
"996 759 CURVE SMOOTH",
"1018 809 OFFCURVE",
"1004 840 OFFCURVE",
"966 859 CURVE SMOOTH",
"845 920 OFFCURVE",
"706 946 OFFCURVE",
"564 946 CURVE SMOOTH",
"352 946 OFFCURVE",
"190 849 OFFCURVE",
"190 660 CURVE SMOOTH",
"190 544 OFFCURVE",
"252 483 OFFCURVE",
"340 448 CURVE SMOOTH",
"485 391 OFFCURVE",
"698 406 OFFCURVE",
"813 367 CURVE SMOOTH",
"863 350 OFFCURVE",
"894 324 OFFCURVE",
"894 277 CURVE SMOOTH",
"894 186 OFFCURVE",
"813 123 OFFCURVE",
"644 123 CURVE SMOOTH",
"512 123 OFFCURVE",
"384 156 OFFCURVE",
"275 217 CURVE SMOOTH",
"243 235 OFFCURVE",
"215 230 OFFCURVE",
"190 179 CURVE SMOOTH",
"166 130 OFFCURVE",
"179 99 OFFCURVE",
"217 78 CURVE SMOOTH",
"345 8 OFFCURVE",
"492 -22 OFFCURVE",
"654 -22 CURVE SMOOTH"
);
}
);
width = 1228;
}
);
unicode = 0073;
},
{
glyphname = germandbls;
lastChange = "2015-01-12 05:49:38 +0000";
layers = (
{
layerId = UUID0;
name = Regular;
paths = (
{
closed = 1;
nodes = (
"373 1317 OFFCURVE",
"235 1162 OFFCURVE",
"235 943 CURVE SMOOTH",
"235 55 LINE SMOOTH",
"235 9 OFFCURVE",
"253 -10 OFFCURVE",
"309 -10 CURVE SMOOTH",
"311 -10 LINE SMOOTH",
"367 -10 OFFCURVE",
"385 9 OFFCURVE",
"385 55 CURVE SMOOTH",
"385 932 LINE SMOOTH",
"385 1078 OFFCURVE",
"464 1169 OFFCURVE",
"602 1169 CURVE SMOOTH",
"749 1169 OFFCURVE",
"828 1094 OFFCURVE",
"828 971 CURVE SMOOTH",
"828 854 OFFCURVE",
"760 772 OFFCURVE",
"627 759 CURVE SMOOTH",
"582 755 OFFCURVE",
"564 736 OFFCURVE",
"564 688 CURVE SMOOTH",
"564 640 OFFCURVE",
"582 619 OFFCURVE",
"627 619 CURVE SMOOTH",
"782 619 OFFCURVE",
"883 527 OFFCURVE",
"883 362 CURVE SMOOTH",
"883 209 OFFCURVE",
"781 126 OFFCURVE",
"615 126 CURVE SMOOTH",
"569 126 OFFCURVE",
"551 104 OFFCURVE",
"551 55 CURVE SMOOTH",
"551 -2 OFFCURVE",
"566 -22 OFFCURVE",
"634 -22 CURVE SMOOTH",
"876 -22 OFFCURVE",
"1037 120 OFFCURVE",
"1037 360 CURVE SMOOTH",
"1037 525 OFFCURVE",
"952 648 OFFCURVE",
"810 702 CURVE",
"915 757 OFFCURVE",
"982 845 OFFCURVE",
"982 971 CURVE SMOOTH",
"982 1164 OFFCURVE",
"856 1317 OFFCURVE",
"606 1317 CURVE SMOOTH"
);
}
);
width = 1228;
}
);
unicode = 00DF;
},
{
color = 8;
glyphname = t;
lastChange = "2015-01-12 05:49:38 +0000";
layers = (
{
background = {
paths = (
{
closed = 0;
nodes = (
"944 728 LINE SMOOTH",
"989 728 OFFCURVE",
"1007 746 OFFCURVE",
"1007 796 CURVE SMOOTH",
"1007 846 OFFCURVE",
"989 864 OFFCURVE",
"944 864 CURVE SMOOTH"
);
}
);
};
layerId = UUID0;
name = Regular;
paths = (
{
closed = 1;
nodes = (
"402 1209 OFFCURVE",
"383 1190 OFFCURVE",
"383 1144 CURVE SMOOTH",
"383 331 LINE SMOOTH",
"383 102 OFFCURVE",
"478 -22 OFFCURVE",
"710 -22 CURVE SMOOTH",
"825 -22 OFFCURVE",
"963 27 OFFCURVE",
"1063 90 CURVE SMOOTH",
"1096 111 OFFCURVE",
"1108 139 OFFCURVE",
"1083 187 CURVE SMOOTH",
"1058 235 OFFCURVE",
"1024 243 OFFCURVE",
"994 223 CURVE SMOOTH",
"907 166 OFFCURVE",
"803 124 OFFCURVE",
"710 124 CURVE SMOOTH",
"577 124 OFFCURVE",
"533 197 OFFCURVE",
"533 344 CURVE SMOOTH",
"533 1144 LINE SMOOTH",
"533 1190 OFFCURVE",
"514 1209 OFFCURVE",
"458 1209 CURVE SMOOTH"
);
},
{
closed = 1;
nodes = (
"180 844 LINE SMOOTH",
"135 844 OFFCURVE",
"117 824 OFFCURVE",
"117 772 CURVE SMOOTH",
"117 720 OFFCURVE",
"135 700 OFFCURVE",
"180 700 CURVE SMOOTH",
"944 700 LINE SMOOTH",
"989 700 OFFCURVE",
"1007 720 OFFCURVE",
"1007 772 CURVE SMOOTH",
"1007 824 OFFCURVE",
"989 844 OFFCURVE",
"944 844 CURVE SMOOTH"
);
}
);
width = 1228;
}
);
unicode = 0074;
},
{
glyphname = u;
lastChange = "2015-01-12 05:49:38 +0000";
layers = (
{
layerId = UUID0;
name = Regular;
paths = (
{
closed = 1;
nodes = (
"950 934 LINE SMOOTH",
"894 934 OFFCURVE",
"876 915 OFFCURVE",
"876 869 CURVE SMOOTH",
"876 532 LINE SMOOTH",
"876 304 OFFCURVE",
"687 126 OFFCURVE",
"516 126 CURVE SMOOTH",
"387 126 OFFCURVE",
"334 204 OFFCURVE",
"334 319 CURVE SMOOTH",
"334 869 LINE SMOOTH",
"334 915 OFFCURVE",
"316 934 OFFCURVE",
"260 934 CURVE SMOOTH",
"258 934 LINE SMOOTH",
"202 934 OFFCURVE",
"184 915 OFFCURVE",
"184 869 CURVE SMOOTH",
"184 304 LINE SMOOTH",
"184 104 OFFCURVE",
"297 -22 OFFCURVE",
"501 -22 CURVE SMOOTH",
"647 -22 OFFCURVE",
"798 82 OFFCURVE",
"886 218 CURVE",
"886 55 LINE SMOOTH",
"886 9 OFFCURVE",
"902 -10 OFFCURVE",
"955 -10 CURVE SMOOTH",
"957 -10 LINE SMOOTH",
"1010 -10 OFFCURVE",
"1026 9 OFFCURVE",
"1026 55 CURVE SMOOTH",
"1026 869 LINE SMOOTH",
"1026 915 OFFCURVE",
"1008 934 OFFCURVE",
"952 934 CURVE SMOOTH"
);
}
);
width = 1228;
}
);
unicode = 0075;
},
{
color = 3;
glyphname = uogonek;
lastChange = "2015-01-12 05:49:38 +0000";
layers = (
{
background = {
components = (
{
name = u;
transform = "{1, 0, 0, 1, 0, 0}";
},
{
name = ogonek;
transform = "{1, 0, 0, 1, 272, 0}";
}
);
};
layerId = UUID0;
name = Regular;
paths = (
{
closed = 1;
nodes = (
"950 934 LINE SMOOTH",
"894 934 OFFCURVE",
"876 915 OFFCURVE",
"876 869 CURVE SMOOTH",
"876 532 LINE SMOOTH",
"876 304 OFFCURVE",
"687 126 OFFCURVE",
"516 126 CURVE SMOOTH",
"387 126 OFFCURVE",
"334 204 OFFCURVE",
"334 319 CURVE SMOOTH",
"334 869 LINE SMOOTH",
"334 915 OFFCURVE",
"316 934 OFFCURVE",
"260 934 CURVE SMOOTH",
"258 934 LINE SMOOTH",
"202 934 OFFCURVE",
"184 915 OFFCURVE",
"184 869 CURVE SMOOTH",
"184 304 LINE SMOOTH",
"184 104 OFFCURVE",
"297 -22 OFFCURVE",
"501 -22 CURVE SMOOTH",
"647 -22 OFFCURVE",
"798 82 OFFCURVE",
"886 218 CURVE",
"886 32 LINE",
"760 -69 OFFCURVE",
"683 -169 OFFCURVE",
"683 -281 CURVE SMOOTH",
"683 -397 OFFCURVE",
"759 -472 OFFCURVE",
"883 -472 CURVE SMOOTH",
"945 -472 OFFCURVE",
"1001 -462 OFFCURVE",
"1047 -446 CURVE SMOOTH",
"1076 -436 OFFCURVE",
"1085 -415 OFFCURVE",
"1079 -374 CURVE SMOOTH",
"1074 -337 OFFCURVE",
"1055 -322 OFFCURVE",
"1029 -326 CURVE SMOOTH",
"994 -332 OFFCURVE",
"955 -336 OFFCURVE",
"916 -336 CURVE SMOOTH",
"871 -336 OFFCURVE",
"839 -310 OFFCURVE",
"839 -261 CURVE SMOOTH",
"839 -187 OFFCURVE",
"887 -109 OFFCURVE",
"1010 4 CURVE SMOOTH",
"1022 15 OFFCURVE",
"1026 30 OFFCURVE",
"1026 55 CURVE SMOOTH",
"1026 869 LINE SMOOTH",
"1026 915 OFFCURVE",
"1008 934 OFFCURVE",
"952 934 CURVE SMOOTH"
);
}
);
width = 1228;
}
);
unicode = 0173;
},
{
glyphname = v;
lastChange = "2015-01-12 05:49:38 +0000";
layers = (
{
layerId = UUID0;
name = Regular;
paths = (
{
closed = 1;
nodes = (
"999 946 OFFCURVE",
"974 938 OFFCURVE",
"954 894 CURVE SMOOTH",
"614 143 LINE",
"274 894 LINE SMOOTH",
"254 938 OFFCURVE",
"229 946 OFFCURVE",
"177 924 CURVE SMOOTH",
"125 902 OFFCURVE",
"113 877 OFFCURVE",
"133 833 CURVE SMOOTH",
"496 40 LINE SMOOTH",
"516 -3 OFFCURVE",
"548 -22 OFFCURVE",
"614 -22 CURVE",
"680 -22 OFFCURVE",
"712 -3 OFFCURVE",
"732 40 CURVE SMOOTH",
"1095 833 LINE SMOOTH",
"1115 877 OFFCURVE",
"1103 902 OFFCURVE",
"1051 924 CURVE SMOOTH"
);
}
);
width = 1228;
}
);
unicode = 0076;
},
{
glyphname = w;
lastChange = "2015-01-12 05:49:38 +0000";
layers = (
{
layerId = UUID0;
name = Regular;
paths = (
{
closed = 1;
nodes = (
"1055 941 OFFCURVE",
"1034 930 OFFCURVE",
"1023 883 CURVE SMOOTH",
"864 210 LINE",
"689 743 LINE SMOOTH",
"680 769 OFFCURVE",
"658 790 OFFCURVE",
"614 790 CURVE SMOOTH",
"570 790 OFFCURVE",
"548 769 OFFCURVE",
"539 743 CURVE SMOOTH",
"364 210 LINE",
"205 883 LINE SMOOTH",
"194 930 OFFCURVE",
"173 941 OFFCURVE",
"118 930 CURVE SMOOTH",
"62 919 OFFCURVE",
"50 896 OFFCURVE",
"62 849 CURVE SMOOTH",
"261 43 LINE SMOOTH",
"273 -4 OFFCURVE",
"292 -22 OFFCURVE",
"343 -22 CURVE SMOOTH",
"400 -22 OFFCURVE",
"430 -3 OFFCURVE",
"445 43 CURVE SMOOTH",
"614 555 LINE",
"783 43 LINE SMOOTH",
"798 -3 OFFCURVE",
"828 -22 OFFCURVE",
"885 -22 CURVE SMOOTH",
"936 -22 OFFCURVE",
"955 -4 OFFCURVE",
"967 43 CURVE SMOOTH",
"1166 849 LINE SMOOTH",
"1178 896 OFFCURVE",
"1166 919 OFFCURVE",
"1110 930 CURVE SMOOTH"
);
}
);
width = 1228;
}
);
unicode = 0077;
},
{
glyphname = x;
lastChange = "2015-01-12 05:49:38 +0000";
layers = (
{
layerId = UUID0;
name = Regular;
paths = (
{
closed = 1;
nodes = (
"965 947 OFFCURVE",
"937 945 OFFCURVE",
"906 909 CURVE SMOOTH",
"597 550 LINE",
"552 518 LINE",
"184 89 LINE SMOOTH",
"153 52 OFFCURVE",
"165 21 OFFCURVE",
"211 0 CURVE SMOOTH",
"262 -23 OFFCURVE",
"290 -21 OFFCURVE",
"321 15 CURVE SMOOTH",
"648 400 LINE",
"697 435 LINE",
"1043 835 LINE SMOOTH",
"1075 872 OFFCURVE",
"1062 903 OFFCURVE",
"1016 924 CURVE SMOOTH"
);
},
{
closed = 1;
nodes = (
"178 903 OFFCURVE",
"165 872 OFFCURVE",
"197 835 CURVE SMOOTH",
"543 435 LINE",
"592 400 LINE",
"919 15 LINE SMOOTH",
"950 -21 OFFCURVE",
"978 -23 OFFCURVE",
"1029 0 CURVE SMOOTH",
"1075 21 OFFCURVE",
"1087 52 OFFCURVE",
"1056 89 CURVE SMOOTH",
"688 518 LINE",
"643 550 LINE",
"334 909 LINE SMOOTH",
"303 945 OFFCURVE",
"275 947 OFFCURVE",
"224 924 CURVE SMOOTH"
);
}
);
width = 1228;
}
);
unicode = 0078;
},
{
glyphname = y;
lastChange = "2015-01-14 20:51:33 +0000";
layers = (
{
layerId = UUID0;
name = Regular;
paths = (
{
closed = 1;
nodes = (
"999 946 OFFCURVE",
"975 937 OFFCURVE",
"954 894 CURVE SMOOTH",
"615 211 LINE",
"274 894 LINE SMOOTH",
"252 937 OFFCURVE",
"229 946 OFFCURVE",
"177 924 CURVE SMOOTH",
"125 902 OFFCURVE",
"111 876 OFFCURVE",
"133 833 CURVE SMOOTH",
"559 -15 LINE",
"571 125 LINE",
"359 -297 LINE SMOOTH",
"337 -340 OFFCURVE",
"349 -366 OFFCURVE",
"401 -388 CURVE SMOOTH",
"453 -410 OFFCURVE",
"475 -401 OFFCURVE",
"497 -358 CURVE SMOOTH",
"1094 833 LINE SMOOTH",
"1116 876 OFFCURVE",
"1103 902 OFFCURVE",
"1051 924 CURVE SMOOTH"
);
}
);
width = 1228;
}
);
unicode = 0079;
},
{
glyphname = z;
lastChange = "2015-01-12 05:49:38 +0000";
layers = (
{
layerId = UUID0;
name = Regular;
paths = (
{
closed = 1;
nodes = (
"803 924 LINE",
"803 788 LINE",
"192 113 LINE SMOOTH",
"182 102 OFFCURVE",
"178 87 OFFCURVE",
"178 68 CURVE SMOOTH",
"178 18 OFFCURVE",
"196 0 OFFCURVE",
"241 0 CURVE SMOOTH",
"415 0 LINE",
"415 136 LINE",
"1025 810 LINE SMOOTH",
"1034 820 OFFCURVE",
"1040 835 OFFCURVE",
"1040 856 CURVE SMOOTH",
"1040 906 OFFCURVE",
"1022 924 OFFCURVE",
"977 924 CURVE SMOOTH"
);
},
{
closed = 1;
nodes = (
"331 144 LINE",
"331 0 LINE",
"987 0 LINE SMOOTH",
"1032 0 OFFCURVE",
"1050 20 OFFCURVE",
"1050 72 CURVE SMOOTH",
"1050 124 OFFCURVE",
"1032 144 OFFCURVE",
"987 144 CURVE SMOOTH"
);
},
{
closed = 1;
nodes = (
"261 924 LINE SMOOTH",
"216 924 OFFCURVE",
"198 904 OFFCURVE",
"198 852 CURVE SMOOTH",
"198 800 OFFCURVE",
"216 780 OFFCURVE",
"261 780 CURVE SMOOTH",
"889 780 LINE",
"889 924 LINE"
);
}
);
width = 1228;
}
);
unicode = 007A;
},
{
glyphname = ordfeminine;
lastChange = "2015-01-12 05:49:38 +0000";
layers = (
{
layerId = UUID0;
name = Regular;
paths = (
{
closed = 1;
nodes = (
"540 1209 OFFCURVE",
"427 1180 OFFCURVE",
"345 1128 CURVE SMOOTH",
"320 1112 OFFCURVE",
"313 1085 OFFCURVE",
"338 1042 CURVE SMOOTH",
"359 1005 OFFCURVE",
"387 1000 OFFCURVE",
"412 1015 CURVE SMOOTH",
"486 1058 OFFCURVE",
"563 1080 OFFCURVE",
"644 1080 CURVE SMOOTH",
"750 1080 OFFCURVE",
"792 1029 OFFCURVE",
"792 950 CURVE SMOOTH",
"792 899 LINE",
"719 919 OFFCURVE",
"641 927 OFFCURVE",
"558 927 CURVE SMOOTH",
"390 927 OFFCURVE",
"252 859 OFFCURVE",
"252 687 CURVE SMOOTH",
"252 541 OFFCURVE",
"368 465 OFFCURVE",
"522 465 CURVE SMOOTH",
"632 465 OFFCURVE",
"728 511 OFFCURVE",
"807 578 CURVE",
"807 524 LINE SMOOTH",
"807 489 OFFCURVE",
"824 474 OFFCURVE",
"866 474 CURVE SMOOTH",
"868 474 LINE SMOOTH",
"909 474 OFFCURVE",
"927 489 OFFCURVE",
"927 524 CURVE SMOOTH",
"927 954 LINE SMOOTH",
"927 1115 OFFCURVE",
"831 1209 OFFCURVE",
"644 1209 CURVE SMOOTH"
);
},
{
closed = 1;
nodes = (
"648 801 OFFCURVE",
"722 792 OFFCURVE",
"792 776 CURVE",
"792 707 LINE",
"716 632 OFFCURVE",
"630 590 OFFCURVE",
"526 590 CURVE SMOOTH",
"445 590 OFFCURVE",
"393 625 OFFCURVE",
"393 690 CURVE SMOOTH",
"393 772 OFFCURVE",
"466 801 OFFCURVE",
"569 801 CURVE SMOOTH"
);
}
);
width = 1228;
}
);
unicode = 00AA;
},
{
glyphname = ordmasculine;
lastChange = "2015-01-12 05:49:38 +0000";
layers = (
{
layerId = UUID0;
name = Regular;
paths = (
{
closed = 1;
nodes = (
"398 1209 OFFCURVE",
"235 1053 OFFCURVE",
"235 837 CURVE SMOOTH",
"235 620 OFFCURVE",
"398 465 OFFCURVE",
"614 465 CURVE SMOOTH",
"830 465 OFFCURVE",
"993 620 OFFCURVE",
"993 837 CURVE SMOOTH",
"993 1053 OFFCURVE",
"830 1209 OFFCURVE",
"614 1209 CURVE SMOOTH"
);
},
{
closed = 1;
nodes = (
"758 1077 OFFCURVE",
"853 976 OFFCURVE",
"853 837 CURVE SMOOTH",
"853 697 OFFCURVE",
"758 597 OFFCURVE",
"614 597 CURVE SMOOTH",
"471 597 OFFCURVE",
"375 697 OFFCURVE",
"375 837 CURVE SMOOTH",
"375 976 OFFCURVE",
"471 1077 OFFCURVE",
"614 1077 CURVE SMOOTH"
);
}
);
width = 1228;
}
);
unicode = 00BA;
},
{
glyphname = Delta;
lastChange = "2015-01-12 05:49:38 +0000";
layers = (
{
layerId = UUID0;
name = Regular;
paths = (
{
closed = 1;
nodes = (
"564 1209 OFFCURVE",
"530 1191 OFFCURVE",
"514 1144 CURVE SMOOTH",
"153 106 LINE SMOOTH",
"150 97 OFFCURVE",
"147 83 OFFCURVE",
"147 68 CURVE SMOOTH",
"147 18 OFFCURVE",
"165 0 OFFCURVE",
"210 0 CURVE SMOOTH",
"1017 0 LINE SMOOTH",
"1062 0 OFFCURVE",
"1080 18 OFFCURVE",
"1080 68 CURVE SMOOTH",
"1080 83 OFFCURVE",
"1078 97 OFFCURVE",
"1075 106 CURVE SMOOTH",
"718 1144 LINE SMOOTH",
"702 1190 OFFCURVE",
"670 1209 OFFCURVE",
"617 1209 CURVE SMOOTH"
);
},
{
closed = 1;
nodes = (
"906.98 136 LINE",
"321.146 136 LINE",
"615 1022 LINE",
"617 1022 LINE"
);
}
);
width = 1228;
}
);
unicode = 0394;
},
{
glyphname = Omega;
lastChange = "2015-01-12 05:49:38 +0000";
layers = (
{
layerId = UUID0;
name = Regular;
paths = (
{
closed = 1;
nodes = (
"299 1209 OFFCURVE",
"88 975 OFFCURVE",
"88 623 CURVE SMOOTH",
"88 416 OFFCURVE",
"191 244 OFFCURVE",
"321 144 CURVE",
"144 144 LINE SMOOTH",
"99 144 OFFCURVE",
"81 124 OFFCURVE",
"81 72 CURVE SMOOTH",
"81 20 OFFCURVE",
"99 0 OFFCURVE",
"144 0 CURVE SMOOTH",
"478 0 LINE SMOOTH",
"523 0 OFFCURVE",
"541 21 OFFCURVE",
"541 78 CURVE SMOOTH",
"541 109 OFFCURVE",
"537 133 OFFCURVE",
"524 142 CURVE SMOOTH",
"349 254 OFFCURVE",
"246 413 OFFCURVE",
"246 623 CURVE SMOOTH",
"246 893 OFFCURVE",
"392 1061 OFFCURVE",
"614 1061 CURVE SMOOTH",
"836 1061 OFFCURVE",
"982 893 OFFCURVE",
"982 623 CURVE SMOOTH",
"982 413 OFFCURVE",
"879 254 OFFCURVE",
"704 142 CURVE SMOOTH",
"691 133 OFFCURVE",
"687 109 OFFCURVE",
"687 78 CURVE SMOOTH",
"687 21 OFFCURVE",
"705 0 OFFCURVE",
"750 0 CURVE SMOOTH",
"1084 0 LINE SMOOTH",
"1129 0 OFFCURVE",
"1147 20 OFFCURVE",
"1147 72 CURVE SMOOTH",
"1147 124 OFFCURVE",
"1129 144 OFFCURVE",
"1084 144 CURVE SMOOTH",
"907 144 LINE",
"1037 244 OFFCURVE",
"1140 416 OFFCURVE",
"1140 623 CURVE SMOOTH",
"1140 975 OFFCURVE",
"929 1209 OFFCURVE",
"614 1209 CURVE SMOOTH"
);
}
);
width = 1228;
}
);
unicode = 03A9;
},
{
glyphname = mu;
lastChange = "2015-01-12 05:49:38 +0000";
layers = (
{
layerId = UUID0;
name = Regular;
paths = (
{
closed = 1;
nodes = (
"944 934 LINE SMOOTH",
"888 934 OFFCURVE",
"870 915 OFFCURVE",
"870 869 CURVE SMOOTH",
"870 502 LINE SMOOTH",
"870 292 OFFCURVE",
"701 126 OFFCURVE",
"550 126 CURVE SMOOTH",
"421 126 OFFCURVE",
"368 204 OFFCURVE",
"368 319 CURVE SMOOTH",
"368 869 LINE SMOOTH",
"368 915 OFFCURVE",
"350 934 OFFCURVE",
"294 934 CURVE SMOOTH",
"292 934 LINE SMOOTH",
"236 934 OFFCURVE",
"218 915 OFFCURVE",
"218 869 CURVE SMOOTH",
"218 -333 LINE SMOOTH",
"218 -379 OFFCURVE",
"236 -398 OFFCURVE",
"292 -398 CURVE SMOOTH",
"294 -398 LINE SMOOTH",
"350 -398 OFFCURVE",
"368 -379 OFFCURVE",
"368 -333 CURVE SMOOTH",
"368 25 LINE",
"412 -6 OFFCURVE",
"470 -22 OFFCURVE",
"535 -22 CURVE SMOOTH",
"675 -22 OFFCURVE",
"800 74 OFFCURVE",
"880 198 CURVE",
"880 55 LINE SMOOTH",
"880 9 OFFCURVE",
"896 -10 OFFCURVE",
"949 -10 CURVE SMOOTH",
"951 -10 LINE SMOOTH",
"1004 -10 OFFCURVE",
"1020 9 OFFCURVE",
"1020 55 CURVE SMOOTH",
"1020 869 LINE SMOOTH",
"1020 915 OFFCURVE",
"1002 934 OFFCURVE",
"946 934 CURVE SMOOTH"
);
}
);
width = 1228;
}
);
unicode = 03BC;
},
{
glyphname = pi;
lastChange = "2015-01-12 05:49:38 +0000";
layers = (
{
layerId = UUID0;
name = Regular;
paths = (
{
closed = 1;
nodes = (
"161 924 LINE SMOOTH",
"116 924 OFFCURVE",
"98 904 OFFCURVE",
"98 852 CURVE SMOOTH",
"98 800 OFFCURVE",
"116 780 OFFCURVE",
"161 780 CURVE SMOOTH",
"248 780 LINE",
"248 55 LINE SMOOTH",
"248 9 OFFCURVE",
"266 -10 OFFCURVE",
"322 -10 CURVE SMOOTH",
"324 -10 LINE SMOOTH",
"380 -10 OFFCURVE",
"398 9 OFFCURVE",
"398 55 CURVE SMOOTH",
"398 780 LINE",
"830 780 LINE",
"830 55 LINE SMOOTH",
"830 9 OFFCURVE",
"848 -10 OFFCURVE",
"904 -10 CURVE SMOOTH",
"906 -10 LINE SMOOTH",
"962 -10 OFFCURVE",
"980 9 OFFCURVE",
"980 55 CURVE SMOOTH",
"980 780 LINE",
"1067 780 LINE SMOOTH",
"1112 780 OFFCURVE",
"1130 800 OFFCURVE",
"1130 852 CURVE SMOOTH",
"1130 904 OFFCURVE",
"1112 924 OFFCURVE",
"1067 924 CURVE SMOOTH"
);
}
);
width = 1228;
}
);
unicode = 03C0;
},
{
glyphname = zero;
lastChange = "2015-01-12 05:51:49 +0000";
layers = (
{
layerId = UUID0;
name = Regular;
paths = (
{
closed = 1;
nodes = (
"354 1209 OFFCURVE",
"190 963 OFFCURVE",
"190 593 CURVE SMOOTH",
"190 223 OFFCURVE",
"354 -22 OFFCURVE",
"614 -22 CURVE SMOOTH",
"874 -22 OFFCURVE",
"1038 223 OFFCURVE",
"1038 593 CURVE SMOOTH",
"1038 963 OFFCURVE",
"874 1209 OFFCURVE",
"614 1209 CURVE SMOOTH"
);
},
{
closed = 1;
nodes = (
"303 349 LINE",
"373 219 LINE",
"918 829 LINE",
"859 971 LINE"
);
},
{
closed = 1;
nodes = (
"771 1061 OFFCURVE",
"884 891 OFFCURVE",
"884 593 CURVE SMOOTH",
"884 295 OFFCURVE",
"771 126 OFFCURVE",
"614 126 CURVE SMOOTH",
"457 126 OFFCURVE",
"344 295 OFFCURVE",
"344 593 CURVE SMOOTH",
"344 891 OFFCURVE",
"457 1061 OFFCURVE",
"614 1061 CURVE SMOOTH"
);
}
);
width = 1228;
}
);
unicode = 0030;
},
{
color = 3;
glyphname = one;
lastChange = "2015-01-12 05:49:38 +0000";
layers = (
{
layerId = UUID0;
name = Regular;
paths = (
{
closed = 1;
nodes = (
"251 968 LINE SMOOTH",
"221 950 OFFCURVE",
"208 915 OFFCURVE",
"234 870 CURVE SMOOTH",
"261 823 OFFCURVE",
"294 823 OFFCURVE",
"320 839 CURVE SMOOTH",
"569 994 LINE",
"569 108 LINE",
"719 108 LINE",
"719 1157 LINE SMOOTH",
"719 1211 OFFCURVE",
"668 1224 OFFCURVE",
"628 1200 CURVE SMOOTH"
);
},
{
closed = 1;
nodes = (
"300 144 LINE SMOOTH",
"255 144 OFFCURVE",
"237 124 OFFCURVE",
"237 72 CURVE SMOOTH",
"237 20 OFFCURVE",
"255 0 OFFCURVE",
"300 0 CURVE SMOOTH",
"974 0 LINE SMOOTH",
"1019 0 OFFCURVE",
"1037 20 OFFCURVE",
"1037 72 CURVE SMOOTH",
"1037 124 OFFCURVE",
"1019 144 OFFCURVE",
"974 144 CURVE SMOOTH"
);
}
);
width = 1228;
}
);
unicode = 0031;
},
{
glyphname = two;
lastChange = "2015-01-12 05:49:38 +0000";
layers = (
{
layerId = UUID0;
name = Regular;
paths = (
{
closed = 1;
nodes = (
"471 1209 OFFCURVE",
"342 1166 OFFCURVE",
"241 1095 CURVE SMOOTH",
"209 1072 OFFCURVE",
"200 1042 OFFCURVE",
"228 996 CURVE SMOOTH",
"257 950 OFFCURVE",
"291 946 OFFCURVE",
"320 967 CURVE SMOOTH",
"403 1026 OFFCURVE",
"502 1061 OFFCURVE",
"591 1061 CURVE SMOOTH",
"739 1061 OFFCURVE",
"819 981 OFFCURVE",
"819 859 CURVE SMOOTH",
"819 760 OFFCURVE",
"769 687 OFFCURVE",
"652 568 CURVE SMOOTH",
"212 122 LINE SMOOTH",
"202 111 OFFCURVE",
"197 94 OFFCURVE",
"197 68 CURVE SMOOTH",
"197 18 OFFCURVE",
"215 0 OFFCURVE",
"260 0 CURVE SMOOTH",
"433 0 LINE",
"433 136 LINE",
"769 477 LINE SMOOTH",
"898 608 OFFCURVE",
"973 714 OFFCURVE",
"973 859 CURVE SMOOTH",
"973 1080 OFFCURVE",
"823 1209 OFFCURVE",
"590 1209 CURVE SMOOTH"
);
},
{
closed = 1;
nodes = (
"349 144 LINE",
"349 0 LINE",
"954 0 LINE SMOOTH",
"999 0 OFFCURVE",
"1017 20 OFFCURVE",
"1017 72 CURVE SMOOTH",
"1017 124 OFFCURVE",
"999 144 OFFCURVE",
"954 144 CURVE SMOOTH"
);
}
);
width = 1228;
}
);
unicode = 0032;
},
{
glyphname = three;
lastChange = "2015-01-12 05:49:38 +0000";
layers = (
{
layerId = UUID0;
name = Regular;
paths = (
{
closed = 1;
nodes = (
"466 1209 OFFCURVE",
"354 1176 OFFCURVE",
"247 1113 CURVE SMOOTH",
"214 1093 OFFCURVE",
"203 1063 OFFCURVE",
"229 1014 CURVE SMOOTH",
"255 967 OFFCURVE",
"287 963 OFFCURVE",
"317 981 CURVE SMOOTH",
"406 1035 OFFCURVE",
"494 1061 OFFCURVE",
"581 1061 CURVE SMOOTH",
"726 1061 OFFCURVE",
"807 991 OFFCURVE",
"807 879 CURVE SMOOTH",
"807 757 OFFCURVE",
"728 691 OFFCURVE",
"575 691 CURVE SMOOTH",
"520 691 LINE SMOOTH",
"475 691 OFFCURVE",
"457 673 OFFCURVE",
"457 623 CURVE SMOOTH",
"457 573 OFFCURVE",
"475 555 OFFCURVE",
"520 555 CURVE SMOOTH",
"593 555 LINE SMOOTH",
"748 555 OFFCURVE",
"844 484 OFFCURVE",
"844 345 CURVE SMOOTH",
"844 213 OFFCURVE",
"757 126 OFFCURVE",
"588 126 CURVE SMOOTH",
"482 126 OFFCURVE",
"375 168 OFFCURVE",
"290 232 CURVE SMOOTH",
"261 254 OFFCURVE",
"227 249 OFFCURVE",
"198 203 CURVE SMOOTH",
"170 157 OFFCURVE",
"179 127 OFFCURVE",
"211 104 CURVE",
"315 28 OFFCURVE",
"455 -22 OFFCURVE",
"588 -22 CURVE SMOOTH",
"850 -22 OFFCURVE",
"998 128 OFFCURVE",
"998 345 CURVE SMOOTH",
"998 484 OFFCURVE",
"926 582 OFFCURVE",
"808 631 CURVE",
"901 679 OFFCURVE",
"961 760 OFFCURVE",
"961 879 CURVE SMOOTH",
"961 1080 OFFCURVE",
"811 1209 OFFCURVE",
"580 1209 CURVE SMOOTH"
);
}
);
width = 1228;
}
);
unicode = 0033;
},
{
glyphname = four;
lastChange = "2015-01-12 05:49:38 +0000";
layers = (
{
layerId = UUID0;
name = Regular;
paths = (
{
closed = 1;
nodes = (
"699 1209 OFFCURVE",
"668 1189 OFFCURVE",
"641 1148 CURVE SMOOTH",
"157 425 LINE SMOOTH",
"150 415 OFFCURVE",
"145 397 OFFCURVE",
"145 376 CURVE SMOOTH",
"145 326 OFFCURVE",
"165 302 OFFCURVE",
"210 302 CURVE",
"1000 302 LINE",
"1045 302 OFFCURVE",
"1063 322 OFFCURVE",
"1063 374 CURVE SMOOTH",
"1063 426 OFFCURVE",
"1045 446 OFFCURVE",
"1000 446 CURVE",
"342 446 LINE",
"696 992 LINE",
"688 430 LINE",
"688 55 LINE SMOOTH",
"688 9 OFFCURVE",
"706 -10 OFFCURVE",
"762 -10 CURVE SMOOTH",
"764 -10 LINE SMOOTH",
"820 -10 OFFCURVE",
"838 9 OFFCURVE",
"838 55 CURVE SMOOTH",
"838 1131 LINE SMOOTH",
"838 1178 OFFCURVE",
"813 1209 OFFCURVE",
"751 1209 CURVE SMOOTH"
);
}
);
width = 1228;
}
);
unicode = 0034;
},
{
glyphname = five;
lastChange = "2015-01-12 05:49:38 +0000";
layers = (
{
layerId = UUID0;
name = Regular;
paths = (
{
closed = 1;
nodes = (
"351 1187 LINE SMOOTH",
"295 1187 OFFCURVE",
"278 1168 OFFCURVE",
"276 1122 CURVE SMOOTH",
"256 622 LINE SMOOTH",
"254 576 OFFCURVE",
"275 557 OFFCURVE",
"331 557 CURVE SMOOTH",
"354 557 OFFCURVE",
"370 560 OFFCURVE",
"381 567 CURVE SMOOTH",
"446 612 OFFCURVE",
"513 638 OFFCURVE",
"608 638 CURVE SMOOTH",
"759 638 OFFCURVE",
"854 534 OFFCURVE",
"854 386 CURVE SMOOTH",
"854 230 OFFCURVE",
"753 126 OFFCURVE",
"588 126 CURVE SMOOTH",
"485 126 OFFCURVE",
"380 166 OFFCURVE",
"296 226 CURVE SMOOTH",
"267 248 OFFCURVE",
"233 243 OFFCURVE",
"204 197 CURVE SMOOTH",
"176 151 OFFCURVE",
"187 120 OFFCURVE",
"219 97 CURVE",
"322 25 OFFCURVE",
"458 -22 OFFCURVE",
"588 -22 CURVE SMOOTH",
"846 -22 OFFCURVE",
"1008 152 OFFCURVE",
"1008 386 CURVE SMOOTH",
"1008 619 OFFCURVE",
"865 786 OFFCURVE",
"621 786 CURVE SMOOTH",
"542 786 OFFCURVE",
"470 766 OFFCURVE",
"406 730 CURVE",
"419 1051 LINE",
"485 1187 LINE"
);
},
{
closed = 1;
nodes = (
"384 1187 LINE",
"384 1043 LINE",
"885 1043 LINE SMOOTH",
"930 1043 OFFCURVE",
"948 1063 OFFCURVE",
"948 1115 CURVE SMOOTH",
"948 1167 OFFCURVE",
"930 1187 OFFCURVE",
"885 1187 CURVE SMOOTH"
);
}
);
width = 1228;
}
);
unicode = 0035;
},
{
glyphname = six;
lastChange = "2015-01-12 05:49:38 +0000";
layers = (
{
layerId = UUID0;
name = Regular;
paths = (
{
closed = 1;
nodes = (
"393 1185 OFFCURVE",
"203 834 OFFCURVE",
"203 512 CURVE SMOOTH",
"203 368 OFFCURVE",
"229 259 OFFCURVE",
"279 173 CURVE SMOOTH",
"355 43 OFFCURVE",
"484 -22 OFFCURVE",
"626 -22 CURVE SMOOTH",
"873 -22 OFFCURVE",
"1034 136 OFFCURVE",
"1034 353 CURVE SMOOTH",
"1034 581 OFFCURVE",
"869 731 OFFCURVE",
"648 731 CURVE SMOOTH",
"534 731 OFFCURVE",
"428 681 OFFCURVE",
"358 589 CURVE",
"394 861 OFFCURVE",
"571 1043 OFFCURVE",
"938 1062 CURVE SMOOTH",
"964 1063 OFFCURVE",
"979 1083 OFFCURVE",
"974 1142 CURVE SMOOTH",
"969 1197 OFFCURVE",
"946 1210 OFFCURVE",
"917 1209 CURVE"
);
},
{
closed = 1;
nodes = (
"783 583 OFFCURVE",
"880 492 OFFCURVE",
"880 353 CURVE SMOOTH",
"880 216 OFFCURVE",
"779 126 OFFCURVE",
"626 126 CURVE SMOOTH",
"472 126 OFFCURVE",
"372 227 OFFCURVE",
"372 368 CURVE SMOOTH",
"372 495 OFFCURVE",
"478 583 OFFCURVE",
"626 583 CURVE SMOOTH"
);
}
);
width = 1228;
}
);
unicode = 0036;
},
{
glyphname = seven;
lastChange = "2015-01-12 05:49:38 +0000";
layers = (
{
layerId = UUID0;
name = Regular;
paths = (
{
closed = 1;
nodes = (
"853 1187 LINE",
"853 1051 LINE",
"446 56 LINE SMOOTH",
"430 15 OFFCURVE",
"454 -12 OFFCURVE",
"499 -20 CURVE SMOOTH",
"545 -28 OFFCURVE",
"582 -13 OFFCURVE",
"597 24 CURVE SMOOTH",
"1023 1079 LINE SMOOTH",
"1026 1087 OFFCURVE",
"1029 1102 OFFCURVE",
"1029 1119 CURVE SMOOTH",
"1029 1169 OFFCURVE",
"1011 1187 OFFCURVE",
"966 1187 CURVE SMOOTH"
);
},
{
closed = 1;
nodes = (
"262 1187 LINE SMOOTH",
"217 1187 OFFCURVE",
"199 1167 OFFCURVE",
"199 1115 CURVE SMOOTH",
"199 1063 OFFCURVE",
"217 1043 OFFCURVE",
"262 1043 CURVE SMOOTH",
"910 1043 LINE",
"910 1187 LINE"
);
}
);
width = 1228;
}
);
unicode = 0037;
},
{
glyphname = eight;
lastChange = "2015-01-12 05:49:38 +0000";
layers = (
{
layerId = UUID0;
name = Regular;
paths = (
{
closed = 1;
nodes = (
"402 1209 OFFCURVE",
"247 1064 OFFCURVE",
"247 879 CURVE SMOOTH",
"247 766 OFFCURVE",
"317 680 OFFCURVE",
"410 630 CURVE",
"293 577 OFFCURVE",
"210 476 OFFCURVE",
"210 340 CURVE SMOOTH",
"210 131 OFFCURVE",
"380 -22 OFFCURVE",
"614 -22 CURVE SMOOTH",
"848 -22 OFFCURVE",
"1018 131 OFFCURVE",
"1018 340 CURVE SMOOTH",
"1018 476 OFFCURVE",
"935 577 OFFCURVE",
"817 630 CURVE",
"910 680 OFFCURVE",
"981 766 OFFCURVE",
"981 879 CURVE SMOOTH",
"981 1064 OFFCURVE",
"826 1209 OFFCURVE",
"614 1209 CURVE SMOOTH"
);
},
{
closed = 1;
nodes = (
"761 554 OFFCURVE",
"864 467 OFFCURVE",
"864 341 CURVE SMOOTH",
"864 215 OFFCURVE",
"761 126 OFFCURVE",
"614 126 CURVE SMOOTH",
"467 126 OFFCURVE",
"364 215 OFFCURVE",
"364 341 CURVE SMOOTH",
"364 467 OFFCURVE",
"467 554 OFFCURVE",
"614 554 CURVE SMOOTH"
);
},
{
closed = 1;
nodes = (
"737 1061 OFFCURVE",
"829 990 OFFCURVE",
"829 876 CURVE SMOOTH",
"829 773 OFFCURVE",
"737 693 OFFCURVE",
"614 693 CURVE SMOOTH",
"491 693 OFFCURVE",
"399 773 OFFCURVE",
"399 876 CURVE SMOOTH",
"399 990 OFFCURVE",
"491 1061 OFFCURVE",
"614 1061 CURVE SMOOTH"
);
}
);
width = 1228;
}
);
unicode = 0038;
},
{
glyphname = nine;
lastChange = "2015-01-12 05:49:38 +0000";
layers = (
{
layerId = UUID0;
name = Regular;
paths = (
{
closed = 1;
nodes = (
"355 1209 OFFCURVE",
"194 1051 OFFCURVE",
"194 834 CURVE SMOOTH",
"194 606 OFFCURVE",
"359 456 OFFCURVE",
"580 456 CURVE SMOOTH",
"694 456 OFFCURVE",
"800 506 OFFCURVE",
"870 598 CURVE",
"834 326 OFFCURVE",
"657 144 OFFCURVE",
"290 125 CURVE SMOOTH",
"264 124 OFFCURVE",
"249 104 OFFCURVE",
"254 45 CURVE SMOOTH",
"259 -10 OFFCURVE",
"282 -23 OFFCURVE",
"311 -22 CURVE",
"835 2 OFFCURVE",
"1025 353 OFFCURVE",
"1025 675 CURVE SMOOTH",
"1025 819 OFFCURVE",
"999 928 OFFCURVE",
"949 1014 CURVE SMOOTH",
"873 1144 OFFCURVE",
"744 1209 OFFCURVE",
"602 1209 CURVE SMOOTH"
);
},
{
closed = 1;
nodes = (
"756 1061 OFFCURVE",
"856 960 OFFCURVE",
"856 819 CURVE",
"856 692 OFFCURVE",
"750 604 OFFCURVE",
"602 604 CURVE SMOOTH",
"445 604 OFFCURVE",
"348 695 OFFCURVE",
"348 834 CURVE SMOOTH",
"348 971 OFFCURVE",
"449 1061 OFFCURVE",
"602 1061 CURVE SMOOTH"
);
}
);
width = 1228;
}
);
unicode = 0039;
},
{
glyphname = fraction;
lastChange = "2015-01-12 05:49:38 +0000";
layers = (
{
layerId = UUID0;
name = Regular;
paths = (
{
closed = 1;
nodes = (
"125 289 LINE SMOOTH",
"106 277 OFFCURVE",
"106 250 OFFCURVE",
"125 224 CURVE SMOOTH",
"144 198 OFFCURVE",
"168 190 OFFCURVE",
"185 200 CURVE SMOOTH",
"1103 761 LINE SMOOTH",
"1122 773 OFFCURVE",
"1122 800 OFFCURVE",
"1103 826 CURVE SMOOTH",
"1084 852 OFFCURVE",
"1060 860 OFFCURVE",
"1043 850 CURVE SMOOTH"
);
}
);
width = 1228;
}
);
unicode = 2044;
},
{
glyphname = onehalf;
lastChange = "2015-01-12 05:49:38 +0000";
layers = (
{
background = {
components = (
{
disableAlignment = 1;
name = twosuperior;
transform = "{0.835, 0, 0, 0.834, 429, -619}";
},
{
disableAlignment = 1;
name = fraction;
transform = "{1, 0, 0, 1, 0, 40}";
},
{
disableAlignment = 1;
name = onesuperior;
transform = "{0.835, 0, 0, 0.834, -262, 281}";
}
);
};
layerId = UUID0;
name = Regular;
paths = (
{
closed = 1;
nodes = (
"865 494 OFFCURVE",
"776 473 OFFCURVE",
"706 435 CURVE SMOOTH",
"684 423 OFFCURVE",
"685 395 OFFCURVE",
"695 368 CURVE SMOOTH",
"706 341 OFFCURVE",
"726 323 OFFCURVE",
"751 335 CURVE SMOOTH",
"806 363 OFFCURVE",
"876 386 OFFCURVE",
"936 386 CURVE SMOOTH",
"1020 386 OFFCURVE",
"1064 343 OFFCURVE",
"1064 280 CURVE SMOOTH",
"1064 223 OFFCURVE",
"1033 182 OFFCURVE",
"973 132 CURVE SMOOTH",
"695 -102 LINE SMOOTH",
"679 -115 OFFCURVE",
"669 -132 OFFCURVE",
"669 -156 CURVE SMOOTH",
"669 -194 OFFCURVE",
"682 -216 OFFCURVE",
"709 -216 CURVE SMOOTH",
"1169 -216 LINE SMOOTH",
"1196 -216 OFFCURVE",
"1210 -201 OFFCURVE",
"1210 -164 CURVE SMOOTH",
"1210 -126 OFFCURVE",
"1196 -112 OFFCURVE",
"1169 -112 CURVE SMOOTH",
"846 -112 LINE",
"1045 53 LINE SMOOTH",
"1134 127 OFFCURVE",
"1181 191 OFFCURVE",
"1181 280 CURVE SMOOTH",
"1181 409 OFFCURVE",
"1092 494 OFFCURVE",
"943 494 CURVE SMOOTH"
);
},
{
closed = 1;
nodes = (
"125 329 LINE SMOOTH",
"106 317 OFFCURVE",
"106 290 OFFCURVE",
"125 264 CURVE SMOOTH",
"144 238 OFFCURVE",
"168 230 OFFCURVE",
"185 240 CURVE SMOOTH",
"1103 801 LINE SMOOTH",
"1122 813 OFFCURVE",
"1122 840 OFFCURVE",
"1103 866 CURVE SMOOTH",
"1084 892 OFFCURVE",
"1060 900 OFFCURVE",
"1043 890 CURVE SMOOTH"
);
},
{
closed = 1;
nodes = (
"213 788 LINE",
"43 788 LINE SMOOTH",
"16 788 OFFCURVE",
"1 774 OFFCURVE",
"1 736 CURVE SMOOTH",
"1 699 OFFCURVE",
"16 684 OFFCURVE",
"43 684 CURVE SMOOTH",
"488 684 LINE SMOOTH",
"515 684 OFFCURVE",
"529 699 OFFCURVE",
"529 736 CURVE SMOOTH",
"529 774 OFFCURVE",
"515 788 OFFCURVE",
"488 788 CURVE SMOOTH",
"326 788 LINE",
"326 1359 LINE SMOOTH",
"326 1390 OFFCURVE",
"299 1399 OFFCURVE",
"271 1390 CURVE SMOOTH",
"34 1314 LINE SMOOTH",
"3 1304 OFFCURVE",
"-1 1283 OFFCURVE",
"9 1251 CURVE SMOOTH",
"21 1218 OFFCURVE",
"39 1207 OFFCURVE",
"68 1217 CURVE SMOOTH",
"213 1264 LINE"
);
}
);
width = 1228;
}
);
unicode = 00BD;
},
{
glyphname = onequarter;
lastChange = "2015-01-12 05:49:38 +0000";
layers = (
{
background = {
components = (
{
disableAlignment = 1;
name = foursuperior;
transform = "{0.835, 0, 0, 0.835, 428, -619}";
},
{
disableAlignment = 1;
name = fraction;
transform = "{1, 0, 0, 1, 0, -10}";
},
{
disableAlignment = 1;
name = onesuperior;
transform = "{0.835, 0, 0, 0.834, -262, 281}";
}
);
};
layerId = UUID0;
name = Regular;
paths = (
{
closed = 1;
nodes = (
"998 495 OFFCURVE",
"980 482 OFFCURVE",
"961 458 CURVE SMOOTH",
"644 81 LINE",
"634 67 OFFCURVE",
"630 56 OFFCURVE",
"630 36 CURVE SMOOTH",
"630 -9 OFFCURVE",
"649 -29 OFFCURVE",
"675 -29 CURVE SMOOTH",
"1193 -29 LINE SMOOTH",
"1219 -29 OFFCURVE",
"1233 -14 OFFCURVE",
"1233 24 CURVE SMOOTH",
"1233 62 OFFCURVE",
"1219 76 OFFCURVE",
"1193 76 CURVE SMOOTH",
"773 76 LINE",
"994 342 LINE",
"989 76 LINE",
"989 -182 LINE SMOOTH",
"989 -208 OFFCURVE",
"1005 -222 OFFCURVE",
"1046 -222 CURVE SMOOTH",
"1088 -222 OFFCURVE",
"1102 -208 OFFCURVE",
"1102 -182 CURVE SMOOTH",
"1102 448 LINE SMOOTH",
"1102 476 OFFCURVE",
"1065 495 OFFCURVE",
"1028 495 CURVE SMOOTH"
);
},
{
closed = 1;
nodes = (
"125 279 LINE SMOOTH",
"106 267 OFFCURVE",
"106 240 OFFCURVE",
"125 214 CURVE SMOOTH",
"144 188 OFFCURVE",
"168 180 OFFCURVE",
"185 190 CURVE SMOOTH",
"1103 751 LINE SMOOTH",
"1122 763 OFFCURVE",
"1122 790 OFFCURVE",
"1103 816 CURVE SMOOTH",
"1084 842 OFFCURVE",
"1060 850 OFFCURVE",
"1043 840 CURVE SMOOTH"
);
},
{
closed = 1;
nodes = (
"213 788 LINE",
"43 788 LINE SMOOTH",
"16 788 OFFCURVE",
"1 774 OFFCURVE",
"1 736 CURVE SMOOTH",
"1 699 OFFCURVE",
"16 684 OFFCURVE",
"43 684 CURVE SMOOTH",
"488 684 LINE SMOOTH",
"515 684 OFFCURVE",
"529 699 OFFCURVE",
"529 736 CURVE SMOOTH",
"529 774 OFFCURVE",
"515 788 OFFCURVE",
"488 788 CURVE SMOOTH",
"326 788 LINE",
"326 1359 LINE SMOOTH",
"326 1390 OFFCURVE",
"299 1399 OFFCURVE",
"271 1390 CURVE SMOOTH",
"34 1314 LINE SMOOTH",
"3 1304 OFFCURVE",
"-1 1283 OFFCURVE",
"9 1251 CURVE SMOOTH",
"21 1218 OFFCURVE",
"39 1207 OFFCURVE",
"68 1217 CURVE SMOOTH",
"213 1264 LINE"
);
}
);
width = 1228;
}
);
unicode = 00BC;
},
{
glyphname = threequarters;
lastChange = "2015-01-12 05:49:38 +0000";
layers = (
{
background = {
components = (
{
disableAlignment = 1;
name = threesuperior;
transform = "{0.835, 0, 0, 0.834, -231, 281}";
},
{
disableAlignment = 1;
name = foursuperior;
transform = "{0.835, 0, 0, 0.835, 428, -619}";
},
{
disableAlignment = 1;
name = fraction;
transform = "{1, 0, 0, 1, 0, 0}";
}
);
};
layerId = UUID0;
name = Regular;
paths = (
{
closed = 1;
nodes = (
"195 1394 OFFCURVE",
"112 1375 OFFCURVE",
"47 1340 CURVE SMOOTH",
"25 1329 OFFCURVE",
"25 1302 OFFCURVE",
"35 1275 CURVE SMOOTH",
"50 1239 OFFCURVE",
"71 1229 OFFCURVE",
"92 1240 CURVE SMOOTH",
"146 1268 OFFCURVE",
"204 1286 OFFCURVE",
"264 1286 CURVE SMOOTH",
"349 1286 OFFCURVE",
"403 1253 OFFCURVE",
"403 1187 CURVE SMOOTH",
"403 1114 OFFCURVE",
"351 1086 OFFCURVE",
"261 1086 CURVE SMOOTH",
"228 1086 LINE SMOOTH",
"202 1086 OFFCURVE",
"192 1062 OFFCURVE",
"192 1033 CURVE SMOOTH",
"192 1003 OFFCURVE",
"202 982 OFFCURVE",
"228 982 CURVE SMOOTH",
"272 982 LINE SMOOTH",
"363 982 OFFCURVE",
"425 959 OFFCURVE",
"425 881 CURVE SMOOTH",
"425 814 OFFCURVE",
"368 776 OFFCURVE",
"268 776 CURVE SMOOTH",
"206 776 OFFCURVE",
"139 796 OFFCURVE",
"85 823 CURVE SMOOTH",
"60 836 OFFCURVE",
"40 818 OFFCURVE",
"28 788 CURVE SMOOTH",
"18 761 OFFCURVE",
"16 736 OFFCURVE",
"40 723 CURVE SMOOTH",
"108 685 OFFCURVE",
"196 669 OFFCURVE",
"274 669 CURVE SMOOTH",
"454 669 OFFCURVE",
"542 752 OFFCURVE",
"542 881 CURVE SMOOTH",
"542 965 OFFCURVE",
"497 1020 OFFCURVE",
"426 1044 CURVE",
"485 1076 OFFCURVE",
"520 1125 OFFCURVE",
"520 1195 CURVE SMOOTH",
"520 1312 OFFCURVE",
"427 1394 OFFCURVE",
"273 1394 CURVE SMOOTH"
);
},
{
closed = 1;
nodes = (
"998 495 OFFCURVE",
"980 482 OFFCURVE",
"961 458 CURVE SMOOTH",
"644 81 LINE",
"634 67 OFFCURVE",
"630 56 OFFCURVE",
"630 36 CURVE SMOOTH",
"630 -9 OFFCURVE",
"649 -29 OFFCURVE",
"675 -29 CURVE SMOOTH",
"1193 -29 LINE SMOOTH",
"1219 -29 OFFCURVE",
"1233 -14 OFFCURVE",
"1233 24 CURVE SMOOTH",
"1233 62 OFFCURVE",
"1219 76 OFFCURVE",
"1193 76 CURVE SMOOTH",
"773 76 LINE",
"994 342 LINE",
"989 76 LINE",
"989 -182 LINE SMOOTH",
"989 -208 OFFCURVE",
"1005 -222 OFFCURVE",
"1046 -222 CURVE SMOOTH",
"1088 -222 OFFCURVE",
"1102 -208 OFFCURVE",
"1102 -182 CURVE SMOOTH",
"1102 448 LINE SMOOTH",
"1102 476 OFFCURVE",
"1065 495 OFFCURVE",
"1028 495 CURVE SMOOTH"
);
},
{
closed = 1;
nodes = (
"125 289 LINE SMOOTH",
"106 277 OFFCURVE",
"106 250 OFFCURVE",
"125 224 CURVE SMOOTH",
"144 198 OFFCURVE",
"168 190 OFFCURVE",
"185 200 CURVE SMOOTH",
"1103 761 LINE SMOOTH",
"1122 773 OFFCURVE",
"1122 800 OFFCURVE",
"1103 826 CURVE SMOOTH",
"1084 852 OFFCURVE",
"1060 860 OFFCURVE",
"1043 850 CURVE SMOOTH"
);
}
);
width = 1228;
}
);
unicode = 00BE;
},
{
glyphname = onesuperior;
lastChange = "2015-01-12 05:49:38 +0000";
layers = (
{
layerId = UUID0;
name = Regular;
paths = (
{
closed = 1;
nodes = (
"569 608 LINE",
"365 608 LINE SMOOTH",
"333 608 OFFCURVE",
"315 591 OFFCURVE",
"315 546 CURVE SMOOTH",
"315 501 OFFCURVE",
"333 483 OFFCURVE",
"365 483 CURVE SMOOTH",
"898 483 LINE SMOOTH",
"930 483 OFFCURVE",
"947 501 OFFCURVE",
"947 546 CURVE SMOOTH",
"947 591 OFFCURVE",
"930 608 OFFCURVE",
"898 608 CURVE SMOOTH",
"704 608 LINE",
"704 1292 LINE SMOOTH",
"704 1330 OFFCURVE",
"672 1341 OFFCURVE",
"638 1330 CURVE SMOOTH",
"354 1239 LINE SMOOTH",
"317 1227 OFFCURVE",
"312 1201 OFFCURVE",
"325 1163 CURVE SMOOTH",
"339 1123 OFFCURVE",
"360 1110 OFFCURVE",
"395 1122 CURVE SMOOTH",
"569 1179 LINE"
);
}
);
width = 1228;
}
);
unicode = 00B9;
},
{
glyphname = twosuperior;
lastChange = "2015-01-12 05:49:38 +0000";
layers = (
{
layerId = UUID0;
name = Regular;
paths = (
{
closed = 1;
nodes = (
"522 1334 OFFCURVE",
"415 1309 OFFCURVE",
"332 1264 CURVE SMOOTH",
"305 1249 OFFCURVE",
"306 1216 OFFCURVE",
"319 1184 CURVE SMOOTH",
"332 1151 OFFCURVE",
"356 1129 OFFCURVE",
"386 1144 CURVE SMOOTH",
"451 1177 OFFCURVE",
"535 1205 OFFCURVE",
"607 1205 CURVE SMOOTH",
"708 1205 OFFCURVE",
"761 1154 OFFCURVE",
"761 1078 CURVE SMOOTH",
"761 1010 OFFCURVE",
"723 961 OFFCURVE",
"651 900 CURVE SMOOTH",
"319 620 LINE SMOOTH",
"300 604 OFFCURVE",
"288 584 OFFCURVE",
"288 555 CURVE SMOOTH",
"288 509 OFFCURVE",
"303 483 OFFCURVE",
"335 483 CURVE SMOOTH",
"886 483 LINE SMOOTH",
"918 483 OFFCURVE",
"935 501 OFFCURVE",
"935 546 CURVE SMOOTH",
"935 591 OFFCURVE",
"918 608 OFFCURVE",
"886 608 CURVE SMOOTH",
"499 608 LINE",
"738 806 LINE SMOOTH",
"844 894 OFFCURVE",
"901 971 OFFCURVE",
"901 1078 CURVE SMOOTH",
"901 1233 OFFCURVE",
"794 1334 OFFCURVE",
"616 1334 CURVE SMOOTH"
);
}
);
width = 1228;
}
);
unicode = 00B2;
},
{
glyphname = threesuperior;
lastChange = "2015-01-12 05:49:38 +0000";
layers = (
{
layerId = UUID0;
name = Regular;
paths = (
{
closed = 1;
nodes = (
"510 1334 OFFCURVE",
"411 1312 OFFCURVE",
"333 1270 CURVE SMOOTH",
"307 1256 OFFCURVE",
"306 1224 OFFCURVE",
"319 1192 CURVE SMOOTH",
"336 1149 OFFCURVE",
"362 1137 OFFCURVE",
"387 1150 CURVE SMOOTH",
"452 1183 OFFCURVE",
"521 1205 OFFCURVE",
"593 1205 CURVE SMOOTH",
"695 1205 OFFCURVE",
"759 1165 OFFCURVE",
"759 1086 CURVE SMOOTH",
"759 999 OFFCURVE",
"697 965 OFFCURVE",
"589 965 CURVE SMOOTH",
"550 965 LINE SMOOTH",
"518 965 OFFCURVE",
"506 937 OFFCURVE",
"506 902 CURVE SMOOTH",
"506 866 OFFCURVE",
"518 840 OFFCURVE",
"550 840 CURVE SMOOTH",
"602 840 LINE SMOOTH",
"711 840 OFFCURVE",
"786 813 OFFCURVE",
"786 720 CURVE SMOOTH",
"786 639 OFFCURVE",
"717 594 OFFCURVE",
"598 594 CURVE SMOOTH",
"523 594 OFFCURVE",
"443 617 OFFCURVE",
"378 650 CURVE SMOOTH",
"349 665 OFFCURVE",
"324 644 OFFCURVE",
"310 608 CURVE SMOOTH",
"298 576 OFFCURVE",
"296 545 OFFCURVE",
"324 530 CURVE SMOOTH",
"406 485 OFFCURVE",
"511 465 OFFCURVE",
"605 465 CURVE SMOOTH",
"820 465 OFFCURVE",
"926 565 OFFCURVE",
"926 719 CURVE SMOOTH",
"926 820 OFFCURVE",
"872 886 OFFCURVE",
"787 915 CURVE",
"858 953 OFFCURVE",
"899 1012 OFFCURVE",
"899 1096 CURVE SMOOTH",
"899 1236 OFFCURVE",
"788 1334 OFFCURVE",
"604 1334 CURVE SMOOTH"
);
}
);
width = 1228;
}
);
unicode = 00B3;
},
{
glyphname = foursuperior;
lastChange = "2015-01-12 05:49:38 +0000";
layers = (
{
layerId = UUID0;
name = Regular;
paths = (
{
closed = 1;
nodes = (
"683 1334 OFFCURVE",
"661 1318 OFFCURVE",
"638 1290 CURVE SMOOTH",
"259 838 LINE",
"247 822 OFFCURVE",
"242 808 OFFCURVE",
"242 785 CURVE SMOOTH",
"242 730 OFFCURVE",
"265 707 OFFCURVE",
"296 707 CURVE SMOOTH",
"916 707 LINE SMOOTH",
"947 707 OFFCURVE",
"964 725 OFFCURVE",
"964 770 CURVE SMOOTH",
"964 815 OFFCURVE",
"947 832 OFFCURVE",
"916 832 CURVE SMOOTH",
"413 832 LINE",
"678 1151 LINE",
"672 832 LINE",
"672 523 LINE SMOOTH",
"672 492 OFFCURVE",
"691 475 OFFCURVE",
"740 475 CURVE SMOOTH",
"790 475 OFFCURVE",
"807 492 OFFCURVE",
"807 523 CURVE SMOOTH",
"807 1278 LINE SMOOTH",
"807 1311 OFFCURVE",
"763 1334 OFFCURVE",
"719 1334 CURVE SMOOTH"
);
}
);
width = 1228;
}
);
unicode = 2074;
},
{
glyphname = ellipsis.alt1;
lastChange = "2015-01-12 05:49:38 +0000";
layers = (
{
layerId = UUID0;
name = Regular;
paths = (
{
closed = 1;
nodes = (
"-455 54 OFFCURVE",
"-379 -22 OFFCURVE",
"-286 -22 CURVE SMOOTH",
"-193 -22 OFFCURVE",
"-117 54 OFFCURVE",
"-117 147 CURVE SMOOTH",
"-117 240 OFFCURVE",
"-193 316 OFFCURVE",
"-286 316 CURVE SMOOTH",
"-379 316 OFFCURVE",
"-455 240 OFFCURVE",
"-455 147 CURVE SMOOTH"
);
},
{
closed = 1;
nodes = (
"445 54 OFFCURVE",
"521 -22 OFFCURVE",
"614 -22 CURVE SMOOTH",
"707 -22 OFFCURVE",
"783 54 OFFCURVE",
"783 147 CURVE SMOOTH",
"783 240 OFFCURVE",
"707 316 OFFCURVE",
"614 316 CURVE SMOOTH",
"521 316 OFFCURVE",
"445 240 OFFCURVE",
"445 147 CURVE SMOOTH"
);
},
{
closed = 1;
nodes = (
"1345 54 OFFCURVE",
"1421 -22 OFFCURVE",
"1514 -22 CURVE SMOOTH",
"1607 -22 OFFCURVE",
"1683 54 OFFCURVE",
"1683 147 CURVE SMOOTH",
"1683 240 OFFCURVE",
"1607 316 OFFCURVE",
"1514 316 CURVE SMOOTH",
"1421 316 OFFCURVE",
"1345 240 OFFCURVE",
"1345 147 CURVE SMOOTH"
);
}
);
width = 1228;
}
);
},
{
glyphname = ellipsis.alt2;
lastChange = "2015-01-12 05:49:38 +0000";
layers = (
{
layerId = UUID0;
name = Regular;
paths = (
{
closed = 1;
nodes = (
"773 54 OFFCURVE",
"849 -22 OFFCURVE",
"942 -22 CURVE SMOOTH",
"1035 -22 OFFCURVE",
"1111 54 OFFCURVE",
"1111 147 CURVE SMOOTH",
"1111 240 OFFCURVE",
"1035 316 OFFCURVE",
"942 316 CURVE SMOOTH",
"849 316 OFFCURVE",
"773 240 OFFCURVE",
"773 147 CURVE SMOOTH"
);
},
{
closed = 1;
nodes = (
"1673 54 OFFCURVE",
"1749 -22 OFFCURVE",
"1842 -22 CURVE SMOOTH",
"1935 -22 OFFCURVE",
"2011 54 OFFCURVE",
"2011 147 CURVE SMOOTH",
"2011 240 OFFCURVE",
"1935 316 OFFCURVE",
"1842 316 CURVE SMOOTH",
"1749 316 OFFCURVE",
"1673 240 OFFCURVE",
"1673 147 CURVE SMOOTH"
);
},
{
closed = 1;
nodes = (
"2573 54 OFFCURVE",
"2649 -22 OFFCURVE",
"2742 -22 CURVE SMOOTH",
"2835 -22 OFFCURVE",
"2911 54 OFFCURVE",
"2911 147 CURVE SMOOTH",
"2911 240 OFFCURVE",
"2835 316 OFFCURVE",
"2742 316 CURVE SMOOTH",
"2649 316 OFFCURVE",
"2573 240 OFFCURVE",
"2573 147 CURVE SMOOTH"
);
}
);
width = 3684;
}
);
},
{
glyphname = ellipsis.alt3;
lastChange = "2015-01-12 05:49:38 +0000";
layers = (
{
layerId = UUID0;
name = Regular;
paths = (
{
closed = 1;
nodes = (
"1422 244 OFFCURVE",
"1362 184 OFFCURVE",
"1362 111 CURVE SMOOTH",
"1362 38 OFFCURVE",
"1422 -22 OFFCURVE",
"1495 -22 CURVE SMOOTH",
"1568 -22 OFFCURVE",
"1628 38 OFFCURVE",
"1628 111 CURVE SMOOTH",
"1628 184 OFFCURVE",
"1568 244 OFFCURVE",
"1495 244 CURVE SMOOTH"
);
},
{
closed = 1;
nodes = (
"340 244 OFFCURVE",
"280 184 OFFCURVE",
"280 111 CURVE SMOOTH",
"280 38 OFFCURVE",
"340 -22 OFFCURVE",
"413 -22 CURVE SMOOTH",
"486 -22 OFFCURVE",
"546 38 OFFCURVE",
"546 111 CURVE SMOOTH",
"546 184 OFFCURVE",
"486 244 OFFCURVE",
"413 244 CURVE SMOOTH"
);
},
{
closed = 1;
nodes = (
"881 244 OFFCURVE",
"821 184 OFFCURVE",
"821 111 CURVE SMOOTH",
"821 38 OFFCURVE",
"881 -22 OFFCURVE",
"954 -22 CURVE SMOOTH",
"1027 -22 OFFCURVE",
"1087 38 OFFCURVE",
"1087 111 CURVE SMOOTH",
"1087 184 OFFCURVE",
"1027 244 OFFCURVE",
"954 244 CURVE SMOOTH"
);
}
);
width = 1228;
}
);
},
{
glyphname = ellipsis.alt4;
lastChange = "2015-01-12 05:49:38 +0000";
layers = (
{
layerId = UUID0;
name = Regular;
paths = (
{
closed = 1;
nodes = (
"942 244 OFFCURVE",
"882 184 OFFCURVE",
"882 111 CURVE SMOOTH",
"882 38 OFFCURVE",
"942 -22 OFFCURVE",
"1015 -22 CURVE SMOOTH",
"1088 -22 OFFCURVE",
"1148 38 OFFCURVE",
"1148 111 CURVE SMOOTH",
"1148 184 OFFCURVE",
"1088 244 OFFCURVE",
"1015 244 CURVE SMOOTH"
);
},
{
closed = 1;
nodes = (
"-420 244 OFFCURVE",
"-480 184 OFFCURVE",
"-480 111 CURVE SMOOTH",
"-480 38 OFFCURVE",
"-420 -22 OFFCURVE",
"-347 -22 CURVE SMOOTH",
"-274 -22 OFFCURVE",
"-214 38 OFFCURVE",
"-214 111 CURVE SMOOTH",
"-214 184 OFFCURVE",
"-274 244 OFFCURVE",
"-347 244 CURVE SMOOTH"
);
},
{
closed = 1;
nodes = (
"261 244 OFFCURVE",
"201 184 OFFCURVE",
"201 111 CURVE SMOOTH",
"201 38 OFFCURVE",
"261 -22 OFFCURVE",
"334 -22 CURVE SMOOTH",
"407 -22 OFFCURVE",
"467 38 OFFCURVE",
"467 111 CURVE SMOOTH",
"467 184 OFFCURVE",
"407 244 OFFCURVE",
"334 244 CURVE SMOOTH"
);
}
);
width = 1228;
}
);
},
{
glyphname = ellipsis.alt5;
lastChange = "2015-01-12 05:49:38 +0000";
layers = (
{
layerId = UUID0;
name = Regular;
paths = (
{
closed = 1;
nodes = (
"773 54 OFFCURVE",
"849 -22 OFFCURVE",
"942 -22 CURVE SMOOTH",
"1035 -22 OFFCURVE",
"1111 54 OFFCURVE",
"1111 147 CURVE SMOOTH",
"1111 240 OFFCURVE",
"1035 316 OFFCURVE",
"942 316 CURVE SMOOTH",
"849 316 OFFCURVE",
"773 240 OFFCURVE",
"773 147 CURVE SMOOTH"
);
},
{
closed = 1;
nodes = (
"1823 54 OFFCURVE",
"1899 -22 OFFCURVE",
"1992 -22 CURVE SMOOTH",
"2085 -22 OFFCURVE",
"2161 54 OFFCURVE",
"2161 147 CURVE SMOOTH",
"2161 240 OFFCURVE",
"2085 316 OFFCURVE",
"1992 316 CURVE SMOOTH",
"1899 316 OFFCURVE",
"1823 240 OFFCURVE",
"1823 147 CURVE SMOOTH"
);
},
{
closed = 1;
nodes = (
"2873 54 OFFCURVE",
"2949 -22 OFFCURVE",
"3042 -22 CURVE SMOOTH",
"3135 -22 OFFCURVE",
"3211 54 OFFCURVE",
"3211 147 CURVE SMOOTH",
"3211 240 OFFCURVE",
"3135 316 OFFCURVE",
"3042 316 CURVE SMOOTH",
"2949 316 OFFCURVE",
"2873 240 OFFCURVE",
"2873 147 CURVE SMOOTH"
);
}
);
width = 3684;
}
);
},
{
glyphname = asterisk;
lastChange = "2015-01-12 05:51:54 +0000";
layers = (
{
layerId = UUID0;
name = Regular;
paths = (
{
closed = 1;
nodes = (
"1135 701 OFFCURVE",
"1108 660 OFFCURVE",
"1050 647 CURVE SMOOTH",
"562 548 LINE",
"539 616 LINE",
"995 824 LINE SMOOTH",
"1049 848 OFFCURVE",
"1094 829 OFFCURVE",
"1115 765 CURVE SMOOTH"
);
},
{
closed = 1;
nodes = (
"243 207 OFFCURVE",
"239 254 OFFCURVE",
"279 298 CURVE SMOOTH",
"623 678 LINE",
"682 634 LINE",
"431 194 LINE SMOOTH",
"400 143 OFFCURVE",
"353 128 OFFCURVE",
"298 167 CURVE SMOOTH"
);
},
{
closed = 1;
nodes = (
"681 1127 OFFCURVE",
"713 1089 OFFCURVE",
"707 1030 CURVE SMOOTH",
"649 536 LINE",
"578 536 LINE",
"521 1030 LINE SMOOTH",
"514 1089 OFFCURVE",
"547 1127 OFFCURVE",
"614 1127 CURVE SMOOTH"
);
},
{
closed = 1;
nodes = (
"133 829 OFFCURVE",
"179 848 OFFCURVE",
"233 824 CURVE SMOOTH",
"688 616 LINE",
"666 548 LINE",
"177 647 LINE SMOOTH",
"119 660 OFFCURVE",
"92 701 OFFCURVE",
"113 765 CURVE SMOOTH"
);
},
{
closed = 1;
nodes = (
"875 127 OFFCURVE",
"827 143 OFFCURVE",
"797 194 CURVE SMOOTH",
"545 634 LINE",
"604 678 LINE",
"948 298 LINE SMOOTH",
"988 254 OFFCURVE",
"984 206 OFFCURVE",
"930 167 CURVE SMOOTH"
);
}
);
width = 1228;
}
);
unicode = 002A;
},
{
color = 3;
glyphname = backslash;
lastChange = "2015-01-14 20:53:32 +0000";
layers = (
{
layerId = UUID0;
name = Regular;
paths = (
{
closed = 1;
nodes = (
"227 1394 OFFCURVE",
"185 1364 OFFCURVE",
"201 1324 CURVE SMOOTH",
"873 -319 LINE SMOOTH",
"882 -340 OFFCURVE",
"906 -355 OFFCURVE",
"938 -355 CURVE SMOOTH",
"1001 -355 OFFCURVE",
"1043 -325 OFFCURVE",
"1027 -285 CURVE SMOOTH",
"355 1358 LINE SMOOTH",
"346 1379 OFFCURVE",
"322 1394 OFFCURVE",
"290 1394 CURVE SMOOTH"
);
}
);
width = 1228;
}
);
unicode = 005C;
},
{
color = 8;
glyphname = bullet;
lastChange = "2015-01-12 05:49:38 +0000";
layers = (
{
background = {
paths = (
{
closed = 1;
nodes = (
"350 453 OFFCURVE",
"468 335 OFFCURVE",
"614 335 CURVE SMOOTH",
"760 335 OFFCURVE",
"878 453 OFFCURVE",
"878 599 CURVE SMOOTH",
"878 745 OFFCURVE",
"760 863 OFFCURVE",
"614 863 CURVE SMOOTH",
"468 863 OFFCURVE",
"350 745 OFFCURVE",
"350 599 CURVE SMOOTH"
);
}
);
};
layerId = UUID0;
name = Regular;
paths = (
{
closed = 1;
nodes = (
"451 853 OFFCURVE",
"382 825 OFFCURVE",
"382 755 CURVE SMOOTH",
"382 453 LINE SMOOTH",
"382 383 OFFCURVE",
"451 355 OFFCURVE",
"614 355 CURVE SMOOTH",
"777 355 OFFCURVE",
"846 383 OFFCURVE",
"846 453 CURVE SMOOTH",
"846 755 LINE SMOOTH",
"846 825 OFFCURVE",
"777 853 OFFCURVE",
"614 853 CURVE SMOOTH"
);
}
);
width = 1228;
}
);
unicode = 2022;
},
{
glyphname = colon;
lastChange = "2015-01-12 05:49:38 +0000";
layers = (
{
background = {
paths = (
{
closed = 1;
nodes = (
"445 54 OFFCURVE",
"521 -22 OFFCURVE",
"614 -22 CURVE SMOOTH",
"707 -22 OFFCURVE",
"783 54 OFFCURVE",
"783 147 CURVE SMOOTH",
"783 240 OFFCURVE",
"707 316 OFFCURVE",
"614 316 CURVE SMOOTH",
"521 316 OFFCURVE",
"445 240 OFFCURVE",
"445 147 CURVE SMOOTH"
);
},
{
closed = 1;
nodes = (
"445 684 OFFCURVE",
"521 608 OFFCURVE",
"614 608 CURVE SMOOTH",
"707 608 OFFCURVE",
"783 684 OFFCURVE",
"783 777 CURVE SMOOTH",
"783 870 OFFCURVE",
"707 946 OFFCURVE",
"614 946 CURVE SMOOTH",
"521 946 OFFCURVE",
"445 870 OFFCURVE",
"445 777 CURVE SMOOTH"
);
}
);
};
components = (
{
name = period.squat;
transform = "{1, 0, 0, 1, 0, 0}";
},
{
name = period.squat;
transform = "{1, 0, 0, 1, 0, 634}";
}
);
layerId = UUID0;
name = Regular;
width = 1228;
}
);
unicode = 003A;
},
{
glyphname = comma;
lastChange = "2015-01-12 05:49:38 +0000";
layers = (
{
layerId = UUID0;
name = Regular;
paths = (
{
closed = 1;
nodes = (
"520 294 LINE SMOOTH",
"492 294 OFFCURVE",
"473 280 OFFCURVE",
"468 254 CURVE SMOOTH",
"374 -228 LINE SMOOTH",
"366 -270 OFFCURVE",
"388 -294 OFFCURVE",
"444 -294 CURVE SMOOTH",
"490 -294 OFFCURVE",
"518 -281 OFFCURVE",
"530 -253 CURVE SMOOTH",
"742 231 LINE SMOOTH",
"757 266 OFFCURVE",
"747 294 OFFCURVE",
"714 294 CURVE SMOOTH"
);
}
);
width = 1228;
}
);
unicode = 002C;
},
{
glyphname = ellipsis;
lastChange = "2015-01-12 05:49:38 +0000";
layers = (
{
background = {
paths = (
{
closed = 1;
nodes = (
"942 244 OFFCURVE",
"882 184 OFFCURVE",
"882 111 CURVE SMOOTH",
"882 38 OFFCURVE",
"942 -22 OFFCURVE",
"1015 -22 CURVE SMOOTH",
"1088 -22 OFFCURVE",
"1148 38 OFFCURVE",
"1148 111 CURVE SMOOTH",
"1148 184 OFFCURVE",
"1088 244 OFFCURVE",
"1015 244 CURVE SMOOTH"
);
},
{
closed = 1;
nodes = (
"140 244 OFFCURVE",
"80 184 OFFCURVE",
"80 111 CURVE SMOOTH",
"80 38 OFFCURVE",
"140 -22 OFFCURVE",
"213 -22 CURVE SMOOTH",
"286 -22 OFFCURVE",
"346 38 OFFCURVE",
"346 111 CURVE SMOOTH",
"346 184 OFFCURVE",
"286 244 OFFCURVE",
"213 244 CURVE SMOOTH"
);
},
{
closed = 1;
nodes = (
"541 244 OFFCURVE",
"481 184 OFFCURVE",
"481 111 CURVE SMOOTH",
"481 38 OFFCURVE",
"541 -22 OFFCURVE",
"614 -22 CURVE SMOOTH",
"687 -22 OFFCURVE",
"747 38 OFFCURVE",
"747 111 CURVE SMOOTH",
"747 184 OFFCURVE",
"687 244 OFFCURVE",
"614 244 CURVE SMOOTH"
);
}
);
};
layerId = UUID0;
name = Regular;
paths = (
{
closed = 1;
nodes = (
"940 230 OFFCURVE",
"909 215 OFFCURVE",
"909 177 CURVE SMOOTH",
"909 43 LINE SMOOTH",
"909 5 OFFCURVE",
"940 -10 OFFCURVE",
"1014 -10 CURVE SMOOTH",
"1088 -10 OFFCURVE",
"1119 5 OFFCURVE",
"1119 43 CURVE SMOOTH",
"1119 177 LINE SMOOTH",
"1119 215 OFFCURVE",
"1088 230 OFFCURVE",
"1014 230 CURVE SMOOTH"
);
},
{
closed = 1;
nodes = (
"140 230 OFFCURVE",
"109 215 OFFCURVE",
"109 177 CURVE SMOOTH",
"109 43 LINE SMOOTH",
"109 5 OFFCURVE",
"140 -10 OFFCURVE",
"214 -10 CURVE SMOOTH",
"288 -10 OFFCURVE",
"319 5 OFFCURVE",
"319 43 CURVE SMOOTH",
"319 177 LINE SMOOTH",
"319 215 OFFCURVE",
"288 230 OFFCURVE",
"214 230 CURVE SMOOTH"
);
},
{
closed = 1;
nodes = (
"540 230 OFFCURVE",
"509 215 OFFCURVE",
"509 177 CURVE SMOOTH",
"509 43 LINE SMOOTH",
"509 5 OFFCURVE",
"540 -10 OFFCURVE",
"614 -10 CURVE SMOOTH",
"688 -10 OFFCURVE",
"719 5 OFFCURVE",
"719 43 CURVE SMOOTH",
"719 177 LINE SMOOTH",
"719 215 OFFCURVE",
"688 230 OFFCURVE",
"614 230 CURVE SMOOTH"
);
}
);
width = 1228;
}
);
unicode = 2026;
},
{
color = 8;
glyphname = exclam;
lastChange = "2015-01-14 20:53:44 +0000";
layers = (
{
layerId = UUID0;
name = Regular;
paths = (
{
closed = 1;
nodes = (
"549 1269 LINE SMOOTH",
"519 1269 OFFCURVE",
"505 1254 OFFCURVE",
"508 1219 CURVE SMOOTH",
"556 512 LINE SMOOTH",
"558 481 OFFCURVE",
"580 464 OFFCURVE",
"614 464 CURVE SMOOTH",
"649 464 OFFCURVE",
"669 481 OFFCURVE",
"671 512 CURVE SMOOTH",
"720 1219 LINE SMOOTH",
"723 1254 OFFCURVE",
"709 1269 OFFCURVE",
"679 1269 CURVE SMOOTH"
);
},
{
closed = 1;
nodes = (
"526 270 OFFCURVE",
"489 252 OFFCURVE",
"489 207 CURVE SMOOTH",
"489 53 LINE SMOOTH",
"489 8 OFFCURVE",
"526 -10 OFFCURVE",
"614 -10 CURVE SMOOTH",
"702 -10 OFFCURVE",
"739 8 OFFCURVE",
"739 53 CURVE SMOOTH",
"739 207 LINE SMOOTH",
"739 252 OFFCURVE",
"702 270 OFFCURVE",
"614 270 CURVE SMOOTH"
);
}
);
width = 1228;
}
);
unicode = 0021;
},
{
color = 3;
glyphname = numbersign;
lastChange = "2015-01-14 20:54:01 +0000";
layers = (
{
layerId = UUID0;
name = Regular;
paths = (
{
closed = 1;
nodes = (
"926 1209 OFFCURVE",
"902 1199 OFFCURVE",
"896 1176 CURVE SMOOTH",
"602 45 LINE SMOOTH",
"591 3 OFFCURVE",
"633 -22 OFFCURVE",
"672 -22 CURVE SMOOTH",
"696 -22 OFFCURVE",
"720 -12 OFFCURVE",
"726 11 CURVE SMOOTH",
"1020 1142 LINE SMOOTH",
"1031 1184 OFFCURVE",
"989 1209 OFFCURVE",
"950 1209 CURVE SMOOTH"
);
},
{
closed = 1;
nodes = (
"123 476 LINE SMOOTH",
"78 476 OFFCURVE",
"60 456 OFFCURVE",
"60 404 CURVE SMOOTH",
"60 352 OFFCURVE",
"78 332 OFFCURVE",
"123 332 CURVE SMOOTH",
"1035 332 LINE SMOOTH",
"1080 332 OFFCURVE",
"1098 352 OFFCURVE",
"1098 404 CURVE SMOOTH",
"1098 456 OFFCURVE",
"1080 476 OFFCURVE",
"1035 476 CURVE SMOOTH"
);
},
{
closed = 1;
nodes = (
"532 1209 OFFCURVE",
"508 1199 OFFCURVE",
"502 1176 CURVE SMOOTH",
"208 45 LINE SMOOTH",
"197 3 OFFCURVE",
"239 -22 OFFCURVE",
"278 -22 CURVE SMOOTH",
"302 -22 OFFCURVE",
"326 -12 OFFCURVE",
"332 11 CURVE SMOOTH",
"626 1142 LINE SMOOTH",
"637 1184 OFFCURVE",
"595 1209 OFFCURVE",
"556 1209 CURVE SMOOTH"
);
},
{
closed = 1;
nodes = (
"193 865 LINE SMOOTH",
"148 865 OFFCURVE",
"130 845 OFFCURVE",
"130 793 CURVE SMOOTH",
"130 741 OFFCURVE",
"148 721 OFFCURVE",
"193 721 CURVE SMOOTH",
"1105 721 LINE SMOOTH",
"1150 721 OFFCURVE",
"1168 741 OFFCURVE",
"1168 793 CURVE SMOOTH",
"1168 845 OFFCURVE",
"1150 865 OFFCURVE",
"1105 865 CURVE SMOOTH"
);
}
);
width = 1228;
}
);
unicode = 0023;
},
{
glyphname = period;
lastChange = "2015-01-12 05:49:38 +0000";
layers = (
{
background = {
paths = (
{
closed = 1;
nodes = (
"445 54 OFFCURVE",
"521 -22 OFFCURVE",
"614 -22 CURVE SMOOTH",
"707 -22 OFFCURVE",
"783 54 OFFCURVE",
"783 147 CURVE SMOOTH",
"783 240 OFFCURVE",
"707 316 OFFCURVE",
"614 316 CURVE SMOOTH",
"521 316 OFFCURVE",
"445 240 OFFCURVE",
"445 147 CURVE SMOOTH"
);
}
);
};
layerId = UUID0;
name = Regular;
paths = (
{
closed = 1;
nodes = (
"519 300 OFFCURVE",
"479 282 OFFCURVE",
"479 237 CURVE SMOOTH",
"479 53 LINE SMOOTH",
"479 8 OFFCURVE",
"519 -10 OFFCURVE",
"614 -10 CURVE SMOOTH",
"709 -10 OFFCURVE",
"749 8 OFFCURVE",
"749 53 CURVE SMOOTH",
"749 237 LINE SMOOTH",
"749 282 OFFCURVE",
"709 300 OFFCURVE",
"614 300 CURVE SMOOTH"
);
}
);
width = 1228;
}
);
unicode = 002E;
},
{
color = 8;
glyphname = question;
lastChange = "2015-01-14 20:53:04 +0000";
layers = (
{
layerId = UUID0;
name = Regular;
paths = (
{
closed = 1;
nodes = (
"503 1269 OFFCURVE",
"398 1244 OFFCURVE",
"300 1191 CURVE SMOOTH",
"263 1171 OFFCURVE",
"250 1144 OFFCURVE",
"274 1091 CURVE SMOOTH",
"297 1039 OFFCURVE",
"328 1038 OFFCURVE",
"358 1054 CURVE SMOOTH",
"442 1098 OFFCURVE",
"528 1121 OFFCURVE",
"619 1121 CURVE SMOOTH",
"744 1121 OFFCURVE",
"812 1053 OFFCURVE",
"812 956 CURVE SMOOTH",
"812 856 OFFCURVE",
"746 806 OFFCURVE",
"594 744 CURVE SMOOTH",
"525 716 LINE SMOOTH",
"502 707 OFFCURVE",
"494 691 OFFCURVE",
"495 665 CURVE SMOOTH",
"505 440 LINE SMOOTH",
"507 409 OFFCURVE",
"532 389 OFFCURVE",
"574 389 CURVE SMOOTH",
"616 389 OFFCURVE",
"641 409 OFFCURVE",
"643 440 CURVE SMOOTH",
"653 611 LINE",
"859 695 OFFCURVE",
"966 780 OFFCURVE",
"966 956 CURVE SMOOTH",
"966 1141 OFFCURVE",
"838 1269 OFFCURVE",
"618 1269 CURVE SMOOTH"
);
},
{
closed = 1;
nodes = (
"493 230 OFFCURVE",
"459 212 OFFCURVE",
"459 167 CURVE SMOOTH",
"459 53 LINE SMOOTH",
"459 8 OFFCURVE",
"493 -10 OFFCURVE",
"574 -10 CURVE SMOOTH",
"655 -10 OFFCURVE",
"689 8 OFFCURVE",
"689 53 CURVE SMOOTH",
"689 167 LINE SMOOTH",
"689 212 OFFCURVE",
"655 230 OFFCURVE",
"574 230 CURVE SMOOTH"
);
}
);
width = 1228;
}
);
unicode = 003F;
},
{
color = 3;
glyphname = quotesingle;
lastChange = "2015-01-14 20:53:20 +0000";
layers = (
{
layerId = UUID0;
name = Regular;
paths = (
{
closed = 1;
nodes = (
"532 1269 LINE SMOOTH",
"502 1269 OFFCURVE",
"487 1254 OFFCURVE",
"491 1219 CURVE SMOOTH",
"546 769 LINE SMOOTH",
"550 735 OFFCURVE",
"575 715 OFFCURVE",
"614 715 CURVE SMOOTH",
"654 715 OFFCURVE",
"678 735 OFFCURVE",
"682 769 CURVE SMOOTH",
"737 1219 LINE SMOOTH",
"741 1254 OFFCURVE",
"726 1269 OFFCURVE",
"696 1269 CURVE SMOOTH"
);
}
);
width = 1228;
}
);
unicode = 0027;
},
{
color = 3;
glyphname = semicolon;
lastChange = "2015-01-12 05:49:38 +0000";
layers = (
{
background = {
paths = (
{
closed = 1;
nodes = (
"445 684 OFFCURVE",
"521 608 OFFCURVE",
"614 608 CURVE SMOOTH",
"707 608 OFFCURVE",
"783 684 OFFCURVE",
"783 777 CURVE SMOOTH",
"783 870 OFFCURVE",
"707 946 OFFCURVE",
"614 946 CURVE SMOOTH",
"521 946 OFFCURVE",
"445 870 OFFCURVE",
"445 777 CURVE SMOOTH"
);
}
);
};
components = (
{
name = comma;
transform = "{1, 0, 0, 1, 20, 0}";
},
{
name = period.squat;
transform = "{1, 0, 0, 1, 0, 634}";
}
);
layerId = UUID0;
name = Regular;
width = 1228;
}
);
unicode = 003B;
},
{
color = 3;
glyphname = slash;
lastChange = "2015-01-14 20:53:35 +0000";
layers = (
{
layerId = UUID0;
name = Regular;
paths = (
{
closed = 1;
nodes = (
"906 1394 OFFCURVE",
"882 1379 OFFCURVE",
"873 1358 CURVE SMOOTH",
"201 -285 LINE SMOOTH",
"185 -325 OFFCURVE",
"227 -355 OFFCURVE",
"290 -355 CURVE SMOOTH",
"322 -355 OFFCURVE",
"346 -340 OFFCURVE",
"355 -319 CURVE SMOOTH",
"1027 1324 LINE SMOOTH",
"1043 1364 OFFCURVE",
"1001 1394 OFFCURVE",
"938 1394 CURVE SMOOTH"
);
}
);
width = 1228;
}
);
unicode = 002F;
},
{
glyphname = underscore;
lastChange = "2015-01-12 05:51:58 +0000";
layers = (
{
layerId = UUID0;
name = Regular;
paths = (
{
closed = 1;
nodes = (
"133 -249 LINE SMOOTH",
"88 -249 OFFCURVE",
"70 -269 OFFCURVE",
"70 -321 CURVE SMOOTH",
"70 -373 OFFCURVE",
"88 -393 OFFCURVE",
"133 -393 CURVE SMOOTH",
"1095 -393 LINE SMOOTH",
"1140 -393 OFFCURVE",
"1158 -373 OFFCURVE",
"1158 -321 CURVE SMOOTH",
"1158 -269 OFFCURVE",
"1140 -249 OFFCURVE",
"1095 -249 CURVE SMOOTH"
);
}
);
width = 1228;
}
);
unicode = 005F;
},
{
color = 11;
export = 0;
glyphname = period.squat;
lastChange = "2015-01-12 05:49:38 +0000";
layers = (
{
layerId = UUID0;
name = Regular;
paths = (
{
closed = 1;
nodes = (
"519 300 OFFCURVE",
"479 282 OFFCURVE",
"479 237 CURVE SMOOTH",
"479 53 LINE SMOOTH",
"479 8 OFFCURVE",
"519 -10 OFFCURVE",
"614 -10 CURVE SMOOTH",
"709 -10 OFFCURVE",
"749 8 OFFCURVE",
"749 53 CURVE SMOOTH",
"749 237 LINE SMOOTH",
"749 282 OFFCURVE",
"709 300 OFFCURVE",
"614 300 CURVE SMOOTH"
);
}
);
width = 1228;
}
);
},
{
color = 8;
glyphname = braceleft;
lastChange = "2015-01-14 20:51:47 +0000";
layers = (
{
layerId = UUID0;
name = Regular;
paths = (
{
closed = 1;
nodes = (
"648 1372 OFFCURVE",
"486 1240 OFFCURVE",
"505 959 CURVE SMOOTH",
"510 885 LINE SMOOTH",
"521 717 OFFCURVE",
"443 613 OFFCURVE",
"240 613 CURVE SMOOTH",
"195 613 OFFCURVE",
"177 593 OFFCURVE",
"177 541 CURVE SMOOTH",
"177 489 OFFCURVE",
"195 469 OFFCURVE",
"240 469 CURVE SMOOTH",
"453 469 OFFCURVE",
"531 376 OFFCURVE",
"516 203 CURVE SMOOTH",
"505 80 LINE SMOOTH",
"480 -201 OFFCURVE",
"648 -333 OFFCURVE",
"927 -333 CURVE SMOOTH",
"972 -333 OFFCURVE",
"990 -313 OFFCURVE",
"990 -261 CURVE SMOOTH",
"990 -209 OFFCURVE",
"972 -189 OFFCURVE",
"927 -189 CURVE SMOOTH",
"725 -189 OFFCURVE",
"642 -105 OFFCURVE",
"655 92 CURVE SMOOTH",
"663 213 LINE SMOOTH",
"674 374 OFFCURVE",
"609 481 OFFCURVE",
"425 536 CURVE",
"425 546 LINE",
"595 615 OFFCURVE",
"665 715 OFFCURVE",
"658 875 CURVE SMOOTH",
"655 947 LINE SMOOTH",
"647 1143 OFFCURVE",
"715 1228 OFFCURVE",
"927 1228 CURVE SMOOTH",
"972 1228 OFFCURVE",
"990 1248 OFFCURVE",
"990 1300 CURVE SMOOTH",
"990 1352 OFFCURVE",
"972 1372 OFFCURVE",
"927 1372 CURVE SMOOTH"
);
}
);
width = 1228;
}
);
unicode = 007B;
},
{
color = 3;
glyphname = bracketleft;
lastChange = "2015-01-14 20:52:53 +0000";
layers = (
{
layerId = UUID0;
name = Regular;
paths = (
{
closed = 1;
nodes = (
"393 1372 LINE SMOOTH",
"348 1372 OFFCURVE",
"330 1354 OFFCURVE",
"330 1304 CURVE SMOOTH",
"330 -265 LINE SMOOTH",
"330 -315 OFFCURVE",
"348 -333 OFFCURVE",
"393 -333 CURVE SMOOTH",
"480 -333 LINE",
"480 1372 LINE"
);
},
{
closed = 1;
nodes = (
"455 -189 LINE",
"455 -333 LINE",
"807 -333 LINE SMOOTH",
"852 -333 OFFCURVE",
"870 -313 OFFCURVE",
"870 -261 CURVE SMOOTH",
"870 -209 OFFCURVE",
"852 -189 OFFCURVE",
"807 -189 CURVE SMOOTH"
);
},
{
closed = 1;
nodes = (
"455 1372 LINE",
"455 1228 LINE",
"807 1228 LINE SMOOTH",
"852 1228 OFFCURVE",
"870 1248 OFFCURVE",
"870 1300 CURVE SMOOTH",
"870 1352 OFFCURVE",
"852 1372 OFFCURVE",
"807 1372 CURVE SMOOTH"
);
}
);
width = 1228;
}
);
unicode = 005B;
},
{
color = 3;
glyphname = bracketright;
lastChange = "2015-01-14 20:52:54 +0000";
layers = (
{
layerId = UUID0;
name = Regular;
paths = (
{
closed = 1;
nodes = (
"748 1372 LINE",
"748 -333 LINE",
"835 -333 LINE",
"880 -333 OFFCURVE",
"898 -315 OFFCURVE",
"898 -265 CURVE SMOOTH",
"898 1304 LINE SMOOTH",
"898 1354 OFFCURVE",
"880 1372 OFFCURVE",
"835 1372 CURVE"
);
},
{
closed = 1;
nodes = (
"421 -189 LINE SMOOTH",
"376 -189 OFFCURVE",
"358 -209 OFFCURVE",
"358 -261 CURVE SMOOTH",
"358 -313 OFFCURVE",
"376 -333 OFFCURVE",
"421 -333 CURVE SMOOTH",
"773 -333 LINE",
"773 -189 LINE"
);
},
{
closed = 1;
nodes = (
"421 1372 LINE SMOOTH",
"376 1372 OFFCURVE",
"358 1352 OFFCURVE",
"358 1300 CURVE SMOOTH",
"358 1248 OFFCURVE",
"376 1228 OFFCURVE",
"421 1228 CURVE SMOOTH",
"773 1228 LINE",
"773 1372 LINE"
);
}
);
width = 1228;
}
);
unicode = 005D;
},
{
color = 3;
glyphname = parenleft;
lastChange = "2015-01-12 05:49:38 +0000";
layers = (
{
layerId = UUID0;
name = Regular;
paths = (
{
closed = 1;
nodes = (
"547 1241 OFFCURVE",
"297 940 OFFCURVE",
"297 517 CURVE SMOOTH",
"297 94 OFFCURVE",
"547 -203 OFFCURVE",
"771 -337 CURVE",
"800 -354 OFFCURVE",
"830 -333 OFFCURVE",
"848 -303 CURVE SMOOTH",
"866 -273 OFFCURVE",
"873 -234 OFFCURVE",
"852 -220 CURVE SMOOTH",
"654 -90 OFFCURVE",
"445 146 OFFCURVE",
"445 517 CURVE SMOOTH",
"445 888 OFFCURVE",
"654 1128 OFFCURVE",
"852 1258 CURVE SMOOTH",
"873 1272 OFFCURVE",
"866 1311 OFFCURVE",
"848 1341 CURVE SMOOTH",
"830 1371 OFFCURVE",
"800 1392 OFFCURVE",
"771 1375 CURVE SMOOTH"
);
}
);
width = 1228;
}
);
unicode = 0028;
},
{
color = 3;
glyphname = parenright;
lastChange = "2015-01-12 05:49:38 +0000";
layers = (
{
layerId = UUID0;
name = Regular;
paths = (
{
closed = 1;
nodes = (
"428 1392 OFFCURVE",
"398 1371 OFFCURVE",
"380 1341 CURVE SMOOTH",
"362 1311 OFFCURVE",
"355 1272 OFFCURVE",
"376 1258 CURVE SMOOTH",
"574 1128 OFFCURVE",
"783 888 OFFCURVE",
"783 517 CURVE SMOOTH",
"783 146 OFFCURVE",
"574 -90 OFFCURVE",
"376 -220 CURVE SMOOTH",
"355 -234 OFFCURVE",
"362 -273 OFFCURVE",
"380 -303 CURVE SMOOTH",
"398 -333 OFFCURVE",
"428 -354 OFFCURVE",
"457 -337 CURVE SMOOTH",
"681 -203 OFFCURVE",
"931 94 OFFCURVE",
"931 517 CURVE SMOOTH",
"931 940 OFFCURVE",
"681 1241 OFFCURVE",
"457 1375 CURVE SMOOTH"
);
}
);
width = 1228;
}
);
unicode = 0029;
},
{
glyphname = hyphen.alt;
lastChange = "2015-01-12 05:49:38 +0000";
layers = (
{
layerId = UUID0;
name = Regular;
paths = (
{
closed = 1;
nodes = (
"333 660 LINE SMOOTH",
"288 660 OFFCURVE",
"270 642 OFFCURVE",
"270 582 CURVE SMOOTH",
"270 522 OFFCURVE",
"288 504 OFFCURVE",
"333 504 CURVE SMOOTH",
"895 504 LINE SMOOTH",
"940 504 OFFCURVE",
"958 522 OFFCURVE",
"958 582 CURVE SMOOTH",
"958 642 OFFCURVE",
"940 660 OFFCURVE",
"895 660 CURVE SMOOTH"
);
}
);
width = 1228;
}
);
},
{
glyphname = emdash.alt1;
lastChange = "2015-01-12 05:49:38 +0000";
layers = (
{
layerId = UUID0;
name = Regular;
paths = (
{
closed = 1;
nodes = (
"-367 654 LINE SMOOTH",
"-412 654 OFFCURVE",
"-430 634 OFFCURVE",
"-430 582 CURVE SMOOTH",
"-430 530 OFFCURVE",
"-412 510 OFFCURVE",
"-367 510 CURVE SMOOTH",
"1595 510 LINE SMOOTH",
"1640 510 OFFCURVE",
"1658 530 OFFCURVE",
"1658 582 CURVE SMOOTH",
"1658 634 OFFCURVE",
"1640 654 OFFCURVE",
"1595 654 CURVE SMOOTH"
);
}
);
width = 1228;
}
);
},
{
glyphname = emdash.alt2;
lastChange = "2015-01-12 05:49:38 +0000";
layers = (
{
layerId = UUID0;
name = Regular;
paths = (
{
closed = 1;
nodes = (
"47 654 LINE SMOOTH",
"2 654 OFFCURVE",
"-16 634 OFFCURVE",
"-16 582 CURVE SMOOTH",
"-16 530 OFFCURVE",
"2 510 OFFCURVE",
"47 510 CURVE SMOOTH",
"2409 510 LINE SMOOTH",
"2454 510 OFFCURVE",
"2472 530 OFFCURVE",
"2472 582 CURVE SMOOTH",
"2472 634 OFFCURVE",
"2454 654 OFFCURVE",
"2409 654 CURVE SMOOTH"
);
}
);
width = 2456;
}
);
},
{
glyphname = emdash.alt3;
lastChange = "2015-01-12 05:49:38 +0000";
layers = (
{
layerId = UUID0;
name = Regular;
paths = (
{
closed = 1;
nodes = (
"347 654 LINE SMOOTH",
"302 654 OFFCURVE",
"284 634 OFFCURVE",
"284 582 CURVE SMOOTH",
"284 530 OFFCURVE",
"302 510 OFFCURVE",
"347 510 CURVE SMOOTH",
"2109 510 LINE SMOOTH",
"2154 510 OFFCURVE",
"2172 530 OFFCURVE",
"2172 582 CURVE SMOOTH",
"2172 634 OFFCURVE",
"2154 654 OFFCURVE",
"2109 654 CURVE SMOOTH"
);
}
);
width = 2456;
}
);
},
{
glyphname = emdash.alt4;
lastChange = "2015-01-12 05:49:38 +0000";
layers = (
{
layerId = UUID0;
name = Regular;
paths = (
{
closed = 1;
nodes = (
"-167 654 LINE SMOOTH",
"-212 654 OFFCURVE",
"-230 634 OFFCURVE",
"-230 582 CURVE SMOOTH",
"-230 530 OFFCURVE",
"-212 510 OFFCURVE",
"-167 510 CURVE SMOOTH",
"1395 510 LINE SMOOTH",
"1440 510 OFFCURVE",
"1458 530 OFFCURVE",
"1458 582 CURVE SMOOTH",
"1458 634 OFFCURVE",
"1440 654 OFFCURVE",
"1395 654 CURVE SMOOTH"
);
}
);
width = 1228;
}
);
},
{
glyphname = emdash;
lastChange = "2015-01-12 05:49:38 +0000";
layers = (
{
layerId = UUID0;
name = Regular;
paths = (
{
closed = 1;
nodes = (
"33 654 LINE SMOOTH",
"-12 654 OFFCURVE",
"-30 634 OFFCURVE",
"-30 582 CURVE SMOOTH",
"-30 530 OFFCURVE",
"-12 510 OFFCURVE",
"33 510 CURVE SMOOTH",
"1195 510 LINE SMOOTH",
"1240 510 OFFCURVE",
"1258 530 OFFCURVE",
"1258 582 CURVE SMOOTH",
"1258 634 OFFCURVE",
"1240 654 OFFCURVE",
"1195 654 CURVE SMOOTH"
);
}
);
width = 1228;
}
);
unicode = 2014;
},
{
glyphname = endash;
lastChange = "2015-01-12 05:49:38 +0000";
layers = (
{
layerId = UUID0;
name = Regular;
paths = (
{
closed = 1;
nodes = (
"233 654 LINE SMOOTH",
"188 654 OFFCURVE",
"170 634 OFFCURVE",
"170 582 CURVE SMOOTH",
"170 530 OFFCURVE",
"188 510 OFFCURVE",
"233 510 CURVE SMOOTH",
"995 510 LINE SMOOTH",
"1040 510 OFFCURVE",
"1058 530 OFFCURVE",
"1058 582 CURVE SMOOTH",
"1058 634 OFFCURVE",
"1040 654 OFFCURVE",
"995 654 CURVE SMOOTH"
);
}
);
width = 1228;
}
);
unicode = 2013;
},
{
glyphname = hyphen;
lastChange = "2015-01-12 05:49:38 +0000";
layers = (
{
layerId = UUID0;
name = Regular;
paths = (
{
closed = 1;
nodes = (
"233 654 LINE SMOOTH",
"188 654 OFFCURVE",
"170 634 OFFCURVE",
"170 582 CURVE SMOOTH",
"170 530 OFFCURVE",
"188 510 OFFCURVE",
"233 510 CURVE SMOOTH",
"995 510 LINE SMOOTH",
"1040 510 OFFCURVE",
"1058 530 OFFCURVE",
"1058 582 CURVE SMOOTH",
"1058 634 OFFCURVE",
"1040 654 OFFCURVE",
"995 654 CURVE SMOOTH"
);
}
);
width = 1228;
}
);
unicode = 002D;
},
{
color = 8;
glyphname = guilsinglleft;
lastChange = "2015-01-14 20:53:50 +0000";
layers = (
{
layerId = UUID0;
name = Regular;
paths = (
{
closed = 1;
nodes = (
"759 953 OFFCURVE",
"727 953 OFFCURVE",
"708 931 CURVE SMOOTH",
"402 588 LINE SMOOTH",
"390 575 OFFCURVE",
"390 553 OFFCURVE",
"402 540 CURVE SMOOTH",
"708 197 LINE SMOOTH",
"727 175 OFFCURVE",
"759 175 OFFCURVE",
"800 210 CURVE SMOOTH",
"838 243 OFFCURVE",
"838 269 OFFCURVE",
"817 293 CURVE SMOOTH",
"571 564 LINE",
"817 835 LINE SMOOTH",
"838 859 OFFCURVE",
"838 885 OFFCURVE",
"800 918 CURVE SMOOTH"
);
}
);
width = 1228;
}
);
unicode = 2039;
},
{
color = 8;
glyphname = guilsinglright;
lastChange = "2015-01-14 20:53:51 +0000";
layers = (
{
layerId = UUID0;
name = Regular;
paths = (
{
closed = 1;
nodes = (
"390 885 OFFCURVE",
"390 859 OFFCURVE",
"411 835 CURVE SMOOTH",
"657 564 LINE",
"411 293 LINE SMOOTH",
"390 269 OFFCURVE",
"390 243 OFFCURVE",
"428 210 CURVE SMOOTH",
"469 175 OFFCURVE",
"501 175 OFFCURVE",
"520 197 CURVE SMOOTH",
"826 540 LINE SMOOTH",
"838 553 OFFCURVE",
"838 575 OFFCURVE",
"826 588 CURVE SMOOTH",
"520 931 LINE SMOOTH",
"501 953 OFFCURVE",
"469 953 OFFCURVE",
"428 918 CURVE SMOOTH"
);
}
);
width = 1228;
}
);
unicode = 203A;
},
{
color = 3;
glyphname = quoteright;
lastChange = "2015-01-14 20:54:26 +0000";
layers = (
{
layerId = UUID0;
name = Regular;
paths = (
{
closed = 1;
nodes = (
"592 1269 LINE SMOOTH",
"564 1269 OFFCURVE",
"546 1255 OFFCURVE",
"540 1229 CURVE SMOOTH",
"439 783 LINE SMOOTH",
"429 741 OFFCURVE",
"456 714 OFFCURVE",
"501 714 CURVE SMOOTH",
"535 714 OFFCURVE",
"561 729 OFFCURVE",
"575 757 CURVE SMOOTH",
"795 1206 LINE SMOOTH",
"812 1241 OFFCURVE",
"800 1269 OFFCURVE",
"767 1269 CURVE SMOOTH"
);
}
);
width = 1228;
}
);
unicode = 2019;
},
{
color = (0,243,255,1);
glyphname = cent;
lastChange = "2015-01-12 05:49:38 +0000";
layers = (
{
components = (
{
name = c;
transform = "{1, 0, 0, 1, 0, 140}";
}
);
layerId = UUID0;
name = Regular;
paths = (
{
closed = 1;
nodes = (
"595 1312 OFFCURVE",
"574 1293 OFFCURVE",
"574 1247 CURVE SMOOTH",
"574 -60 LINE SMOOTH",
"574 -106 OFFCURVE",
"595 -125 OFFCURVE",
"644 -125 CURVE SMOOTH",
"693 -125 OFFCURVE",
"714 -106 OFFCURVE",
"714 -60 CURVE SMOOTH",
"714 1247 LINE SMOOTH",
"714 1293 OFFCURVE",
"693 1312 OFFCURVE",
"644 1312 CURVE SMOOTH"
);
}
);
width = 1228;
}
);
unicode = 00A2;
},
{
glyphname = currency;
lastChange = "2015-01-12 05:49:38 +0000";
layers = (
{
background = {
paths = (
{
closed = 1;
nodes = (
"123 1019 OFFCURVE",
"122 992 OFFCURVE",
"154 960 CURVE SMOOTH",
"972 142 LINE SMOOTH",
"1004 110 OFFCURVE",
"1031 111 OFFCURVE",
"1068 148 CURVE SMOOTH",
"1105 185 OFFCURVE",
"1106 212 OFFCURVE",
"1074 244 CURVE SMOOTH",
"256 1062 LINE SMOOTH",
"224 1094 OFFCURVE",
"197 1093 OFFCURVE",
"160 1056 CURVE SMOOTH"
);
},
{
closed = 1;
nodes = (
"1031 1093 OFFCURVE",
"1004 1094 OFFCURVE",
"972 1062 CURVE SMOOTH",
"154 244 LINE SMOOTH",
"122 212 OFFCURVE",
"123 185 OFFCURVE",
"160 148 CURVE SMOOTH",
"197 111 OFFCURVE",
"224 110 OFFCURVE",
"256 142 CURVE SMOOTH",
"1074 960 LINE SMOOTH",
"1106 992 OFFCURVE",
"1105 1019 OFFCURVE",
"1068 1056 CURVE SMOOTH"
);
},
{
closed = 1;
nodes = (
"809 927 OFFCURVE",
"939 791 OFFCURVE",
"939 602 CURVE SMOOTH",
"939 413 OFFCURVE",
"809 277 OFFCURVE",
"614 277 CURVE SMOOTH",
"419 277 OFFCURVE",
"289 413 OFFCURVE",
"289 602 CURVE SMOOTH",
"289 791 OFFCURVE",
"419 927 OFFCURVE",
"614 927 CURVE SMOOTH"
);
}
);
};
layerId = UUID0;
name = Regular;
paths = (
{
closed = 1;
nodes = (
"380 1006 OFFCURVE",
"204 836 OFFCURVE",
"204 602 CURVE SMOOTH",
"204 368 OFFCURVE",
"380 198 OFFCURVE",
"614 198 CURVE SMOOTH",
"848 198 OFFCURVE",
"1024 368 OFFCURVE",
"1024 602 CURVE SMOOTH",
"1024 836 OFFCURVE",
"848 1006 OFFCURVE",
"614 1006 CURVE SMOOTH"
);
},
{
closed = 1;
nodes = (
"134 224 LINE SMOOTH",
"102 192 OFFCURVE",
"103 165 OFFCURVE",
"140 128 CURVE SMOOTH",
"177 91 OFFCURVE",
"204 90 OFFCURVE",
"236 122 CURVE SMOOTH",
"436.861 322.861 LINE",
"334.952 424.952 LINE"
);
},
{
closed = 1;
nodes = (
"791.139 322.861 LINE",
"992 122 LINE SMOOTH",
"1024 90 OFFCURVE",
"1051 91 OFFCURVE",
"1088 128 CURVE SMOOTH",
"1125 165 OFFCURVE",
"1126 192 OFFCURVE",
"1094 224 CURVE SMOOTH",
"893.048 424.952 LINE"
);
},
{
closed = 1;
nodes = (
"791.139 881.139 LINE",
"893.048 779.048 LINE",
"1094 980 LINE SMOOTH",
"1126 1012 OFFCURVE",
"1125 1039 OFFCURVE",
"1088 1076 CURVE SMOOTH",
"1051 1113 OFFCURVE",
"1024 1114 OFFCURVE",
"992 1082 CURVE SMOOTH"
);
},
{
closed = 1;
nodes = (
"204 1114 OFFCURVE",
"177 1113 OFFCURVE",
"140 1076 CURVE SMOOTH",
"103 1039 OFFCURVE",
"102 1012 OFFCURVE",
"134 980 CURVE SMOOTH",
"334.952 779.048 LINE",
"436.861 881.139 LINE",
"236 1082 LINE SMOOTH"
);
},
{
closed = 1;
nodes = (
"771 864 OFFCURVE",
"876 754 OFFCURVE",
"876 602 CURVE SMOOTH",
"876 450 OFFCURVE",
"771 340 OFFCURVE",
"614 340 CURVE SMOOTH",
"457 340 OFFCURVE",
"352 450 OFFCURVE",
"352 602 CURVE SMOOTH",
"352 754 OFFCURVE",
"457 864 OFFCURVE",
"614 864 CURVE SMOOTH"
);
}
);
width = 1228;
}
);
unicode = 00A4;
},
{
color = (0,243,255,1);
glyphname = dollar;
lastChange = "2015-01-12 05:52:03 +0000";
layers = (
{
background = {
paths = (
{
closed = 1;
nodes = (
"559 1312 OFFCURVE",
"538 1293 OFFCURVE",
"538 1247 CURVE SMOOTH",
"538 1085.5 LINE",
"338.897 1077.83 OFFCURVE",
"190 981.195 OFFCURVE",
"190 800 CURVE SMOOTH",
"190 684 OFFCURVE",
"252 623 OFFCURVE",
"340 588 CURVE SMOOTH",
"398.555 564.982 OFFCURVE",
"468.199 553.705 OFFCURVE",
"538 545.872 CURVE",
"538 270.153 LINE",
"444.106 282.914 OFFCURVE",
"354.499 312.509 OFFCURVE",
"275 357 CURVE SMOOTH",
"243 375 OFFCURVE",
"215 370 OFFCURVE",
"190 319 CURVE SMOOTH",
"166 270 OFFCURVE",
"179 239 OFFCURVE",
"217 218 CURVE SMOOTH",
"313.726 165.103 OFFCURVE",
"421.301 135.048 OFFCURVE",
"538 123.519 CURVE",
"538 -60 LINE SMOOTH",
"538 -106 OFFCURVE",
"559 -125 OFFCURVE",
"608 -125 CURVE SMOOTH",
"657 -125 OFFCURVE",
"678 -106 OFFCURVE",
"678 -60 CURVE SMOOTH",
"678 118.352 LINE",
"921.334 125.584 OFFCURVE",
"1048 243.613 OFFCURVE",
"1048 417 CURVE SMOOTH",
"1048 543 OFFCURVE",
"979 607 OFFCURVE",
"884 642 CURVE SMOOTH",
"822.17 664.869 OFFCURVE",
"749.579 675.542 OFFCURVE",
"678 682.982 CURVE",
"678 933.031 LINE",
"759.3 920.999 OFFCURVE",
"838.308 895.541 OFFCURVE",
"912 858 CURVE SMOOTH",
"945 841 OFFCURVE",
"973 847 OFFCURVE",
"996 899 CURVE SMOOTH",
"1018 949 OFFCURVE",
"1004 980 OFFCURVE",
"966 999 CURVE SMOOTH",
"877.65 1043.54 OFFCURVE",
"779.704 1069.42 OFFCURVE",
"678 1080.14 CURVE",
"678 1247 LINE SMOOTH",
"678 1293 OFFCURVE",
"657 1312 OFFCURVE",
"608 1312 CURVE SMOOTH"
);
},
{
closed = 1;
nodes = (
"729.405 526.424 OFFCURVE",
"776.216 519.475 OFFCURVE",
"813 507 CURVE SMOOTH",
"863 490 OFFCURVE",
"894 464 OFFCURVE",
"894 417 CURVE SMOOTH",
"894 332.331 OFFCURVE",
"823.879 271.902 OFFCURVE",
"678 263.903 CURVE",
"678 531.973 LINE"
);
},
{
closed = 1;
nodes = (
"538 696.39 LINE",
"493.515 701.302 OFFCURVE",
"453.248 707.541 OFFCURVE",
"421 718 CURVE SMOOTH",
"374 733 OFFCURVE",
"344 757 OFFCURVE",
"344 800 CURVE SMOOTH",
"344 885.642 OFFCURVE",
"417.777 933.122 OFFCURVE",
"538 940.1 CURVE"
);
}
);
};
layerId = UUID0;
name = Regular;
paths = (
{
closed = 1;
nodes = (
"348 1121 OFFCURVE",
"185 1014 OFFCURVE",
"185 817 CURVE SMOOTH",
"185 694 OFFCURVE",
"249 629 OFFCURVE",
"339 592 CURVE SMOOTH",
"481 533 OFFCURVE",
"688 543 OFFCURVE",
"805 500 CURVE SMOOTH",
"862 479 OFFCURVE",
"898 447 OFFCURVE",
"898 388 CURVE SMOOTH",
"898 289 OFFCURVE",
"814 220 OFFCURVE",
"637 220 CURVE SMOOTH",
"506 220 OFFCURVE",
"378 256 OFFCURVE",
"273 317 CURVE SMOOTH",
"243 335 OFFCURVE",
"213 332 OFFCURVE",
"187 281 CURVE SMOOTH",
"163 232 OFFCURVE",
"174 200 OFFCURVE",
"212 179 CURVE SMOOTH",
"337 108 OFFCURVE",
"485 74 OFFCURVE",
"644 74 CURVE SMOOTH",
"914 74 OFFCURVE",
"1052 201 OFFCURVE",
"1052 388 CURVE SMOOTH",
"1052 529 OFFCURVE",
"977 599 OFFCURVE",
"876 638 CURVE SMOOTH",
"728 694 OFFCURVE",
"525 684 OFFCURVE",
"416 725 CURVE SMOOTH",
"368 743 OFFCURVE",
"339 770 OFFCURVE",
"339 817 CURVE SMOOTH",
"339 919 OFFCURVE",
"427 975 OFFCURVE",
"572 975 CURVE SMOOTH",
"695 975 OFFCURVE",
"812 944 OFFCURVE",
"915 889 CURVE SMOOTH",
"947 872 OFFCURVE",
"977 876 OFFCURVE",
"1000 928 CURVE SMOOTH",
"1023 978 OFFCURVE",
"1011 1010 OFFCURVE",
"973 1030 CURVE SMOOTH",
"852 1093 OFFCURVE",
"713 1121 OFFCURVE",
"568 1121 CURVE SMOOTH"
);
},
{
closed = 1;
nodes = (
"538 149 LINE",
"538 -160 LINE SMOOTH",
"538 -206 OFFCURVE",
"559 -225 OFFCURVE",
"608 -225 CURVE SMOOTH",
"657 -225 OFFCURVE",
"678 -206 OFFCURVE",
"678 -160 CURVE SMOOTH",
"678 149 LINE"
);
},
{
closed = 1;
nodes = (
"559 1412 OFFCURVE",
"538 1393 OFFCURVE",
"538 1347 CURVE SMOOTH",
"538 1051 LINE",
"678 1051 LINE",
"678 1347 LINE SMOOTH",
"678 1393 OFFCURVE",
"657 1412 OFFCURVE",
"608 1412 CURVE SMOOTH"
);
}
);
width = 1228;
}
);
unicode = 0024;
},
{
glyphname = euro;
lastChange = "2015-01-12 05:49:38 +0000";
layers = (
{
layerId = UUID0;
name = Regular;
paths = (
{
closed = 1;
nodes = (
"405 1209 OFFCURVE",
"230 964 OFFCURVE",
"230 594 CURVE SMOOTH",
"230 224 OFFCURVE",
"405 -22 OFFCURVE",
"714 -22 CURVE SMOOTH",
"847 -22 OFFCURVE",
"956 5 OFFCURVE",
"1077 74 CURVE SMOOTH",
"1115 96 OFFCURVE",
"1124 128 OFFCURVE",
"1101 178 CURVE SMOOTH",
"1077 230 OFFCURVE",
"1043 228 OFFCURVE",
"1014 211 CURVE SMOOTH",
"917 153 OFFCURVE",
"825 126 OFFCURVE",
"714 126 CURVE SMOOTH",
"497 126 OFFCURVE",
"384 306 OFFCURVE",
"384 594 CURVE SMOOTH",
"384 882 OFFCURVE",
"497 1061 OFFCURVE",
"714 1061 CURVE SMOOTH",
"825 1061 OFFCURVE",
"917 1034 OFFCURVE",
"1014 976 CURVE SMOOTH",
"1043 959 OFFCURVE",
"1077 957 OFFCURVE",
"1101 1009 CURVE SMOOTH",
"1124 1059 OFFCURVE",
"1115 1091 OFFCURVE",
"1077 1113 CURVE SMOOTH",
"956 1182 OFFCURVE",
"847 1209 OFFCURVE",
"714 1209 CURVE SMOOTH"
);
},
{
closed = 1;
nodes = (
"153 514 LINE SMOOTH",
"108 514 OFFCURVE",
"90 494 OFFCURVE",
"90 442 CURVE SMOOTH",
"90 390 OFFCURVE",
"108 370 OFFCURVE",
"153 370 CURVE SMOOTH",
"765 370 LINE SMOOTH",
"810 370 OFFCURVE",
"828 390 OFFCURVE",
"828 442 CURVE SMOOTH",
"828 494 OFFCURVE",
"810 514 OFFCURVE",
"765 514 CURVE SMOOTH"
);
},
{
closed = 1;
nodes = (
"153 824 LINE SMOOTH",
"108 824 OFFCURVE",
"90 804 OFFCURVE",
"90 752 CURVE SMOOTH",
"90 700 OFFCURVE",
"108 680 OFFCURVE",
"153 680 CURVE SMOOTH",
"765 680 LINE SMOOTH",
"810 680 OFFCURVE",
"828 700 OFFCURVE",
"828 752 CURVE SMOOTH",
"828 804 OFFCURVE",
"810 824 OFFCURVE",
"765 824 CURVE SMOOTH"
);
}
);
width = 1228;
}
);
unicode = 20AC;
},
{
glyphname = florin;
lastChange = "2015-01-12 05:49:38 +0000";
layers = (
{
layerId = UUID0;
name = Regular;
paths = (
{
closed = 1;
nodes = (
"711 1317 OFFCURVE",
"587 1202 OFFCURVE",
"566 997 CURVE SMOOTH",
"471 54 LINE SMOOTH",
"458 -74 OFFCURVE",
"390 -133 OFFCURVE",
"290 -133 CURVE SMOOTH",
"235 -133 OFFCURVE",
"181 -124 OFFCURVE",
"118 -104 CURVE SMOOTH",
"76 -90 OFFCURVE",
"51 -115 OFFCURVE",
"39 -159 CURVE SMOOTH",
"26 -206 OFFCURVE",
"32 -235 OFFCURVE",
"74 -248 CURVE",
"140 -269 OFFCURVE",
"215 -279 OFFCURVE",
"285 -279 CURVE SMOOTH",
"474 -279 OFFCURVE",
"598 -164 OFFCURVE",
"619 41 CURVE SMOOTH",
"714 984 LINE SMOOTH",
"727 1112 OFFCURVE",
"795 1171 OFFCURVE",
"895 1171 CURVE SMOOTH",
"950 1171 OFFCURVE",
"1004 1162 OFFCURVE",
"1067 1142 CURVE SMOOTH",
"1109 1128 OFFCURVE",
"1134 1153 OFFCURVE",
"1146 1197 CURVE SMOOTH",
"1159 1244 OFFCURVE",
"1153 1273 OFFCURVE",
"1111 1286 CURVE SMOOTH",
"1045 1307 OFFCURVE",
"970 1317 OFFCURVE",
"900 1317 CURVE SMOOTH"
);
},
{
closed = 1;
nodes = (
"340 848 LINE SMOOTH",
"295 848 OFFCURVE",
"277 828 OFFCURVE",
"277 776 CURVE SMOOTH",
"277 724 OFFCURVE",
"295 704 OFFCURVE",
"340 704 CURVE SMOOTH",
"934 704 LINE SMOOTH",
"979 704 OFFCURVE",
"997 724 OFFCURVE",
"997 776 CURVE SMOOTH",
"997 828 OFFCURVE",
"979 848 OFFCURVE",
"934 848 CURVE SMOOTH"
);
}
);
width = 1228;
}
);
unicode = 0192;
},
{
color = (0,243,255,1);
glyphname = franc;
lastChange = "2015-01-12 05:49:38 +0000";
layers = (
{
layerId = UUID0;
name = Regular;
paths = (
{
closed = 1;
nodes = (
"308 1187 LINE SMOOTH",
"266 1187 OFFCURVE",
"245 1169 OFFCURVE",
"245 1119 CURVE SMOOTH",
"245 55 LINE SMOOTH",
"245 9 OFFCURVE",
"263 -10 OFFCURVE",
"319 -10 CURVE",
"321 -10 LINE",
"377 -10 OFFCURVE",
"395 9 OFFCURVE",
"395 55 CURVE SMOOTH",
"395 1187 LINE"
);
},
{
closed = 1;
nodes = (
"113 374 LINE SMOOTH",
"68 374 OFFCURVE",
"50 354 OFFCURVE",
"50 302 CURVE SMOOTH",
"50 250 OFFCURVE",
"68 230 OFFCURVE",
"113 230 CURVE SMOOTH",
"685 230 LINE SMOOTH",
"730 230 OFFCURVE",
"748 250 OFFCURVE",
"748 302 CURVE SMOOTH",
"748 354 OFFCURVE",
"730 374 OFFCURVE",
"685 374 CURVE SMOOTH"
);
},
{
closed = 1;
nodes = (
"344 704 LINE",
"344 560 LINE",
"862 560 LINE SMOOTH",
"907 560 OFFCURVE",
"925 580 OFFCURVE",
"925 632 CURVE SMOOTH",
"925 684 OFFCURVE",
"907 704 OFFCURVE",
"862 704 CURVE SMOOTH"
);
},
{
closed = 1;
nodes = (
"344 1187 LINE",
"344 1043 LINE",
"977 1043 LINE SMOOTH",
"1022 1043 OFFCURVE",
"1040 1063 OFFCURVE",
"1040 1115 CURVE SMOOTH",
"1040 1167 OFFCURVE",
"1022 1187 OFFCURVE",
"977 1187 CURVE SMOOTH"
);
}
);
width = 1228;
}
);
unicode = 20A3;
},
{
glyphname = sterling;
lastChange = "2015-01-12 05:49:38 +0000";
layers = (
{
layerId = UUID0;
name = Regular;
paths = (
{
closed = 1;
nodes = (
"423 1209 OFFCURVE",
"290 1069 OFFCURVE",
"290 884 CURVE SMOOTH",
"290 712 OFFCURVE",
"429 602 OFFCURVE",
"429 445 CURVE SMOOTH",
"429 341 OFFCURVE",
"390 254 OFFCURVE",
"273 138 CURVE SMOOTH",
"259 124 OFFCURVE",
"254 112 OFFCURVE",
"254 95 CURVE SMOOTH",
"254 53 OFFCURVE",
"277 0 OFFCURVE",
"308 0 CURVE SMOOTH",
"915 0 LINE SMOOTH",
"960 0 OFFCURVE",
"978 20 OFFCURVE",
"978 72 CURVE SMOOTH",
"978 124 OFFCURVE",
"960 144 OFFCURVE",
"915 144 CURVE SMOOTH",
"456 144 LINE",
"537 236 OFFCURVE",
"581 336 OFFCURVE",
"581 446 CURVE SMOOTH",
"581 648 OFFCURVE",
"444 745 OFFCURVE",
"444 884 CURVE SMOOTH",
"444 982 OFFCURVE",
"513 1061 OFFCURVE",
"627 1061 CURVE SMOOTH",
"711 1061 OFFCURVE",
"788 1035 OFFCURVE",
"856 990 CURVE SMOOTH",
"885 971 OFFCURVE",
"916 971 OFFCURVE",
"943 1021 CURVE SMOOTH",
"971 1072 OFFCURVE",
"960 1100 OFFCURVE",
"925 1122 CURVE SMOOTH",
"839 1176 OFFCURVE",
"739 1209 OFFCURVE",
"628 1209 CURVE SMOOTH"
);
},
{
closed = 1;
nodes = (
"283 648 LINE SMOOTH",
"238 648 OFFCURVE",
"220 628 OFFCURVE",
"220 576 CURVE SMOOTH",
"220 524 OFFCURVE",
"238 504 OFFCURVE",
"283 504 CURVE SMOOTH",
"815 504 LINE SMOOTH",
"860 504 OFFCURVE",
"878 524 OFFCURVE",
"878 576 CURVE SMOOTH",
"878 628 OFFCURVE",
"860 648 OFFCURVE",
"815 648 CURVE SMOOTH"
);
}
);
width = 1228;
}
);
unicode = 00A3;
},
{
glyphname = won;
lastChange = "2015-01-12 05:49:38 +0000";
layers = (
{
components = (
{
name = W;
transform = "{1, 0, 0, 1, 0, 0}";
}
);
layerId = UUID0;
name = Regular;
paths = (
{
closed = 1;
nodes = (
"33 754 LINE SMOOTH",
"-12 754 OFFCURVE",
"-30 734 OFFCURVE",
"-30 682 CURVE SMOOTH",
"-30 630 OFFCURVE",
"-12 610 OFFCURVE",
"33 610 CURVE SMOOTH",
"523 610 LINE",
"609 691 LINE",
"703 610 LINE",
"1195 610 LINE SMOOTH",
"1240 610 OFFCURVE",
"1258 630 OFFCURVE",
"1258 682 CURVE SMOOTH",
"1258 734 OFFCURVE",
"1240 754 OFFCURVE",
"1195 754 CURVE SMOOTH"
);
}
);
width = 1228;
}
);
unicode = 20A9;
},
{
color = 6;
glyphname = yen;
lastChange = "2015-01-14 20:54:42 +0000";
layers = (
{
layerId = UUID0;
name = Regular;
paths = (
{
closed = 1;
nodes = (
"233 434 LINE SMOOTH",
"188 434 OFFCURVE",
"170 414 OFFCURVE",
"170 362 CURVE SMOOTH",
"170 310 OFFCURVE",
"188 290 OFFCURVE",
"233 290 CURVE SMOOTH",
"995 290 LINE SMOOTH",
"1040 290 OFFCURVE",
"1058 310 OFFCURVE",
"1058 362 CURVE SMOOTH",
"1058 414 OFFCURVE",
"1040 434 OFFCURVE",
"995 434 CURVE SMOOTH"
);
},
{
closed = 1;
nodes = (
"213 744 LINE SMOOTH",
"168 744 OFFCURVE",
"150 724 OFFCURVE",
"150 672 CURVE SMOOTH",
"150 620 OFFCURVE",
"168 600 OFFCURVE",
"213 600 CURVE SMOOTH",
"554 600 LINE",
"472 744 LINE"
);
},
{
closed = 1;
nodes = (
"768 744 LINE",
"674 600 LINE",
"1015 600 LINE SMOOTH",
"1060 600 OFFCURVE",
"1078 620 OFFCURVE",
"1078 672 CURVE SMOOTH",
"1078 724 OFFCURVE",
"1060 744 OFFCURVE",
"1015 744 CURVE SMOOTH"
);
},
{
closed = 1;
nodes = (
"539 552 LINE",
"539 55 LINE SMOOTH",
"539 9 OFFCURVE",
"557 -10 OFFCURVE",
"613 -10 CURVE SMOOTH",
"615 -10 LINE SMOOTH",
"671 -10 OFFCURVE",
"689 9 OFFCURVE",
"689 55 CURVE SMOOTH",
"689 552 LINE"
);
},
{
closed = 1;
nodes = (
"1005 1210 OFFCURVE",
"977 1205 OFFCURVE",
"955 1172 CURVE SMOOTH",
"563 567 LINE",
"671 460 LINE",
"1088 1096 LINE SMOOTH",
"1114 1136 OFFCURVE",
"1107 1163 OFFCURVE",
"1055 1187 CURVE SMOOTH"
);
},
{
closed = 1;
nodes = (
"121 1163 OFFCURVE",
"114 1136 OFFCURVE",
"140 1096 CURVE SMOOTH",
"548 473 LINE",
"670 560 LINE",
"273 1172 LINE SMOOTH",
"252 1205 OFFCURVE",
"223 1210 OFFCURVE",
"173 1187 CURVE SMOOTH"
);
}
);
width = 1228;
}
);
unicode = 00A5;
},
{
color = 3;
glyphname = asciitilde;
lastChange = "2015-01-14 20:54:50 +0000";
layers = (
{
layerId = UUID0;
name = Regular;
paths = (
{
closed = 1;
nodes = (
"311 735 OFFCURVE",
"217 666 OFFCURVE",
"157 568 CURVE SMOOTH",
"142 543 OFFCURVE",
"151 514 OFFCURVE",
"182 491 CURVE SMOOTH",
"214 467 OFFCURVE",
"243 469 OFFCURVE",
"263 493 CURVE SMOOTH",
"309 548 OFFCURVE",
"359 577 OFFCURVE",
"418 577 CURVE SMOOTH",
"541 577 OFFCURVE",
"647 429 OFFCURVE",
"810 429 CURVE SMOOTH",
"917 429 OFFCURVE",
"1011 498 OFFCURVE",
"1071 596 CURVE SMOOTH",
"1086 621 OFFCURVE",
"1077 650 OFFCURVE",
"1046 673 CURVE SMOOTH",
"1014 697 OFFCURVE",
"985 695 OFFCURVE",
"965 671 CURVE SMOOTH",
"919 616 OFFCURVE",
"869 587 OFFCURVE",
"810 587 CURVE SMOOTH",
"686 587 OFFCURVE",
"581 735 OFFCURVE",
"418 735 CURVE SMOOTH"
);
}
);
width = 1228;
}
);
unicode = 007E;
},
{
glyphname = divide;
lastChange = "2015-01-12 05:49:38 +0000";
layers = (
{
background = {
paths = (
{
closed = 1;
nodes = (
"547 359 OFFCURVE",
"494 305 OFFCURVE",
"494 239 CURVE SMOOTH",
"494 173 OFFCURVE",
"547 120 OFFCURVE",
"613 120 CURVE SMOOTH",
"679 120 OFFCURVE",
"733 173 OFFCURVE",
"733 239 CURVE SMOOTH",
"733 305 OFFCURVE",
"679 359 OFFCURVE",
"613 359 CURVE SMOOTH"
);
},
{
closed = 1;
nodes = (
"547 1045 OFFCURVE",
"494 991 OFFCURVE",
"494 925 CURVE SMOOTH",
"494 859 OFFCURVE",
"547 806 OFFCURVE",
"613 806 CURVE SMOOTH",
"679 806 OFFCURVE",
"733 859 OFFCURVE",
"733 925 CURVE SMOOTH",
"733 991 OFFCURVE",
"679 1045 OFFCURVE",
"613 1045 CURVE SMOOTH"
);
}
);
};
components = (
{
name = minus;
transform = "{1, 0, 0, 1, 0, 0}";
}
);
layerId = UUID0;
name = Regular;
paths = (
{
closed = 1;
nodes = (
"540 340 OFFCURVE",
"509 322 OFFCURVE",
"509 277 CURVE SMOOTH",
"509 173 LINE SMOOTH",
"509 128 OFFCURVE",
"540 110 OFFCURVE",
"614 110 CURVE SMOOTH",
"688 110 OFFCURVE",
"719 128 OFFCURVE",
"719 173 CURVE SMOOTH",
"719 277 LINE SMOOTH",
"719 322 OFFCURVE",
"688 340 OFFCURVE",
"614 340 CURVE SMOOTH"
);
},
{
closed = 1;
nodes = (
"540 1055 OFFCURVE",
"509 1037 OFFCURVE",
"509 992 CURVE SMOOTH",
"509 888 LINE SMOOTH",
"509 843 OFFCURVE",
"540 825 OFFCURVE",
"614 825 CURVE SMOOTH",
"688 825 OFFCURVE",
"719 843 OFFCURVE",
"719 888 CURVE SMOOTH",
"719 992 LINE SMOOTH",
"719 1037 OFFCURVE",
"688 1055 OFFCURVE",
"614 1055 CURVE SMOOTH"
);
}
);
width = 1228;
}
);
unicode = 00F7;
},
{
glyphname = greater;
lastChange = "2015-01-12 05:49:38 +0000";
layers = (
{
layerId = UUID0;
name = Regular;
paths = (
{
closed = 1;
nodes = (
"888 583 LINE",
"216 261 LINE SMOOTH",
"174 241 OFFCURVE",
"164 212 OFFCURVE",
"187 166 CURVE SMOOTH",
"209 122 OFFCURVE",
"238 108 OFFCURVE",
"279 128 CURVE SMOOTH",
"1056 509 LINE SMOOTH",
"1088 525 OFFCURVE",
"1103 543 OFFCURVE",
"1103 583 CURVE SMOOTH",
"1103 623 OFFCURVE",
"1088 641 OFFCURVE",
"1056 657 CURVE SMOOTH",
"279 1038 LINE SMOOTH",
"238 1058 OFFCURVE",
"209 1044 OFFCURVE",
"187 1000 CURVE SMOOTH",
"164 954 OFFCURVE",
"174 925 OFFCURVE",
"216 905 CURVE SMOOTH"
);
}
);
width = 1228;
}
);
unicode = 003E;
},
{
glyphname = greaterequal;
lastChange = "2015-01-12 05:49:38 +0000";
layers = (
{
layerId = UUID0;
name = Regular;
paths = (
{
closed = 1;
nodes = (
"226 1141 OFFCURVE",
"198 1128 OFFCURVE",
"179 1079 CURVE SMOOTH",
"159 1028 OFFCURVE",
"176 1003 OFFCURVE",
"219 987 CURVE SMOOTH",
"832 755 LINE",
"219 523 LINE",
"176 507 OFFCURVE",
"159 482 OFFCURVE",
"179 431 CURVE SMOOTH",
"198 382 OFFCURVE",
"226 369 OFFCURVE",
"268 385 CURVE SMOOTH",
"1006 675 LINE SMOOTH",
"1039 688 OFFCURVE",
"1058 712 OFFCURVE",
"1058 755 CURVE SMOOTH",
"1058 798 OFFCURVE",
"1039 822 OFFCURVE",
"1006 835 CURVE SMOOTH",
"268 1125 LINE SMOOTH"
);
},
{
closed = 1;
nodes = (
"233 254 LINE SMOOTH",
"188 254 OFFCURVE",
"170 234 OFFCURVE",
"170 182 CURVE SMOOTH",
"170 130 OFFCURVE",
"188 110 OFFCURVE",
"233 110 CURVE SMOOTH",
"995 110 LINE",
"1040 110 OFFCURVE",
"1058 130 OFFCURVE",
"1058 182 CURVE SMOOTH",
"1058 234 OFFCURVE",
"1040 254 OFFCURVE",
"995 254 CURVE SMOOTH"
);
}
);
width = 1228;
}
);
unicode = 2265;
},
{
glyphname = infinity;
lastChange = "2015-01-12 05:49:38 +0000";
layers = (
{
background = {
paths = (
{
closed = 1;
nodes = (
"1081 293 OFFCURVE",
"1200 418 OFFCURVE",
"1200 582 CURVE SMOOTH",
"1200 746 OFFCURVE",
"1081 871 OFFCURVE",
"920 871 CURVE SMOOTH",
"584 871 OFFCURVE",
"580 427 OFFCURVE",
"311 427 CURVE SMOOTH",
"221 427 OFFCURVE",
"166 495 OFFCURVE",
"166 582 CURVE SMOOTH",
"166 669 OFFCURVE",
"221 737 OFFCURVE",
"311 737 CURVE SMOOTH",
"580 737 OFFCURVE",
"584 293 OFFCURVE",
"920 293 CURVE"
);
},
{
closed = 1;
nodes = (
"147 871 OFFCURVE",
"28 746 OFFCURVE",
"28 582 CURVE SMOOTH",
"28 418 OFFCURVE",
"147 293 OFFCURVE",
"308 293 CURVE SMOOTH",
"644 293 OFFCURVE",
"648 737 OFFCURVE",
"917 737 CURVE SMOOTH",
"1007 737 OFFCURVE",
"1062 669 OFFCURVE",
"1062 582 CURVE SMOOTH",
"1062 495 OFFCURVE",
"1007 427 OFFCURVE",
"917 427 CURVE SMOOTH",
"648 427 OFFCURVE",
"644 871 OFFCURVE",
"308 871 CURVE"
);
}
);
};
layerId = UUID0;
name = Regular;
paths = (
{
closed = 1;
nodes = (
"769 871 OFFCURVE",
"685 781 OFFCURVE",
"614 682 CURVE",
"543 781 OFFCURVE",
"459 871 OFFCURVE",
"308 871 CURVE SMOOTH",
"147 871 OFFCURVE",
"28 746 OFFCURVE",
"28 582 CURVE SMOOTH",
"28 418 OFFCURVE",
"147 293 OFFCURVE",
"308 293 CURVE SMOOTH",
"459 293 OFFCURVE",
"543 383 OFFCURVE",
"614 481 CURVE",
"685 383 OFFCURVE",
"769 293 OFFCURVE",
"920 293 CURVE SMOOTH",
"1081 293 OFFCURVE",
"1200 418 OFFCURVE",
"1200 582 CURVE SMOOTH",
"1200 746 OFFCURVE",
"1081 871 OFFCURVE",
"920 871 CURVE SMOOTH"
);
},
{
closed = 1;
nodes = (
"418 737 OFFCURVE",
"483 666 OFFCURVE",
"544 582 CURVE",
"483 497 OFFCURVE",
"418 427 OFFCURVE",
"311 427 CURVE SMOOTH",
"221 427 OFFCURVE",
"166 495 OFFCURVE",
"166 582 CURVE SMOOTH",
"166 669 OFFCURVE",
"221 737 OFFCURVE",
"311 737 CURVE SMOOTH"
);
},
{
closed = 1;
nodes = (
"1007 737 OFFCURVE",
"1062 669 OFFCURVE",
"1062 582 CURVE SMOOTH",
"1062 495 OFFCURVE",
"1007 427 OFFCURVE",
"917 427 CURVE SMOOTH",
"810 427 OFFCURVE",
"744 497 OFFCURVE",
"684 582 CURVE",
"744 666 OFFCURVE",
"810 737 OFFCURVE",
"917 737 CURVE SMOOTH"
);
}
);
width = 1228;
}
);
unicode = 221E;
},
{
glyphname = integral;
lastChange = "2015-01-12 05:49:38 +0000";
layers = (
{
layerId = UUID0;
name = Regular;
paths = (
{
closed = 1;
nodes = (
"678 1517 OFFCURVE",
"539 1358 OFFCURVE",
"539 1109 CURVE SMOOTH",
"539 10 LINE SMOOTH",
"539 -165 OFFCURVE",
"460 -264 OFFCURVE",
"320 -264 CURVE SMOOTH",
"241 -264 OFFCURVE",
"164 -245 OFFCURVE",
"81 -213 CURVE SMOOTH",
"47 -200 OFFCURVE",
"25 -222 OFFCURVE",
"11 -267 CURVE SMOOTH",
"-3 -313 OFFCURVE",
"7 -337 OFFCURVE",
"43 -352 CURVE SMOOTH",
"124 -387 OFFCURVE",
"222 -410 OFFCURVE",
"322 -410 CURVE SMOOTH",
"550 -410 OFFCURVE",
"689 -251 OFFCURVE",
"689 -2 CURVE SMOOTH",
"689 1097 LINE SMOOTH",
"689 1272 OFFCURVE",
"768 1371 OFFCURVE",
"908 1371 CURVE SMOOTH",
"987 1371 OFFCURVE",
"1064 1352 OFFCURVE",
"1147 1320 CURVE SMOOTH",
"1181 1307 OFFCURVE",
"1203 1329 OFFCURVE",
"1217 1374 CURVE SMOOTH",
"1231 1420 OFFCURVE",
"1221 1444 OFFCURVE",
"1185 1459 CURVE SMOOTH",
"1104 1494 OFFCURVE",
"1006 1517 OFFCURVE",
"906 1517 CURVE SMOOTH"
);
}
);
width = 1228;
}
);
unicode = 222B;
},
{
glyphname = less;
lastChange = "2015-01-12 05:49:38 +0000";
layers = (
{
layerId = UUID0;
name = Regular;
paths = (
{
closed = 1;
nodes = (
"340 583 LINE",
"1012 905 LINE SMOOTH",
"1054 925 OFFCURVE",
"1064 954 OFFCURVE",
"1041 1000 CURVE SMOOTH",
"1019 1044 OFFCURVE",
"990 1058 OFFCURVE",
"949 1038 CURVE SMOOTH",
"172 657 LINE SMOOTH",
"140 641 OFFCURVE",
"125 623 OFFCURVE",
"125 583 CURVE SMOOTH",
"125 543 OFFCURVE",
"140 525 OFFCURVE",
"172 509 CURVE SMOOTH",
"949 128 LINE SMOOTH",
"990 108 OFFCURVE",
"1019 122 OFFCURVE",
"1041 166 CURVE SMOOTH",
"1064 212 OFFCURVE",
"1054 241 OFFCURVE",
"1012 261 CURVE SMOOTH"
);
}
);
width = 1228;
}
);
unicode = 003C;
},
{
glyphname = lessequal;
lastChange = "2015-01-12 05:49:38 +0000";
layers = (
{
layerId = UUID0;
name = Regular;
paths = (
{
closed = 1;
nodes = (
"222 835 LINE SMOOTH",
"189 822 OFFCURVE",
"170 798 OFFCURVE",
"170 755 CURVE SMOOTH",
"170 712 OFFCURVE",
"189 688 OFFCURVE",
"222 675 CURVE SMOOTH",
"960 385 LINE SMOOTH",
"1002 369 OFFCURVE",
"1030 382 OFFCURVE",
"1049 431 CURVE SMOOTH",
"1069 482 OFFCURVE",
"1052 507 OFFCURVE",
"1009 523 CURVE SMOOTH",
"396 755 LINE",
"1009 987 LINE SMOOTH",
"1052 1003 OFFCURVE",
"1069 1028 OFFCURVE",
"1049 1079 CURVE SMOOTH",
"1030 1128 OFFCURVE",
"1002 1141 OFFCURVE",
"960 1125 CURVE SMOOTH"
);
},
{
closed = 1;
nodes = (
"233 254 LINE SMOOTH",
"188 254 OFFCURVE",
"170 234 OFFCURVE",
"170 182 CURVE SMOOTH",
"170 130 OFFCURVE",
"188 110 OFFCURVE",
"233 110 CURVE SMOOTH",
"995 110 LINE SMOOTH",
"1040 110 OFFCURVE",
"1058 130 OFFCURVE",
"1058 182 CURVE SMOOTH",
"1058 234 OFFCURVE",
"1040 254 OFFCURVE",
"995 254 CURVE SMOOTH"
);
}
);
width = 1228;
}
);
unicode = 2264;
},
{
glyphname = logicalnot;
lastChange = "2015-01-12 05:49:38 +0000";
layers = (
{
layerId = UUID0;
name = Regular;
paths = (
{
closed = 1;
nodes = (
"203 849 LINE SMOOTH",
"158 849 OFFCURVE",
"140 829 OFFCURVE",
"140 777 CURVE SMOOTH",
"140 725 OFFCURVE",
"158 705 OFFCURVE",
"203 705 CURVE SMOOTH",
"928 705 LINE",
"928 383 LINE SMOOTH",
"928 337 OFFCURVE",
"947 318 OFFCURVE",
"1003 318 CURVE SMOOTH",
"1059 318 OFFCURVE",
"1078 337 OFFCURVE",
"1078 383 CURVE SMOOTH",
"1078 781 LINE SMOOTH",
"1078 831 OFFCURVE",
"1060 849 OFFCURVE",
"1015 849 CURVE SMOOTH"
);
}
);
width = 1228;
}
);
unicode = 00AC;
},
{
glyphname = multiply;
lastChange = "2015-01-12 05:49:38 +0000";
layers = (
{
layerId = UUID0;
name = Regular;
paths = (
{
closed = 1;
nodes = (
"223 899 OFFCURVE",
"222 872 OFFCURVE",
"254 840 CURVE SMOOTH",
"872 222 LINE SMOOTH",
"904 190 OFFCURVE",
"931 191 OFFCURVE",
"968 228 CURVE SMOOTH",
"1005 265 OFFCURVE",
"1006 292 OFFCURVE",
"974 324 CURVE SMOOTH",
"356 942 LINE SMOOTH",
"324 974 OFFCURVE",
"297 973 OFFCURVE",
"260 936 CURVE SMOOTH"
);
},
{
closed = 1;
nodes = (
"931 973 OFFCURVE",
"904 974 OFFCURVE",
"872 942 CURVE SMOOTH",
"254 324 LINE SMOOTH",
"222 292 OFFCURVE",
"223 265 OFFCURVE",
"260 228 CURVE SMOOTH",
"297 191 OFFCURVE",
"324 190 OFFCURVE",
"356 222 CURVE SMOOTH",
"974 840 LINE SMOOTH",
"1006 872 OFFCURVE",
"1005 899 OFFCURVE",
"968 936 CURVE SMOOTH"
);
}
);
width = 1228;
}
);
unicode = 00D7;
},
{
glyphname = notequal;
lastChange = "2015-01-12 05:49:38 +0000";
layers = (
{
components = (
{
name = equal;
transform = "{1, 0, 0, 1, 0, 0}";
}
);
layerId = UUID0;
name = Regular;
paths = (
{
closed = 1;
nodes = (
"856 1106 OFFCURVE",
"831 1100 OFFCURVE",
"808 1061 CURVE SMOOTH",
"683 850 LINE",
"613 714 LINE",
"457 450 LINE",
"387 314 LINE",
"304 173 LINE SMOOTH",
"280 133 OFFCURVE",
"287 107 OFFCURVE",
"329 83 CURVE SMOOTH",
"372 58 OFFCURVE",
"397 64 OFFCURVE",
"420 103 CURVE SMOOTH",
"544 314 LINE",
"615 450 LINE",
"770 714 LINE",
"841 850 LINE",
"924 991 LINE SMOOTH",
"948 1031 OFFCURVE",
"941 1057 OFFCURVE",
"899 1081 CURVE SMOOTH"
);
}
);
width = 1228;
}
);
unicode = 2260;
},
{
glyphname = partialdiff;
lastChange = "2015-01-12 05:49:38 +0000";
layers = (
{
background = {
paths = (
{
closed = 1;
nodes = (
"817 242 OFFCURVE",
"708 127 OFFCURVE",
"525 126 CURVE SMOOTH",
"402 126 OFFCURVE",
"321 208 OFFCURVE",
"321 333 CURVE SMOOTH",
"321 484 OFFCURVE",
"418 583 OFFCURVE",
"575 583 CURVE SMOOTH",
"724 584 OFFCURVE",
"819 472 OFFCURVE",
"837 335 CURVE",
"894 504 LINE",
"842 649 OFFCURVE",
"720 731 OFFCURVE",
"562 731 CURVE SMOOTH",
"337 731 OFFCURVE",
"167 573 OFFCURVE",
"167 334 CURVE SMOOTH",
"167 129 OFFCURVE",
"308 -23 OFFCURVE",
"526 -23 CURVE SMOOTH",
"775 -23 OFFCURVE",
"925 133 OFFCURVE",
"1009 458 CURVE SMOOTH",
"1179 1118 OFFCURVE",
"772 1299 OFFCURVE",
"447 1170 CURVE SMOOTH",
"421 1158 OFFCURVE",
"406 1133 OFFCURVE",
"425 1084 CURVE SMOOTH",
"447 1029 OFFCURVE",
"470 1025 OFFCURVE",
"494 1031 CURVE SMOOTH",
"843 1131 OFFCURVE",
"975 893 OFFCURVE",
"877 489 CURVE SMOOTH"
);
}
);
};
layerId = UUID0;
name = Regular;
paths = (
{
closed = 1;
nodes = (
"578 1209 OFFCURVE",
"510 1197 OFFCURVE",
"447 1170 CURVE SMOOTH",
"421 1159 OFFCURVE",
"406 1133 OFFCURVE",
"425 1084 CURVE SMOOTH",
"447 1029 OFFCURVE",
"470 1024 OFFCURVE",
"494 1031 CURVE SMOOTH",
"548 1046 OFFCURVE",
"597 1054 OFFCURVE",
"641 1054 CURVE SMOOTH",
"818 1054 OFFCURVE",
"908 929 OFFCURVE",
"908 724 CURVE SMOOTH",
"908 664 OFFCURVE",
"900 598 OFFCURVE",
"885 526 CURVE",
"829 657 OFFCURVE",
"712 731 OFFCURVE",
"562 731 CURVE SMOOTH",
"337 731 OFFCURVE",
"167 573 OFFCURVE",
"167 334 CURVE SMOOTH",
"167 129 OFFCURVE",
"308 -23 OFFCURVE",
"526 -23 CURVE SMOOTH",
"714 -23 OFFCURVE",
"846 66 OFFCURVE",
"935 249 CURVE SMOOTH",
"1009 402 OFFCURVE",
"1049 598 OFFCURVE",
"1049 742 CURVE SMOOTH",
"1049 1068 OFFCURVE",
"856 1209 OFFCURVE",
"644 1209 CURVE SMOOTH"
);
},
{
closed = 1;
nodes = (
"717 583 OFFCURVE",
"810 482 OFFCURVE",
"834 353 CURVE",
"769 199 OFFCURVE",
"670 127 OFFCURVE",
"525 126 CURVE SMOOTH",
"402 126 OFFCURVE",
"321 208 OFFCURVE",
"321 333 CURVE SMOOTH",
"321 484 OFFCURVE",
"418 583 OFFCURVE",
"575 583 CURVE SMOOTH"
);
}
);
width = 1228;
}
);
unicode = 2202;
},
{
glyphname = percent;
lastChange = "2015-01-12 05:49:38 +0000";
layers = (
{
layerId = UUID0;
name = Regular;
paths = (
{
closed = 1;
nodes = (
"129 229 LINE SMOOTH",
"96 198 OFFCURVE",
"98 167 OFFCURVE",
"130 134 CURVE SMOOTH",
"161 101 OFFCURVE",
"192 98 OFFCURVE",
"225 129 CURVE SMOOTH",
"1099 959 LINE SMOOTH",
"1132 990 OFFCURVE",
"1130 1021 OFFCURVE",
"1098 1054 CURVE SMOOTH",
"1067 1087 OFFCURVE",
"1036 1090 OFFCURVE",
"1003 1059 CURVE SMOOTH"
);
},
{
closed = 1;
nodes = (
"753 526 OFFCURVE",
"630 403 OFFCURVE",
"630 252 CURVE SMOOTH",
"630 101 OFFCURVE",
"753 -22 OFFCURVE",
"904 -22 CURVE SMOOTH",
"1055 -22 OFFCURVE",
"1178 101 OFFCURVE",
"1178 252 CURVE SMOOTH",
"1178 403 OFFCURVE",
"1055 526 OFFCURVE",
"904 526 CURVE SMOOTH"
);
},
{
closed = 1;
nodes = (
"983 396 OFFCURVE",
"1048 331 OFFCURVE",
"1048 252 CURVE SMOOTH",
"1048 173 OFFCURVE",
"983 108 OFFCURVE",
"904 108 CURVE SMOOTH",
"825 108 OFFCURVE",
"760 173 OFFCURVE",
"760 252 CURVE SMOOTH",
"760 331 OFFCURVE",
"825 396 OFFCURVE",
"904 396 CURVE SMOOTH"
);
},
{
closed = 1;
nodes = (
"173 1209 OFFCURVE",
"50 1086 OFFCURVE",
"50 935 CURVE SMOOTH",
"50 784 OFFCURVE",
"173 661 OFFCURVE",
"324 661 CURVE SMOOTH",
"475 661 OFFCURVE",
"598 784 OFFCURVE",
"598 935 CURVE SMOOTH",
"598 1086 OFFCURVE",
"475 1209 OFFCURVE",
"324 1209 CURVE SMOOTH"
);
},
{
closed = 1;
nodes = (
"403 1079 OFFCURVE",
"468 1014 OFFCURVE",
"468 935 CURVE SMOOTH",
"468 856 OFFCURVE",
"403 791 OFFCURVE",
"324 791 CURVE SMOOTH",
"245 791 OFFCURVE",
"180 856 OFFCURVE",
"180 935 CURVE SMOOTH",
"180 1014 OFFCURVE",
"245 1079 OFFCURVE",
"324 1079 CURVE SMOOTH"
);
}
);
width = 1228;
}
);
unicode = 0025;
},
{
glyphname = perthousand;
lastChange = "2015-01-12 05:49:38 +0000";
layers = (
{
layerId = UUID0;
name = Regular;
paths = (
{
closed = 1;
nodes = (
"129 229 LINE SMOOTH",
"96 198 OFFCURVE",
"98 167 OFFCURVE",
"130 134 CURVE SMOOTH",
"161 101 OFFCURVE",
"192 98 OFFCURVE",
"225 129 CURVE SMOOTH",
"1099 959 LINE SMOOTH",
"1132 990 OFFCURVE",
"1130 1021 OFFCURVE",
"1098 1054 CURVE SMOOTH",
"1067 1087 OFFCURVE",
"1036 1090 OFFCURVE",
"1003 1059 CURVE SMOOTH"
);
},
{
closed = 1;
nodes = (
"983 396 OFFCURVE",
"1048 331 OFFCURVE",
"1048 252 CURVE SMOOTH",
"1048 173 OFFCURVE",
"983 108 OFFCURVE",
"904 108 CURVE SMOOTH",
"825 108 OFFCURVE",
"760 173 OFFCURVE",
"760 252 CURVE SMOOTH",
"760 331 OFFCURVE",
"825 396 OFFCURVE",
"904 396 CURVE SMOOTH"
);
},
{
closed = 1;
nodes = (
"173 1209 OFFCURVE",
"50 1086 OFFCURVE",
"50 935 CURVE SMOOTH",
"50 784 OFFCURVE",
"173 661 OFFCURVE",
"324 661 CURVE SMOOTH",
"475 661 OFFCURVE",
"598 784 OFFCURVE",
"598 935 CURVE SMOOTH",
"598 1086 OFFCURVE",
"475 1209 OFFCURVE",
"324 1209 CURVE SMOOTH"
);
},
{
closed = 1;
nodes = (
"403 1079 OFFCURVE",
"468 1014 OFFCURVE",
"468 935 CURVE SMOOTH",
"468 856 OFFCURVE",
"403 791 OFFCURVE",
"324 791 CURVE SMOOTH",
"245 791 OFFCURVE",
"180 856 OFFCURVE",
"180 935 CURVE SMOOTH",
"180 1014 OFFCURVE",
"245 1079 OFFCURVE",
"324 1079 CURVE SMOOTH"
);
},
{
closed = 1;
nodes = (
"1235 526 OFFCURVE",
"1160 485 OFFCURVE",
"1113 421 CURVE",
"1065 485 OFFCURVE",
"991 526 OFFCURVE",
"904 526 CURVE SMOOTH",
"753 526 OFFCURVE",
"630 403 OFFCURVE",
"630 252 CURVE SMOOTH",
"630 101 OFFCURVE",
"753 -22 OFFCURVE",
"904 -22 CURVE SMOOTH",
"991 -22 OFFCURVE",
"1065 19 OFFCURVE",
"1113 82 CURVE",
"1160 19 OFFCURVE",
"1235 -22 OFFCURVE",
"1322 -22 CURVE SMOOTH",
"1473 -22 OFFCURVE",
"1596 101 OFFCURVE",
"1596 252 CURVE SMOOTH",
"1596 403 OFFCURVE",
"1473 526 OFFCURVE",
"1322 526 CURVE SMOOTH"
);
},
{
closed = 1;
nodes = (
"1401 396 OFFCURVE",
"1466 331 OFFCURVE",
"1466 252 CURVE SMOOTH",
"1466 173 OFFCURVE",
"1401 108 OFFCURVE",
"1322 108 CURVE SMOOTH",
"1243 108 OFFCURVE",
"1178 173 OFFCURVE",
"1178 252 CURVE SMOOTH",
"1178 331 OFFCURVE",
"1243 396 OFFCURVE",
"1322 396 CURVE SMOOTH"
);
}
);
width = 1228;
}
);
unicode = 2030;
},
{
glyphname = plus;
lastChange = "2015-01-12 05:49:38 +0000";
layers = (
{
layerId = UUID0;
name = Regular;
paths = (
{
closed = 1;
nodes = (
"233 654 LINE SMOOTH",
"188 654 OFFCURVE",
"170 634 OFFCURVE",
"170 582 CURVE SMOOTH",
"170 530 OFFCURVE",
"188 510 OFFCURVE",
"233 510 CURVE SMOOTH",
"995 510 LINE SMOOTH",
"1040 510 OFFCURVE",
"1058 530 OFFCURVE",
"1058 582 CURVE SMOOTH",
"1058 634 OFFCURVE",
"1040 654 OFFCURVE",
"995 654 CURVE SMOOTH"
);
},
{
closed = 1;
nodes = (
"562 1026 OFFCURVE",
"542 1008 OFFCURVE",
"542 963 CURVE SMOOTH",
"542 201 LINE SMOOTH",
"542 156 OFFCURVE",
"562 138 OFFCURVE",
"614 138 CURVE SMOOTH",
"666 138 OFFCURVE",
"686 156 OFFCURVE",
"686 201 CURVE SMOOTH",
"686 963 LINE SMOOTH",
"686 1008 OFFCURVE",
"666 1026 OFFCURVE",
"614 1026 CURVE SMOOTH"
);
}
);
width = 1228;
}
);
unicode = 002B;
},
{
glyphname = plusminus;
lastChange = "2015-01-12 05:49:38 +0000";
layers = (
{
layerId = UUID0;
name = Regular;
paths = (
{
closed = 1;
nodes = (
"233 814 LINE SMOOTH",
"188 814 OFFCURVE",
"170 794 OFFCURVE",
"170 742 CURVE SMOOTH",
"170 690 OFFCURVE",
"188 670 OFFCURVE",
"233 670 CURVE SMOOTH",
"995 670 LINE SMOOTH",
"1040 670 OFFCURVE",
"1058 690 OFFCURVE",
"1058 742 CURVE SMOOTH",
"1058 794 OFFCURVE",
"1040 814 OFFCURVE",
"995 814 CURVE SMOOTH"
);
},
{
closed = 1;
nodes = (
"233 254 LINE SMOOTH",
"188 254 OFFCURVE",
"170 234 OFFCURVE",
"170 182 CURVE SMOOTH",
"170 130 OFFCURVE",
"188 110 OFFCURVE",
"233 110 CURVE SMOOTH",
"995 110 LINE SMOOTH",
"1040 110 OFFCURVE",
"1058 130 OFFCURVE",
"1058 182 CURVE SMOOTH",
"1058 234 OFFCURVE",
"1040 254 OFFCURVE",
"995 254 CURVE SMOOTH"
);
},
{
closed = 1;
nodes = (
"562 1126 OFFCURVE",
"542 1108 OFFCURVE",
"542 1063 CURVE SMOOTH",
"542 421 LINE SMOOTH",
"542 376 OFFCURVE",
"562 358 OFFCURVE",
"614 358 CURVE SMOOTH",
"666 358 OFFCURVE",
"686 376 OFFCURVE",
"686 421 CURVE SMOOTH",
"686 1063 LINE SMOOTH",
"686 1108 OFFCURVE",
"666 1126 OFFCURVE",
"614 1126 CURVE SMOOTH"
);
}
);
width = 1228;
}
);
unicode = 00B1;
},
{
glyphname = product;
lastChange = "2015-01-12 05:49:38 +0000";
layers = (
{
layerId = UUID0;
name = Regular;
paths = (
{
closed = 1;
nodes = (
"258 1187 LINE SMOOTH",
"213 1187 OFFCURVE",
"195 1169 OFFCURVE",
"195 1119 CURVE SMOOTH",
"195 55 LINE SMOOTH",
"195 9 OFFCURVE",
"213 -10 OFFCURVE",
"269 -10 CURVE SMOOTH",
"271 -10 LINE SMOOTH",
"327 -10 OFFCURVE",
"345 9 OFFCURVE",
"345 55 CURVE SMOOTH",
"345 1043 LINE",
"883 1043 LINE",
"883 55 LINE SMOOTH",
"883 9 OFFCURVE",
"901 -10 OFFCURVE",
"957 -10 CURVE SMOOTH",
"959 -10 LINE SMOOTH",
"1015 -10 OFFCURVE",
"1033 9 OFFCURVE",
"1033 55 CURVE SMOOTH",
"1033 1119 LINE SMOOTH",
"1033 1169 OFFCURVE",
"1015 1187 OFFCURVE",
"970 1187 CURVE SMOOTH"
);
}
);
width = 1228;
}
);
unicode = 220F;
},
{
glyphname = radical;
lastChange = "2015-01-12 05:49:38 +0000";
layers = (
{
layerId = UUID0;
name = Regular;
paths = (
{
closed = 1;
nodes = (
"994 1207 OFFCURVE",
"969 1195 OFFCURVE",
"953 1151 CURVE SMOOTH",
"609 182 LINE",
"428 622 LINE SMOOTH",
"419 644 OFFCURVE",
"402 654 OFFCURVE",
"371 654 CURVE SMOOTH",
"179 654 LINE SMOOTH",
"134 654 OFFCURVE",
"116 634 OFFCURVE",
"116 582 CURVE SMOOTH",
"116 530 OFFCURVE",
"134 510 OFFCURVE",
"179 510 CURVE SMOOTH",
"312 510 LINE",
"505 43 LINE SMOOTH",
"524 -3 OFFCURVE",
"556 -22 OFFCURVE",
"613 -22 CURVE SMOOTH",
"670 -22 OFFCURVE",
"702 -4 OFFCURVE",
"719 43 CURVE SMOOTH",
"1098 1103 LINE SMOOTH",
"1114 1147 OFFCURVE",
"1101 1171 OFFCURVE",
"1047 1189 CURVE SMOOTH"
);
}
);
width = 1228;
}
);
unicode = 221A;
},
{
color = 9;
glyphname = summation;
lastChange = "2015-01-12 05:49:38 +0000";
layers = (
{
layerId = UUID0;
name = Regular;
paths = (
{
closed = 1;
nodes = (
"250 1187 LINE SMOOTH",
"205 1187 OFFCURVE",
"185 1169 OFFCURVE",
"185 1119 CURVE SMOOTH",
"185 1099 OFFCURVE",
"187 1082 OFFCURVE",
"197 1070 CURVE SMOOTH",
"570 607 LINE",
"181 121 LINE SMOOTH",
"171 108 OFFCURVE",
"165 90 OFFCURVE",
"165 68 CURVE SMOOTH",
"165 18 OFFCURVE",
"185 0 OFFCURVE",
"230 0 CURVE SMOOTH",
"977 0 LINE SMOOTH",
"1022 0 OFFCURVE",
"1040 20 OFFCURVE",
"1040 72 CURVE SMOOTH",
"1040 124 OFFCURVE",
"1022 144 OFFCURVE",
"977 144 CURVE SMOOTH",
"382 144 LINE",
"730 577 LINE SMOOTH",
"744 595 OFFCURVE",
"745 620 OFFCURVE",
"730 638 CURVE SMOOTH",
"402 1043 LINE",
"957 1043 LINE SMOOTH",
"1002 1043 OFFCURVE",
"1020 1063 OFFCURVE",
"1020 1115 CURVE SMOOTH",
"1020 1167 OFFCURVE",
"1002 1187 OFFCURVE",
"957 1187 CURVE SMOOTH"
);
},
{
closed = 1;
nodes = (
"613 -837 LINE",
"613 -838 LINE",
"614 -838 LINE",
"614 -837 LINE"
);
},
{
closed = 1;
nodes = (
"613 1797 LINE",
"613 1796 LINE",
"614 1796 LINE",
"614 1797 LINE"
);
}
);
width = 1228;
}
);
unicode = 2211;
},
{
glyphname = lozenge;
lastChange = "2015-01-12 05:49:38 +0000";
layers = (
{
layerId = UUID0;
name = Regular;
paths = (
{
closed = 1;
nodes = (
"557 1209 OFFCURVE",
"533 1188 OFFCURVE",
"508 1144 CURVE SMOOTH",
"213 623 LINE SMOOTH",
"202 603 OFFCURVE",
"202 583 OFFCURVE",
"213 563 CURVE SMOOTH",
"508 43 LINE SMOOTH",
"533 -1 OFFCURVE",
"557 -22 OFFCURVE",
"614 -22 CURVE SMOOTH",
"671 -22 OFFCURVE",
"695 -1 OFFCURVE",
"720 43 CURVE SMOOTH",
"1014 563 LINE SMOOTH",
"1025 583 OFFCURVE",
"1025 603 OFFCURVE",
"1014 623 CURVE SMOOTH",
"720 1144 LINE SMOOTH",
"695 1188 OFFCURVE",
"671 1209 OFFCURVE",
"614 1209 CURVE SMOOTH"
);
},
{
closed = 1;
nodes = (
"860 593 LINE",
"614 158 LINE",
"368 593 LINE",
"614 1029 LINE"
);
}
);
width = 1228;
}
);
unicode = 25CA;
},
{
color = 3;
glyphname = bar;
lastChange = "2015-01-12 05:49:38 +0000";
layers = (
{
background = {
paths = (
{
closed = 1;
nodes = (
"539 -350 LINE SMOOTH",
"539 -396 OFFCURVE",
"558 -415 OFFCURVE",
"614 -415 CURVE SMOOTH",
"670 -415 OFFCURVE",
"689 -396 OFFCURVE",
"689 -350 CURVE SMOOTH",
"689 1269 LINE SMOOTH",
"689 1315 OFFCURVE",
"670 1334 OFFCURVE",
"614 1334 CURVE SMOOTH",
"558 1334 OFFCURVE",
"539 1315 OFFCURVE",
"539 1269 CURVE SMOOTH"
);
}
);
};
layerId = UUID0;
name = Regular;
paths = (
{
closed = 1;
nodes = (
"558 1394 OFFCURVE",
"539 1375 OFFCURVE",
"539 1329 CURVE SMOOTH",
"539 -290 LINE SMOOTH",
"539 -336 OFFCURVE",
"558 -355 OFFCURVE",
"614 -355 CURVE SMOOTH",
"670 -355 OFFCURVE",
"689 -336 OFFCURVE",
"689 -290 CURVE SMOOTH",
"689 1329 LINE SMOOTH",
"689 1375 OFFCURVE",
"670 1394 OFFCURVE",
"614 1394 CURVE SMOOTH"
);
}
);
width = 1228;
}
);
unicode = 007C;
},
{
color = 3;
glyphname = brokenbar;
lastChange = "2015-01-12 05:49:38 +0000";
layers = (
{
background = {
paths = (
{
closed = 1;
nodes = (
"539 -350 LINE SMOOTH",
"539 -396 OFFCURVE",
"558 -415 OFFCURVE",
"614 -415 CURVE SMOOTH",
"670 -415 OFFCURVE",
"689 -396 OFFCURVE",
"689 -350 CURVE SMOOTH",
"689 269 LINE SMOOTH",
"689 315 OFFCURVE",
"670 334 OFFCURVE",
"614 334 CURVE SMOOTH",
"558 334 OFFCURVE",
"539 315 OFFCURVE",
"539 269 CURVE SMOOTH"
);
},
{
closed = 1;
nodes = (
"539 650 LINE SMOOTH",
"539 604 OFFCURVE",
"558 585 OFFCURVE",
"614 585 CURVE SMOOTH",
"670 585 OFFCURVE",
"689 604 OFFCURVE",
"689 650 CURVE SMOOTH",
"689 1269 LINE SMOOTH",
"689 1315 OFFCURVE",
"670 1334 OFFCURVE",
"614 1334 CURVE SMOOTH",
"558 1334 OFFCURVE",
"539 1315 OFFCURVE",
"539 1269 CURVE SMOOTH"
);
}
);
};
layerId = UUID0;
name = Regular;
paths = (
{
closed = 1;
nodes = (
"558 1394 OFFCURVE",
"539 1375 OFFCURVE",
"539 1329 CURVE SMOOTH",
"539 730 LINE SMOOTH",
"539 684 OFFCURVE",
"558 665 OFFCURVE",
"614 665 CURVE SMOOTH",
"670 665 OFFCURVE",
"689 684 OFFCURVE",
"689 730 CURVE SMOOTH",
"689 1329 LINE SMOOTH",
"689 1375 OFFCURVE",
"670 1394 OFFCURVE",
"614 1394 CURVE SMOOTH"
);
},
{
closed = 1;
nodes = (
"558 374 OFFCURVE",
"539 355 OFFCURVE",
"539 309 CURVE SMOOTH",
"539 -290 LINE SMOOTH",
"539 -336 OFFCURVE",
"558 -355 OFFCURVE",
"614 -355 CURVE SMOOTH",
"670 -355 OFFCURVE",
"689 -336 OFFCURVE",
"689 -290 CURVE SMOOTH",
"689 309 LINE SMOOTH",
"689 355 OFFCURVE",
"670 374 OFFCURVE",
"614 374 CURVE SMOOTH"
);
}
);
width = 1228;
}
);
unicode = 00A6;
},
{
glyphname = at;
lastChange = "2015-01-12 05:49:38 +0000";
layers = (
{
layerId = UUID0;
name = Regular;
paths = (
{
closed = 1;
nodes = (
"309 1078 OFFCURVE",
"50 781 OFFCURVE",
"50 389 CURVE SMOOTH",
"50 54 OFFCURVE",
"242 -153 OFFCURVE",
"562 -153 CURVE SMOOTH",
"672 -153 OFFCURVE",
"778 -132 OFFCURVE",
"848 -101 CURVE SMOOTH",
"869 -92 OFFCURVE",
"878 -72 OFFCURVE",
"867 -36 CURVE SMOOTH",
"856 0 OFFCURVE",
"838 14 OFFCURVE",
"815 7 CURVE SMOOTH",
"748 -14 OFFCURVE",
"656 -30 OFFCURVE",
"560 -30 CURVE SMOOTH",
"311 -30 OFFCURVE",
"173 133 OFFCURVE",
"173 389 CURVE SMOOTH",
"173 710 OFFCURVE",
"378 955 OFFCURVE",
"655 955 CURVE SMOOTH",
"898 955 OFFCURVE",
"1049 792 OFFCURVE",
"1049 531 CURVE SMOOTH",
"1049 372 OFFCURVE",
"989 263 OFFCURVE",
"888 263 CURVE SMOOTH",
"828 263 OFFCURVE",
"798 318 OFFCURVE",
"820 404 CURVE SMOOTH",
"897 706 LINE SMOOTH",
"902 726 OFFCURVE",
"882 743 OFFCURVE",
"858 752 CURVE SMOOTH",
"834 761 OFFCURVE",
"806 762 OFFCURVE",
"799 748 CURVE SMOOTH",
"768 685 LINE",
"743 744 OFFCURVE",
"704 785 OFFCURVE",
"640 785 CURVE SMOOTH",
"460 785 OFFCURVE",
"323 536 OFFCURVE",
"323 357 CURVE SMOOTH",
"323 214 OFFCURVE",
"401 132 OFFCURVE",
"499 132 CURVE SMOOTH",
"589 132 OFFCURVE",
"647 187 OFFCURVE",
"708 266 CURVE",
"739 182 OFFCURVE",
"802 137 OFFCURVE",
"889 137 CURVE SMOOTH",
"1057 137 OFFCURVE",
"1170 296 OFFCURVE",
"1170 531 CURVE SMOOTH",
"1170 852 OFFCURVE",
"970 1078 OFFCURVE",
"660 1078 CURVE SMOOTH"
);
},
{
closed = 1;
nodes = (
"683 658 OFFCURVE",
"712 623 OFFCURVE",
"712 561 CURVE SMOOTH",
"712 430 OFFCURVE",
"627 266 OFFCURVE",
"524 266 CURVE SMOOTH",
"486 266 OFFCURVE",
"458 294 OFFCURVE",
"458 359 CURVE SMOOTH",
"458 508 OFFCURVE",
"563 658 OFFCURVE",
"636 658 CURVE SMOOTH"
);
}
);
width = 1228;
}
);
unicode = 0040;
},
{
glyphname = ampersand;
lastChange = "2015-01-12 05:52:27 +0000";
layers = (
{
layerId = UUID0;
name = Regular;
paths = (
{
closed = 1;
nodes = (
"401 1269 OFFCURVE",
"264 1116 OFFCURVE",
"264 920 CURVE SMOOTH",
"264 798 OFFCURVE",
"309 711 OFFCURVE",
"386 626 CURVE SMOOTH",
"954 4 LINE SMOOTH",
"980 -24 OFFCURVE",
"1006 -24 OFFCURVE",
"1049 0 CURVE SMOOTH",
"1097 27 OFFCURVE",
"1104 56 OFFCURVE",
"1073 90 CURVE SMOOTH",
"517 699 LINE SMOOTH",
"454 769 OFFCURVE",
"418 832 OFFCURVE",
"418 920 CURVE SMOOTH",
"418 1028 OFFCURVE",
"491 1121 OFFCURVE",
"617 1121 CURVE SMOOTH",
"701 1121 OFFCURVE",
"778 1095 OFFCURVE",
"846 1050 CURVE SMOOTH",
"875 1031 OFFCURVE",
"906 1031 OFFCURVE",
"933 1081 CURVE SMOOTH",
"960 1132 OFFCURVE",
"951 1160 OFFCURVE",
"915 1182 CURVE SMOOTH",
"829 1236 OFFCURVE",
"729 1269 OFFCURVE",
"618 1269 CURVE SMOOTH"
);
},
{
closed = 1;
nodes = (
"284 625 OFFCURVE",
"157 510 OFFCURVE",
"157 320 CURVE SMOOTH",
"157 136 OFFCURVE",
"288 -22 OFFCURVE",
"516 -22 CURVE SMOOTH",
"793 -22 OFFCURVE",
"957 256 OFFCURVE",
"1053 591 CURVE SMOOTH",
"1066 637 OFFCURVE",
"1058 664 OFFCURVE",
"998 673 CURVE SMOOTH",
"944 681 OFFCURVE",
"921 673 OFFCURVE",
"908 628 CURVE SMOOTH",
"838 369 OFFCURVE",
"719 126 OFFCURVE",
"516 126 CURVE SMOOTH",
"396 126 OFFCURVE",
"311 204 OFFCURVE",
"311 320 CURVE SMOOTH",
"311 446 OFFCURVE",
"389 523 OFFCURVE",
"543 615 CURVE",
"448 721 LINE"
);
}
);
width = 1228;
}
);
unicode = 0026;
},
{
glyphname = paragraph;
lastChange = "2015-01-12 05:49:38 +0000";
layers = (
{
layerId = UUID0;
name = Regular;
paths = (
{
closed = 1;
nodes = (
"548 1187 LINE SMOOTH",
"303 1187 OFFCURVE",
"131 1060 OFFCURVE",
"131 844 CURVE SMOOTH",
"131 635 OFFCURVE",
"293 509 OFFCURVE",
"526 502 CURVE",
"526 -345 LINE SMOOTH",
"526 -391 OFFCURVE",
"545 -410 OFFCURVE",
"601 -410 CURVE SMOOTH",
"657 -410 OFFCURVE",
"676 -391 OFFCURVE",
"676 -345 CURVE SMOOTH",
"676 1043 LINE",
"836 1043 LINE",
"836 -345 LINE SMOOTH",
"836 -391 OFFCURVE",
"855 -410 OFFCURVE",
"911 -410 CURVE SMOOTH",
"967 -410 OFFCURVE",
"986 -391 OFFCURVE",
"986 -345 CURVE SMOOTH",
"986 1043 LINE",
"1054 1043 LINE SMOOTH",
"1099 1043 OFFCURVE",
"1117 1063 OFFCURVE",
"1117 1115 CURVE SMOOTH",
"1117 1167 OFFCURVE",
"1099 1187 OFFCURVE",
"1054 1187 CURVE SMOOTH"
);
}
);
width = 1228;
}
);
unicode = 00B6;
},
{
glyphname = copyright;
lastChange = "2015-01-12 05:49:38 +0000";
layers = (
{
layerId = UUID0;
name = Regular;
paths = (
{
closed = 1;
nodes = (
"274 1209 OFFCURVE",
"36 937 OFFCURVE",
"36 594 CURVE SMOOTH",
"36 251 OFFCURVE",
"274 -22 OFFCURVE",
"614 -22 CURVE SMOOTH",
"954 -22 OFFCURVE",
"1192 251 OFFCURVE",
"1192 594 CURVE SMOOTH",
"1192 937 OFFCURVE",
"954 1209 OFFCURVE",
"614 1209 CURVE SMOOTH"
);
},
{
closed = 1;
nodes = (
"447 937 OFFCURVE",
"315 809 OFFCURVE",
"315 593 CURVE SMOOTH",
"315 377 OFFCURVE",
"447 249 OFFCURVE",
"629 249 CURVE SMOOTH",
"688 249 OFFCURVE",
"753 263 OFFCURVE",
"809 289 CURVE SMOOTH",
"848 307 OFFCURVE",
"859 333 OFFCURVE",
"843 375 CURVE SMOOTH",
"827 417 OFFCURVE",
"802 422 OFFCURVE",
"769 407 CURVE SMOOTH",
"721 385 OFFCURVE",
"680 375 OFFCURVE",
"629 375 CURVE SMOOTH",
"528 375 OFFCURVE",
"448 448 OFFCURVE",
"448 593 CURVE SMOOTH",
"448 738 OFFCURVE",
"528 811 OFFCURVE",
"629 811 CURVE SMOOTH",
"680 811 OFFCURVE",
"721 801 OFFCURVE",
"769 779 CURVE SMOOTH",
"802 764 OFFCURVE",
"827 769 OFFCURVE",
"843 811 CURVE SMOOTH",
"859 853 OFFCURVE",
"848 879 OFFCURVE",
"809 897 CURVE SMOOTH",
"753 923 OFFCURVE",
"688 937 OFFCURVE",
"629 937 CURVE SMOOTH"
);
},
{
closed = 1;
nodes = (
"885 1089 OFFCURVE",
"1070 880 OFFCURVE",
"1070 594 CURVE SMOOTH",
"1070 308 OFFCURVE",
"885 98 OFFCURVE",
"614 98 CURVE SMOOTH",
"343 98 OFFCURVE",
"158 308 OFFCURVE",
"158 594 CURVE SMOOTH",
"158 880 OFFCURVE",
"343 1089 OFFCURVE",
"614 1089 CURVE SMOOTH"
);
}
);
width = 1228;
}
);
unicode = 00A9;
},
{
glyphname = registered;
lastChange = "2015-01-12 05:49:38 +0000";
layers = (
{
layerId = UUID0;
name = Regular;
paths = (
{
closed = 1;
nodes = (
"274 1209 OFFCURVE",
"36 937 OFFCURVE",
"36 594 CURVE SMOOTH",
"36 251 OFFCURVE",
"274 -22 OFFCURVE",
"614 -22 CURVE SMOOTH",
"954 -22 OFFCURVE",
"1192 251 OFFCURVE",
"1192 594 CURVE SMOOTH",
"1192 937 OFFCURVE",
"954 1209 OFFCURVE",
"614 1209 CURVE SMOOTH"
);
},
{
closed = 1;
nodes = (
"885 1089 OFFCURVE",
"1070 880 OFFCURVE",
"1070 594 CURVE SMOOTH",
"1070 308 OFFCURVE",
"885 98 OFFCURVE",
"614 98 CURVE SMOOTH",
"343 98 OFFCURVE",
"158 308 OFFCURVE",
"158 594 CURVE SMOOTH",
"158 880 OFFCURVE",
"343 1089 OFFCURVE",
"614 1089 CURVE SMOOTH"
);
},
{
closed = 1;
nodes = (
"450 917 LINE SMOOTH",
"405 917 OFFCURVE",
"385 899 OFFCURVE",
"385 854 CURVE SMOOTH",
"385 335 LINE SMOOTH",
"385 289 OFFCURVE",
"400 270 OFFCURVE",
"446 270 CURVE SMOOTH",
"492 270 OFFCURVE",
"509 289 OFFCURVE",
"509 335 CURVE SMOOTH",
"509 470 LINE",
"598 470 LINE",
"756 288 LINE SMOOTH",
"779 261 OFFCURVE",
"813 255 OFFCURVE",
"845 284 CURVE SMOOTH",
"879 315 OFFCURVE",
"871 345 OFFCURVE",
"841 378 CURVE SMOOTH",
"734 494 LINE",
"826 525 OFFCURVE",
"879 596 OFFCURVE",
"879 695 CURVE SMOOTH",
"879 825 OFFCURVE",
"785 917 OFFCURVE",
"637 917 CURVE SMOOTH"
);
},
{
closed = 1;
nodes = (
"707 800 OFFCURVE",
"749 760 OFFCURVE",
"749 695 CURVE SMOOTH",
"749 627 OFFCURVE",
"705 587 OFFCURVE",
"615 587 CURVE SMOOTH",
"509 587 LINE",
"509 800 LINE",
"624 800 LINE SMOOTH"
);
}
);
width = 1228;
}
);
unicode = 00AE;
},
{
glyphname = section;
lastChange = "2015-01-12 05:49:38 +0000";
layers = (
{
layerId = UUID0;
name = Regular;
paths = (
{
closed = 1;
nodes = (
"569 1187 LINE SMOOTH",
"389 1187 OFFCURVE",
"294 1087 OFFCURVE",
"294 947 CURVE SMOOTH",
"294 821 OFFCURVE",
"357 744 OFFCURVE",
"448 688 CURVE SMOOTH",
"781 482 LINE SMOOTH",
"848 440 OFFCURVE",
"881 393 OFFCURVE",
"881 333 CURVE SMOOTH",
"881 273 OFFCURVE",
"847 240 OFFCURVE",
"792 210 CURVE",
"870 93 LINE",
"972 157 OFFCURVE",
"1035 225 OFFCURVE",
"1035 333 CURVE SMOOTH",
"1035 452 OFFCURVE",
"983 535 OFFCURVE",
"872 604 CURVE SMOOTH",
"539 810 LINE SMOOTH",
"476 849 OFFCURVE",
"448 885 OFFCURVE",
"448 943 CURVE SMOOTH",
"448 1007 OFFCURVE",
"494 1043 OFFCURVE",
"589 1043 CURVE SMOOTH",
"895 1043 LINE SMOOTH",
"940 1043 OFFCURVE",
"958 1063 OFFCURVE",
"958 1115 CURVE SMOOTH",
"958 1167 OFFCURVE",
"940 1187 OFFCURVE",
"895 1187 CURVE SMOOTH"
);
},
{
closed = 1;
nodes = (
"256 800 OFFCURVE",
"193 732 OFFCURVE",
"193 624 CURVE SMOOTH",
"193 505 OFFCURVE",
"245 422 OFFCURVE",
"356 353 CURVE SMOOTH",
"689 147 LINE SMOOTH",
"752 108 OFFCURVE",
"780 72 OFFCURVE",
"780 14 CURVE SMOOTH",
"780 -50 OFFCURVE",
"734 -86 OFFCURVE",
"639 -86 CURVE SMOOTH",
"333 -86 LINE SMOOTH",
"288 -86 OFFCURVE",
"270 -106 OFFCURVE",
"270 -158 CURVE SMOOTH",
"270 -210 OFFCURVE",
"288 -230 OFFCURVE",
"333 -230 CURVE SMOOTH",
"659 -230 LINE SMOOTH",
"839 -230 OFFCURVE",
"934 -130 OFFCURVE",
"934 10 CURVE SMOOTH",
"934 136 OFFCURVE",
"871 213 OFFCURVE",
"780 269 CURVE SMOOTH",
"447 475 LINE SMOOTH",
"380 517 OFFCURVE",
"347 564 OFFCURVE",
"347 624 CURVE SMOOTH",
"347 684 OFFCURVE",
"381 717 OFFCURVE",
"436 747 CURVE",
"358 864 LINE"
);
}
);
width = 1228;
}
);
unicode = 00A7;
},
{
glyphname = trademark;
lastChange = "2015-01-12 05:49:38 +0000";
layers = (
{
layerId = UUID0;
name = Regular;
paths = (
{
closed = 1;
nodes = (
"1140 1322 OFFCURVE",
"1119 1315 OFFCURVE",
"1110 1296 CURVE SMOOTH",
"968 997 LINE",
"826 1296 LINE SMOOTH",
"817 1315 OFFCURVE",
"796 1322 OFFCURVE",
"764 1322 CURVE SMOOTH",
"718 1322 OFFCURVE",
"698 1303 OFFCURVE",
"695 1257 CURVE SMOOTH",
"665 813 LINE SMOOTH",
"662 767 OFFCURVE",
"676 748 OFFCURVE",
"722 748 CURVE SMOOTH",
"768 748 OFFCURVE",
"782 767 OFFCURVE",
"785 813 CURVE SMOOTH",
"802 1072 LINE",
"896 880 LINE SMOOTH",
"911 848 OFFCURVE",
"940 832 OFFCURVE",
"968 832 CURVE SMOOTH",
"996 832 OFFCURVE",
"1024 848 OFFCURVE",
"1040 880 CURVE SMOOTH",
"1133 1072 LINE",
"1151 813 LINE SMOOTH",
"1154 767 OFFCURVE",
"1168 748 OFFCURVE",
"1214 748 CURVE SMOOTH",
"1260 748 OFFCURVE",
"1274 767 OFFCURVE",
"1271 813 CURVE SMOOTH",
"1241 1257 LINE SMOOTH",
"1238 1303 OFFCURVE",
"1218 1322 OFFCURVE",
"1172 1322 CURVE SMOOTH"
);
},
{
closed = 1;
nodes = (
"123 1312 LINE SMOOTH",
"78 1312 OFFCURVE",
"60 1297 OFFCURVE",
"60 1252 CURVE SMOOTH",
"60 1207 OFFCURVE",
"78 1193 OFFCURVE",
"123 1193 CURVE SMOOTH",
"252 1193 LINE",
"252 813 LINE SMOOTH",
"252 767 OFFCURVE",
"268 748 OFFCURVE",
"314 748 CURVE SMOOTH",
"360 748 OFFCURVE",
"376 767 OFFCURVE",
"376 813 CURVE SMOOTH",
"376 1193 LINE",
"505 1193 LINE SMOOTH",
"550 1193 OFFCURVE",
"568 1207 OFFCURVE",
"568 1252 CURVE SMOOTH",
"568 1297 OFFCURVE",
"550 1312 OFFCURVE",
"505 1312 CURVE SMOOTH"
);
}
);
width = 1228;
}
);
unicode = 2122;
},
{
glyphname = degree;
lastChange = "2015-01-12 05:49:38 +0000";
layers = (
{
layerId = UUID0;
name = Regular;
paths = (
{
closed = 1;
nodes = (
"246 774 OFFCURVE",
"371 649 OFFCURVE",
"526 649 CURVE SMOOTH",
"681 649 OFFCURVE",
"806 774 OFFCURVE",
"806 929 CURVE SMOOTH",
"806 1084 OFFCURVE",
"681 1209 OFFCURVE",
"526 1209 CURVE SMOOTH",
"371 1209 OFFCURVE",
"246 1084 OFFCURVE",
"246 929 CURVE SMOOTH"
);
},
{
closed = 1;
nodes = (
"381 1009 OFFCURVE",
"446 1074 OFFCURVE",
"526 1074 CURVE SMOOTH",
"606 1074 OFFCURVE",
"671 1009 OFFCURVE",
"671 929 CURVE SMOOTH",
"671 849 OFFCURVE",
"606 784 OFFCURVE",
"526 784 CURVE SMOOTH",
"446 784 OFFCURVE",
"381 849 OFFCURVE",
"381 929 CURVE SMOOTH"
);
}
);
width = 1228;
}
);
unicode = 00B0;
},
{
glyphname = asciicircum;
lastChange = "2015-01-12 05:49:38 +0000";
layers = (
{
layerId = UUID0;
name = Regular;
paths = (
{
closed = 1;
nodes = (
"575 1209 OFFCURVE",
"559 1196 OFFCURVE",
"546 1172 CURVE SMOOTH",
"238 581 LINE SMOOTH",
"220 547 OFFCURVE",
"247 520 OFFCURVE",
"283 509 CURVE SMOOTH",
"319 497 OFFCURVE",
"363 500 OFFCURVE",
"377 527 CURVE SMOOTH",
"614 1007 LINE",
"851 527 LINE SMOOTH",
"865 499 OFFCURVE",
"912 496 OFFCURVE",
"949 510 CURVE SMOOTH",
"982 522 OFFCURVE",
"1007 548 OFFCURVE",
"990 581 CURVE SMOOTH",
"682 1172 LINE SMOOTH",
"669 1196 OFFCURVE",
"653 1209 OFFCURVE",
"614 1209 CURVE SMOOTH"
);
}
);
width = 1228;
}
);
unicode = 005E;
},
{
glyphname = dagger;
lastChange = "2015-01-12 05:49:38 +0000";
layers = (
{
layerId = UUID0;
name = Regular;
paths = (
{
closed = 1;
nodes = (
"562 1209 OFFCURVE",
"542 1191 OFFCURVE",
"542 1146 CURVE SMOOTH",
"542 344 LINE SMOOTH",
"542 299 OFFCURVE",
"562 281 OFFCURVE",
"614 281 CURVE SMOOTH",
"666 281 OFFCURVE",
"686 299 OFFCURVE",
"686 344 CURVE SMOOTH",
"686 1146 LINE SMOOTH",
"686 1191 OFFCURVE",
"666 1209 OFFCURVE",
"614 1209 CURVE SMOOTH"
);
},
{
closed = 1;
nodes = (
"353 924 LINE SMOOTH",
"308 924 OFFCURVE",
"290 904 OFFCURVE",
"290 852 CURVE SMOOTH",
"290 800 OFFCURVE",
"308 780 OFFCURVE",
"353 780 CURVE SMOOTH",
"875 780 LINE SMOOTH",
"920 780 OFFCURVE",
"938 800 OFFCURVE",
"938 852 CURVE SMOOTH",
"938 904 OFFCURVE",
"920 924 OFFCURVE",
"875 924 CURVE SMOOTH"
);
}
);
width = 1228;
}
);
unicode = 2020;
},
{
glyphname = daggerdbl;
lastChange = "2015-01-12 05:49:38 +0000";
layers = (
{
layerId = UUID0;
name = Regular;
paths = (
{
closed = 1;
nodes = (
"562 1209 OFFCURVE",
"542 1191 OFFCURVE",
"542 1146 CURVE SMOOTH",
"542 284 LINE SMOOTH",
"542 239 OFFCURVE",
"562 221 OFFCURVE",
"614 221 CURVE SMOOTH",
"666 221 OFFCURVE",
"686 239 OFFCURVE",
"686 284 CURVE SMOOTH",
"686 1146 LINE SMOOTH",
"686 1191 OFFCURVE",
"666 1209 OFFCURVE",
"614 1209 CURVE SMOOTH"
);
},
{
closed = 1;
nodes = (
"353 600 LINE SMOOTH",
"308 600 OFFCURVE",
"290 580 OFFCURVE",
"290 528 CURVE SMOOTH",
"290 476 OFFCURVE",
"308 456 OFFCURVE",
"353 456 CURVE SMOOTH",
"875 456 LINE SMOOTH",
"920 456 OFFCURVE",
"938 476 OFFCURVE",
"938 528 CURVE SMOOTH",
"938 580 OFFCURVE",
"920 600 OFFCURVE",
"875 600 CURVE SMOOTH"
);
},
{
closed = 1;
nodes = (
"353 974 LINE SMOOTH",
"308 974 OFFCURVE",
"290 954 OFFCURVE",
"290 902 CURVE SMOOTH",
"290 850 OFFCURVE",
"308 830 OFFCURVE",
"353 830 CURVE SMOOTH",
"875 830 LINE SMOOTH",
"920 830 OFFCURVE",
"938 850 OFFCURVE",
"938 902 CURVE SMOOTH",
"938 954 OFFCURVE",
"920 974 OFFCURVE",
"875 974 CURVE SMOOTH"
);
}
);
width = 1228;
}
);
unicode = 2021;
},
{
glyphname = acute;
lastChange = "2015-01-12 05:49:38 +0000";
layers = (
{
background = {
paths = (
{
closed = 1;
nodes = (
"421 1133 LINE SMOOTH",
"398 1120 OFFCURVE",
"393 1094 OFFCURVE",
"402 1071 CURVE SMOOTH",
"411 1048 OFFCURVE",
"432 1031 OFFCURVE",
"457 1039 CURVE SMOOTH",
"938 1202 LINE SMOOTH",
"965 1211 OFFCURVE",
"977 1238 OFFCURVE",
"938 1309 CURVE SMOOTH",
"896 1384 OFFCURVE",
"871 1382 OFFCURVE",
"837 1363 CURVE SMOOTH"
);
}
);
};
layerId = UUID0;
name = Regular;
paths = (
{
closed = 1;
nodes = (
"433 1146 LINE SMOOTH",
"408 1127 OFFCURVE",
"413 1095 OFFCURVE",
"441 1063 CURVE SMOOTH",
"467 1034 OFFCURVE",
"493 1033 OFFCURVE",
"519 1048 CURVE SMOOTH",
"893 1267 LINE SMOOTH",
"921 1283 OFFCURVE",
"927 1321 OFFCURVE",
"885 1374 CURVE SMOOTH",
"848 1420 OFFCURVE",
"811 1424 OFFCURVE",
"781 1402 CURVE SMOOTH"
);
}
);
width = 1228;
}
);
unicode = 00B4;
},
{
glyphname = breve;
lastChange = "2015-01-12 05:49:38 +0000";
layers = (
{
layerId = UUID0;
name = Regular;
paths = (
{
closed = 1;
nodes = (
"845 1378 OFFCURVE",
"823 1367 OFFCURVE",
"817 1348 CURVE SMOOTH",
"787 1252 OFFCURVE",
"721 1209 OFFCURVE",
"614 1209 CURVE SMOOTH",
"507 1209 OFFCURVE",
"442 1253 OFFCURVE",
"411 1348 CURVE SMOOTH",
"405 1367 OFFCURVE",
"383 1378 OFFCURVE",
"340 1369 CURVE SMOOTH",
"298 1360 OFFCURVE",
"280 1342 OFFCURVE",
"287 1308 CURVE SMOOTH",
"317 1160 OFFCURVE",
"429 1071 OFFCURVE",
"614 1071 CURVE SMOOTH",
"799 1071 OFFCURVE",
"911 1160 OFFCURVE",
"941 1308 CURVE SMOOTH",
"948 1342 OFFCURVE",
"930 1360 OFFCURVE",
"888 1369 CURVE SMOOTH"
);
}
);
width = 1228;
}
);
unicode = 02D8;
},
{
glyphname = caron;
lastChange = "2015-01-12 05:49:38 +0000";
layers = (
{
background = {
paths = (
{
closed = 1;
nodes = (
"614 1215 LINE",
"335 1374 LINE SMOOTH",
"312 1387 OFFCURVE",
"289 1374 OFFCURVE",
"276 1353 CURVE SMOOTH",
"263 1332 OFFCURVE",
"261 1305 OFFCURVE",
"282 1287 CURVE SMOOTH",
"559 1055 LINE SMOOTH",
"574 1043 OFFCURVE",
"593 1037 OFFCURVE",
"614 1037 CURVE SMOOTH",
"635 1037 OFFCURVE",
"654 1043 OFFCURVE",
"669 1055 CURVE SMOOTH",
"946 1287 LINE SMOOTH",
"967 1305 OFFCURVE",
"965 1332 OFFCURVE",
"952 1353 CURVE SMOOTH",
"939 1374 OFFCURVE",
"916 1387 OFFCURVE",
"893 1374 CURVE SMOOTH"
);
}
);
};
components = (
{
name = circumflex;
transform = "{-1, 0, -0, -1, 1228, 2437}";
}
);
layerId = UUID0;
name = Regular;
width = 1228;
}
);
unicode = 02C7;
},
{
glyphname = caron.alt;
lastChange = "2015-01-12 05:49:38 +0000";
layers = (
{
layerId = UUID0;
name = Regular;
paths = (
{
closed = 1;
nodes = (
"376 1312 LINE SMOOTH",
"353 1312 OFFCURVE",
"339 1301 OFFCURVE",
"334 1280 CURVE SMOOTH",
"252 918 LINE SMOOTH",
"244 884 OFFCURVE",
"265 862 OFFCURVE",
"308 862 CURVE SMOOTH",
"346 862 OFFCURVE",
"373 873 OFFCURVE",
"382 898 CURVE SMOOTH",
"516 1261 LINE SMOOTH",
"527 1290 OFFCURVE",
"520 1312 OFFCURVE",
"494 1312 CURVE SMOOTH"
);
}
);
width = 1228;
}
);
},
{
color = 4;
glyphname = acute.case;
lastChange = "2015-01-12 05:49:38 +0000";
layers = (
{
anchors = (
{
name = _top;
position = "{614, 1187}";
}
);
layerId = UUID0;
name = Regular;
paths = (
{
closed = 1;
nodes = (
"421 1403 LINE SMOOTH",
"398 1390 OFFCURVE",
"393 1364 OFFCURVE",
"402 1341 CURVE SMOOTH",
"411 1318 OFFCURVE",
"432 1301 OFFCURVE",
"457 1309 CURVE SMOOTH",
"938 1472 LINE SMOOTH",
"965 1481 OFFCURVE",
"977 1508 OFFCURVE",
"938 1579 CURVE SMOOTH",
"896 1654 OFFCURVE",
"871 1652 OFFCURVE",
"837 1633 CURVE SMOOTH"
);
}
);
width = 1228;
}
);
},
{
color = 4;
glyphname = breve.case;
lastChange = "2015-01-12 05:49:38 +0000";
layers = (
{
anchors = (
{
name = _top;
position = "{614, 1187}";
}
);
layerId = UUID0;
name = Regular;
paths = (
{
closed = 1;
nodes = (
"905 1628 OFFCURVE",
"890 1622 OFFCURVE",
"883 1608 CURVE SMOOTH",
"837 1518 OFFCURVE",
"750 1485 OFFCURVE",
"614 1485 CURVE SMOOTH",
"478 1485 OFFCURVE",
"391 1518 OFFCURVE",
"345 1608 CURVE SMOOTH",
"338 1622 OFFCURVE",
"323 1628 OFFCURVE",
"306 1628 CURVE SMOOTH",
"271 1628 OFFCURVE",
"229 1602 OFFCURVE",
"237 1568 CURVE SMOOTH",
"270 1430 OFFCURVE",
"407 1341 OFFCURVE",
"614 1341 CURVE SMOOTH",
"821 1341 OFFCURVE",
"958 1430 OFFCURVE",
"991 1568 CURVE SMOOTH",
"999 1602 OFFCURVE",
"957 1628 OFFCURVE",
"922 1628 CURVE SMOOTH"
);
}
);
width = 1228;
}
);
},
{
color = 4;
glyphname = caron.case;
lastChange = "2015-01-12 05:49:38 +0000";
layers = (
{
anchors = (
{
name = _top;
position = "{614, 1187}";
}
);
layerId = UUID0;
name = Regular;
paths = (
{
closed = 1;
nodes = (
"614 1485 LINE",
"335 1644 LINE SMOOTH",
"312 1657 OFFCURVE",
"289 1644 OFFCURVE",
"276 1623 CURVE SMOOTH",
"263 1602 OFFCURVE",
"261 1575 OFFCURVE",
"282 1557 CURVE SMOOTH",
"559 1325 LINE SMOOTH",
"574 1313 OFFCURVE",
"593 1307 OFFCURVE",
"614 1307 CURVE SMOOTH",
"635 1307 OFFCURVE",
"654 1313 OFFCURVE",
"669 1325 CURVE SMOOTH",
"946 1557 LINE SMOOTH",
"967 1575 OFFCURVE",
"965 1602 OFFCURVE",
"952 1623 CURVE SMOOTH",
"939 1644 OFFCURVE",
"916 1657 OFFCURVE",
"893 1644 CURVE SMOOTH"
);
}
);
width = 1228;
}
);
},
{
color = 4;
glyphname = circumflex.case;
lastChange = "2015-01-12 05:49:38 +0000";
layers = (
{
anchors = (
{
name = _top;
position = "{614, 1187}";
}
);
layerId = UUID0;
name = Regular;
paths = (
{
closed = 1;
nodes = (
"614 1468 LINE",
"893 1309 LINE SMOOTH",
"916 1296 OFFCURVE",
"939 1309 OFFCURVE",
"952 1330 CURVE SMOOTH",
"965 1351 OFFCURVE",
"967 1378 OFFCURVE",
"946 1396 CURVE SMOOTH",
"669 1628 LINE SMOOTH",
"654 1640 OFFCURVE",
"635 1646 OFFCURVE",
"614 1646 CURVE SMOOTH",
"593 1646 OFFCURVE",
"574 1640 OFFCURVE",
"559 1628 CURVE SMOOTH",
"282 1396 LINE SMOOTH",
"261 1378 OFFCURVE",
"263 1351 OFFCURVE",
"276 1330 CURVE SMOOTH",
"289 1309 OFFCURVE",
"312 1296 OFFCURVE",
"335 1309 CURVE SMOOTH"
);
}
);
width = 1228;
}
);
},
{
color = 4;
glyphname = dieresis.case;
lastChange = "2015-01-12 05:49:38 +0000";
layers = (
{
anchors = (
{
name = _top;
position = "{614, 1187}";
}
);
layerId = UUID0;
name = Regular;
paths = (
{
closed = 1;
nodes = (
"499 1558 LINE SMOOTH",
"499 1604 OFFCURVE",
"480 1623 OFFCURVE",
"404 1623 CURVE SMOOTH",
"328 1623 OFFCURVE",
"309 1604 OFFCURVE",
"309 1558 CURVE SMOOTH",
"309 1428 LINE SMOOTH",
"309 1382 OFFCURVE",
"328 1363 OFFCURVE",
"404 1363 CURVE SMOOTH",
"480 1363 OFFCURVE",
"499 1382 OFFCURVE",
"499 1428 CURVE SMOOTH"
);
},
{
closed = 1;
nodes = (
"919 1558 LINE SMOOTH",
"919 1604 OFFCURVE",
"900 1623 OFFCURVE",
"824 1623 CURVE SMOOTH",
"748 1623 OFFCURVE",
"729 1604 OFFCURVE",
"729 1558 CURVE SMOOTH",
"729 1428 LINE SMOOTH",
"729 1382 OFFCURVE",
"748 1363 OFFCURVE",
"824 1363 CURVE SMOOTH",
"900 1363 OFFCURVE",
"919 1382 OFFCURVE",
"919 1428 CURVE SMOOTH"
);
}
);
width = 1228;
}
);
},
